G04 EAGLE Gerber RS-274X export*
G75*
%MOMM*%
%FSLAX34Y34*%
%LPD*%
%IN*%
%IPPOS*%
%AMOC8*
5,1,8,0,0,1.08239X$1,22.5*%
G01*
%ADD10C,0.254000*%


D10*
X0Y0D02*
X400000Y0D01*
X400000Y300000D01*
X0Y300000D01*
X0Y0D01*
X370000Y49396D02*
X369927Y48189D01*
X369781Y46989D01*
X369563Y45800D01*
X369274Y44627D01*
X368915Y43473D01*
X368486Y42343D01*
X367990Y41241D01*
X367428Y40170D01*
X366803Y39136D01*
X366116Y38141D01*
X365371Y37190D01*
X364569Y36285D01*
X363715Y35431D01*
X362810Y34629D01*
X361859Y33884D01*
X360864Y33197D01*
X359830Y32572D01*
X358759Y32010D01*
X357657Y31514D01*
X356527Y31085D01*
X355373Y30726D01*
X354200Y30437D01*
X353011Y30219D01*
X351811Y30073D01*
X350604Y30000D01*
X349396Y30000D01*
X348189Y30073D01*
X346989Y30219D01*
X345800Y30437D01*
X344627Y30726D01*
X343473Y31085D01*
X342343Y31514D01*
X341241Y32010D01*
X340170Y32572D01*
X339136Y33197D01*
X338141Y33884D01*
X337190Y34629D01*
X336285Y35431D01*
X335431Y36285D01*
X334629Y37190D01*
X333884Y38141D01*
X333197Y39136D01*
X332572Y40170D01*
X332010Y41241D01*
X331514Y42343D01*
X331085Y43473D01*
X330726Y44627D01*
X330437Y45800D01*
X330219Y46989D01*
X330073Y48189D01*
X330000Y49396D01*
X330000Y50604D01*
X330073Y51811D01*
X330219Y53011D01*
X330437Y54200D01*
X330726Y55373D01*
X331085Y56527D01*
X331514Y57657D01*
X332010Y58759D01*
X332572Y59830D01*
X333197Y60864D01*
X333884Y61859D01*
X334629Y62810D01*
X335431Y63715D01*
X336285Y64569D01*
X337190Y65371D01*
X338141Y66116D01*
X339136Y66803D01*
X340170Y67428D01*
X341241Y67990D01*
X342343Y68486D01*
X343473Y68915D01*
X344627Y69274D01*
X345800Y69563D01*
X346989Y69781D01*
X348189Y69927D01*
X349396Y70000D01*
X350604Y70000D01*
X351811Y69927D01*
X353011Y69781D01*
X354200Y69563D01*
X355373Y69274D01*
X356527Y68915D01*
X357657Y68486D01*
X358759Y67990D01*
X359830Y67428D01*
X360864Y66803D01*
X361859Y66116D01*
X362810Y65371D01*
X363715Y64569D01*
X364569Y63715D01*
X365371Y62810D01*
X366116Y61859D01*
X366803Y60864D01*
X367428Y59830D01*
X367990Y58759D01*
X368486Y57657D01*
X368915Y56527D01*
X369274Y55373D01*
X369563Y54200D01*
X369781Y53011D01*
X369927Y51811D01*
X370000Y50604D01*
X370000Y49396D01*
X370000Y249396D02*
X369927Y248189D01*
X369781Y246989D01*
X369563Y245800D01*
X369274Y244627D01*
X368915Y243473D01*
X368486Y242343D01*
X367990Y241241D01*
X367428Y240170D01*
X366803Y239136D01*
X366116Y238141D01*
X365371Y237190D01*
X364569Y236285D01*
X363715Y235431D01*
X362810Y234629D01*
X361859Y233884D01*
X360864Y233197D01*
X359830Y232572D01*
X358759Y232010D01*
X357657Y231514D01*
X356527Y231085D01*
X355373Y230726D01*
X354200Y230437D01*
X353011Y230219D01*
X351811Y230073D01*
X350604Y230000D01*
X349396Y230000D01*
X348189Y230073D01*
X346989Y230219D01*
X345800Y230437D01*
X344627Y230726D01*
X343473Y231085D01*
X342343Y231514D01*
X341241Y232010D01*
X340170Y232572D01*
X339136Y233197D01*
X338141Y233884D01*
X337190Y234629D01*
X336285Y235431D01*
X335431Y236285D01*
X334629Y237190D01*
X333884Y238141D01*
X333197Y239136D01*
X332572Y240170D01*
X332010Y241241D01*
X331514Y242343D01*
X331085Y243473D01*
X330726Y244627D01*
X330437Y245800D01*
X330219Y246989D01*
X330073Y248189D01*
X330000Y249396D01*
X330000Y250604D01*
X330073Y251811D01*
X330219Y253011D01*
X330437Y254200D01*
X330726Y255373D01*
X331085Y256527D01*
X331514Y257657D01*
X332010Y258759D01*
X332572Y259830D01*
X333197Y260864D01*
X333884Y261859D01*
X334629Y262810D01*
X335431Y263715D01*
X336285Y264569D01*
X337190Y265371D01*
X338141Y266116D01*
X339136Y266803D01*
X340170Y267428D01*
X341241Y267990D01*
X342343Y268486D01*
X343473Y268915D01*
X344627Y269274D01*
X345800Y269563D01*
X346989Y269781D01*
X348189Y269927D01*
X349396Y270000D01*
X350604Y270000D01*
X351811Y269927D01*
X353011Y269781D01*
X354200Y269563D01*
X355373Y269274D01*
X356527Y268915D01*
X357657Y268486D01*
X358759Y267990D01*
X359830Y267428D01*
X360864Y266803D01*
X361859Y266116D01*
X362810Y265371D01*
X363715Y264569D01*
X364569Y263715D01*
X365371Y262810D01*
X366116Y261859D01*
X366803Y260864D01*
X367428Y259830D01*
X367990Y258759D01*
X368486Y257657D01*
X368915Y256527D01*
X369274Y255373D01*
X369563Y254200D01*
X369781Y253011D01*
X369927Y251811D01*
X370000Y250604D01*
X370000Y249396D01*
X70000Y249396D02*
X69927Y248189D01*
X69781Y246989D01*
X69563Y245800D01*
X69274Y244627D01*
X68915Y243473D01*
X68486Y242343D01*
X67990Y241241D01*
X67428Y240170D01*
X66803Y239136D01*
X66116Y238141D01*
X65371Y237190D01*
X64569Y236285D01*
X63715Y235431D01*
X62810Y234629D01*
X61859Y233884D01*
X60864Y233197D01*
X59830Y232572D01*
X58759Y232010D01*
X57657Y231514D01*
X56527Y231085D01*
X55373Y230726D01*
X54200Y230437D01*
X53011Y230219D01*
X51811Y230073D01*
X50604Y230000D01*
X49396Y230000D01*
X48189Y230073D01*
X46989Y230219D01*
X45800Y230437D01*
X44627Y230726D01*
X43473Y231085D01*
X42343Y231514D01*
X41241Y232010D01*
X40170Y232572D01*
X39136Y233197D01*
X38141Y233884D01*
X37190Y234629D01*
X36285Y235431D01*
X35431Y236285D01*
X34629Y237190D01*
X33884Y238141D01*
X33197Y239136D01*
X32572Y240170D01*
X32010Y241241D01*
X31514Y242343D01*
X31085Y243473D01*
X30726Y244627D01*
X30437Y245800D01*
X30219Y246989D01*
X30073Y248189D01*
X30000Y249396D01*
X30000Y250604D01*
X30073Y251811D01*
X30219Y253011D01*
X30437Y254200D01*
X30726Y255373D01*
X31085Y256527D01*
X31514Y257657D01*
X32010Y258759D01*
X32572Y259830D01*
X33197Y260864D01*
X33884Y261859D01*
X34629Y262810D01*
X35431Y263715D01*
X36285Y264569D01*
X37190Y265371D01*
X38141Y266116D01*
X39136Y266803D01*
X40170Y267428D01*
X41241Y267990D01*
X42343Y268486D01*
X43473Y268915D01*
X44627Y269274D01*
X45800Y269563D01*
X46989Y269781D01*
X48189Y269927D01*
X49396Y270000D01*
X50604Y270000D01*
X51811Y269927D01*
X53011Y269781D01*
X54200Y269563D01*
X55373Y269274D01*
X56527Y268915D01*
X57657Y268486D01*
X58759Y267990D01*
X59830Y267428D01*
X60864Y266803D01*
X61859Y266116D01*
X62810Y265371D01*
X63715Y264569D01*
X64569Y263715D01*
X65371Y262810D01*
X66116Y261859D01*
X66803Y260864D01*
X67428Y259830D01*
X67990Y258759D01*
X68486Y257657D01*
X68915Y256527D01*
X69274Y255373D01*
X69563Y254200D01*
X69781Y253011D01*
X69927Y251811D01*
X70000Y250604D01*
X70000Y249396D01*
X70000Y49396D02*
X69927Y48189D01*
X69781Y46989D01*
X69563Y45800D01*
X69274Y44627D01*
X68915Y43473D01*
X68486Y42343D01*
X67990Y41241D01*
X67428Y40170D01*
X66803Y39136D01*
X66116Y38141D01*
X65371Y37190D01*
X64569Y36285D01*
X63715Y35431D01*
X62810Y34629D01*
X61859Y33884D01*
X60864Y33197D01*
X59830Y32572D01*
X58759Y32010D01*
X57657Y31514D01*
X56527Y31085D01*
X55373Y30726D01*
X54200Y30437D01*
X53011Y30219D01*
X51811Y30073D01*
X50604Y30000D01*
X49396Y30000D01*
X48189Y30073D01*
X46989Y30219D01*
X45800Y30437D01*
X44627Y30726D01*
X43473Y31085D01*
X42343Y31514D01*
X41241Y32010D01*
X40170Y32572D01*
X39136Y33197D01*
X38141Y33884D01*
X37190Y34629D01*
X36285Y35431D01*
X35431Y36285D01*
X34629Y37190D01*
X33884Y38141D01*
X33197Y39136D01*
X32572Y40170D01*
X32010Y41241D01*
X31514Y42343D01*
X31085Y43473D01*
X30726Y44627D01*
X30437Y45800D01*
X30219Y46989D01*
X30073Y48189D01*
X30000Y49396D01*
X30000Y50604D01*
X30073Y51811D01*
X30219Y53011D01*
X30437Y54200D01*
X30726Y55373D01*
X31085Y56527D01*
X31514Y57657D01*
X32010Y58759D01*
X32572Y59830D01*
X33197Y60864D01*
X33884Y61859D01*
X34629Y62810D01*
X35431Y63715D01*
X36285Y64569D01*
X37190Y65371D01*
X38141Y66116D01*
X39136Y66803D01*
X40170Y67428D01*
X41241Y67990D01*
X42343Y68486D01*
X43473Y68915D01*
X44627Y69274D01*
X45800Y69563D01*
X46989Y69781D01*
X48189Y69927D01*
X49396Y70000D01*
X50604Y70000D01*
X51811Y69927D01*
X53011Y69781D01*
X54200Y69563D01*
X55373Y69274D01*
X56527Y68915D01*
X57657Y68486D01*
X58759Y67990D01*
X59830Y67428D01*
X60864Y66803D01*
X61859Y66116D01*
X62810Y65371D01*
X63715Y64569D01*
X64569Y63715D01*
X65371Y62810D01*
X66116Y61859D01*
X66803Y60864D01*
X67428Y59830D01*
X67990Y58759D01*
X68486Y57657D01*
X68915Y56527D01*
X69274Y55373D01*
X69563Y54200D01*
X69781Y53011D01*
X69927Y51811D01*
X70000Y50604D01*
X70000Y49396D01*
M02*
