G04 EAGLE Gerber RS-274X export*
G75*
%MOMM*%
%FSLAX34Y34*%
%LPD*%
%INSilkscreen Top*%
%IPPOS*%
%AMOC8*
5,1,8,0,0,1.08239X$1,22.5*%
G01*
%ADD10C,0.152400*%
%ADD11R,0.152400X0.019050*%
%ADD12R,0.247650X0.019050*%
%ADD13R,0.095250X0.019050*%
%ADD14R,0.076200X0.019050*%
%ADD15R,0.171450X0.019050*%
%ADD16R,0.209550X0.019050*%
%ADD17R,0.038100X0.019050*%
%ADD18R,0.190500X0.019050*%
%ADD19R,0.133350X0.019050*%
%ADD20R,0.114300X0.019050*%
%ADD21R,0.057150X0.019050*%
%ADD22R,0.019050X0.019050*%
%ADD23R,0.304800X0.019050*%
%ADD24R,0.323850X0.019050*%
%ADD25R,0.361950X0.019050*%
%ADD26R,0.228600X0.019050*%
%ADD27R,0.285750X0.019050*%
%ADD28R,0.266700X0.019050*%
%ADD29R,0.342900X0.019050*%
%ADD30R,0.495300X0.019050*%
%ADD31R,0.457200X0.019050*%
%ADD32R,0.381000X0.019050*%
%ADD33R,0.514350X0.019050*%
%ADD34R,0.552450X0.019050*%
%ADD35R,0.438150X0.019050*%
%ADD36R,0.419100X0.019050*%
%ADD37R,0.666750X0.019050*%
%ADD38R,0.571500X0.019050*%
%ADD39R,0.609600X0.019050*%
%ADD40R,0.533400X0.019050*%
%ADD41R,0.933450X0.019050*%
%ADD42R,0.971550X0.019050*%
%ADD43R,0.476250X0.019050*%
%ADD44R,1.028700X0.019050*%
%ADD45R,0.400050X0.019050*%
%ADD46R,1.047750X0.019050*%
%ADD47R,0.628650X0.019050*%
%ADD48R,0.590550X0.019050*%
%ADD49R,0.723900X0.019050*%
%ADD50R,0.857250X0.019050*%
%ADD51R,1.123950X0.019050*%
%ADD52R,1.181100X0.019050*%
%ADD53R,1.276350X0.019050*%
%ADD54R,0.990600X0.019050*%
%ADD55R,0.952500X0.019050*%
%ADD56R,0.742950X0.019050*%
%ADD57R,0.914400X0.019050*%
%ADD58R,0.685800X0.019050*%
%ADD59R,1.143000X0.019050*%
%ADD60R,1.066800X0.019050*%
%ADD61R,0.838200X0.019050*%
%ADD62R,1.485900X0.019050*%
%ADD63R,1.352550X0.019050*%
%ADD64R,1.390650X0.019050*%
%ADD65R,1.257300X0.019050*%
%ADD66R,1.447800X0.019050*%
%ADD67R,1.581150X0.019050*%
%ADD68R,1.714500X0.019050*%
%ADD69R,1.619250X0.019050*%
%ADD70R,1.733550X0.019050*%
%ADD71R,1.371600X0.019050*%
%ADD72R,0.800100X0.019050*%
%ADD73R,1.104900X0.019050*%
%ADD74R,1.085850X0.019050*%
%ADD75R,0.895350X0.019050*%
%ADD76R,0.781050X0.019050*%
%ADD77R,0.762000X0.019050*%
%ADD78R,0.647700X0.019050*%
%ADD79R,1.200150X0.019050*%
%ADD80R,1.009650X0.019050*%
%ADD81R,0.876300X0.019050*%
%ADD82R,0.704850X0.019050*%
%ADD83R,2.476500X0.019050*%
%ADD84R,2.228850X0.019050*%
%ADD85R,2.266950X0.019050*%
%ADD86R,2.190750X0.019050*%
%ADD87R,2.095500X0.019050*%
%ADD88R,2.152650X0.019050*%
%ADD89R,2.000250X0.019050*%
%ADD90R,1.885950X0.019050*%
%ADD91R,1.695450X0.019050*%
%ADD92R,1.771650X0.019050*%
%ADD93R,1.562100X0.019050*%
%ADD94R,1.504950X0.019050*%
%ADD95R,1.295400X0.019050*%
%ADD96R,1.162050X0.019050*%
%ADD97R,0.819150X0.019050*%
%ADD98R,1.847850X0.019050*%
%ADD99R,1.219200X0.019050*%
%ADD100C,0.101600*%
%ADD101C,0.127000*%
%ADD102C,0.203200*%
%ADD103C,0.254000*%
%ADD104C,0.500000*%
%ADD105C,0.120000*%
%ADD106C,0.200000*%
%ADD107C,0.400000*%


D10*
X13462Y232918D02*
X18881Y216662D01*
X24299Y232918D01*
X32584Y216662D02*
X36197Y216662D01*
X32584Y216662D02*
X32483Y216664D01*
X32382Y216670D01*
X32281Y216679D01*
X32180Y216692D01*
X32080Y216709D01*
X31981Y216730D01*
X31883Y216754D01*
X31786Y216782D01*
X31689Y216814D01*
X31594Y216849D01*
X31501Y216888D01*
X31409Y216930D01*
X31318Y216976D01*
X31230Y217025D01*
X31143Y217077D01*
X31058Y217133D01*
X30975Y217191D01*
X30895Y217253D01*
X30817Y217318D01*
X30741Y217385D01*
X30668Y217455D01*
X30598Y217528D01*
X30531Y217604D01*
X30466Y217682D01*
X30404Y217762D01*
X30346Y217845D01*
X30290Y217930D01*
X30238Y218017D01*
X30189Y218105D01*
X30143Y218196D01*
X30101Y218288D01*
X30062Y218381D01*
X30027Y218476D01*
X29995Y218573D01*
X29967Y218670D01*
X29943Y218768D01*
X29922Y218867D01*
X29905Y218967D01*
X29892Y219068D01*
X29883Y219169D01*
X29877Y219270D01*
X29875Y219371D01*
X29875Y224790D01*
X29877Y224891D01*
X29883Y224992D01*
X29892Y225093D01*
X29905Y225194D01*
X29922Y225294D01*
X29943Y225393D01*
X29967Y225491D01*
X29995Y225588D01*
X30027Y225685D01*
X30062Y225780D01*
X30101Y225873D01*
X30143Y225965D01*
X30189Y226056D01*
X30238Y226145D01*
X30290Y226231D01*
X30346Y226316D01*
X30404Y226399D01*
X30466Y226479D01*
X30531Y226557D01*
X30598Y226633D01*
X30668Y226706D01*
X30741Y226776D01*
X30817Y226843D01*
X30895Y226908D01*
X30975Y226970D01*
X31058Y227028D01*
X31143Y227084D01*
X31230Y227136D01*
X31318Y227185D01*
X31409Y227231D01*
X31501Y227273D01*
X31594Y227312D01*
X31689Y227347D01*
X31786Y227379D01*
X31883Y227407D01*
X31981Y227431D01*
X32080Y227452D01*
X32180Y227469D01*
X32281Y227482D01*
X32382Y227491D01*
X32483Y227497D01*
X32584Y227499D01*
X36197Y227499D01*
X44568Y216662D02*
X48181Y216662D01*
X44568Y216662D02*
X44467Y216664D01*
X44366Y216670D01*
X44265Y216679D01*
X44164Y216692D01*
X44064Y216709D01*
X43965Y216730D01*
X43867Y216754D01*
X43770Y216782D01*
X43673Y216814D01*
X43578Y216849D01*
X43485Y216888D01*
X43393Y216930D01*
X43302Y216976D01*
X43214Y217025D01*
X43127Y217077D01*
X43042Y217133D01*
X42959Y217191D01*
X42879Y217253D01*
X42801Y217318D01*
X42725Y217385D01*
X42652Y217455D01*
X42582Y217528D01*
X42515Y217604D01*
X42450Y217682D01*
X42388Y217762D01*
X42330Y217845D01*
X42274Y217930D01*
X42222Y218017D01*
X42173Y218105D01*
X42127Y218196D01*
X42085Y218288D01*
X42046Y218381D01*
X42011Y218476D01*
X41979Y218573D01*
X41951Y218670D01*
X41927Y218768D01*
X41906Y218867D01*
X41889Y218967D01*
X41876Y219068D01*
X41867Y219169D01*
X41861Y219270D01*
X41859Y219371D01*
X41859Y224790D01*
X41861Y224891D01*
X41867Y224992D01*
X41876Y225093D01*
X41889Y225194D01*
X41906Y225294D01*
X41927Y225393D01*
X41951Y225491D01*
X41979Y225588D01*
X42011Y225685D01*
X42046Y225780D01*
X42085Y225873D01*
X42127Y225965D01*
X42173Y226056D01*
X42222Y226145D01*
X42274Y226231D01*
X42330Y226316D01*
X42388Y226399D01*
X42450Y226479D01*
X42515Y226557D01*
X42582Y226633D01*
X42652Y226706D01*
X42725Y226776D01*
X42801Y226843D01*
X42879Y226908D01*
X42959Y226970D01*
X43042Y227028D01*
X43127Y227084D01*
X43214Y227136D01*
X43302Y227185D01*
X43393Y227231D01*
X43485Y227273D01*
X43578Y227312D01*
X43673Y227347D01*
X43770Y227379D01*
X43867Y227407D01*
X43965Y227431D01*
X44064Y227452D01*
X44164Y227469D01*
X44265Y227482D01*
X44366Y227491D01*
X44467Y227497D01*
X44568Y227499D01*
X48181Y227499D01*
X22493Y73293D02*
X19784Y73293D01*
X22493Y73293D02*
X22493Y64262D01*
X17074Y64262D01*
X16956Y64264D01*
X16838Y64270D01*
X16720Y64279D01*
X16603Y64293D01*
X16486Y64310D01*
X16369Y64331D01*
X16254Y64356D01*
X16139Y64385D01*
X16025Y64418D01*
X15913Y64454D01*
X15802Y64494D01*
X15692Y64537D01*
X15583Y64584D01*
X15476Y64634D01*
X15371Y64689D01*
X15268Y64746D01*
X15167Y64807D01*
X15067Y64871D01*
X14970Y64938D01*
X14875Y65008D01*
X14783Y65082D01*
X14692Y65158D01*
X14605Y65238D01*
X14520Y65320D01*
X14438Y65405D01*
X14358Y65492D01*
X14282Y65583D01*
X14208Y65675D01*
X14138Y65770D01*
X14071Y65867D01*
X14007Y65967D01*
X13946Y66068D01*
X13889Y66171D01*
X13834Y66276D01*
X13784Y66383D01*
X13737Y66492D01*
X13694Y66602D01*
X13654Y66713D01*
X13618Y66825D01*
X13585Y66939D01*
X13556Y67054D01*
X13531Y67169D01*
X13510Y67286D01*
X13493Y67403D01*
X13479Y67520D01*
X13470Y67638D01*
X13464Y67756D01*
X13462Y67874D01*
X13462Y76906D01*
X13464Y77024D01*
X13470Y77142D01*
X13479Y77260D01*
X13493Y77377D01*
X13510Y77494D01*
X13531Y77611D01*
X13556Y77726D01*
X13585Y77841D01*
X13618Y77955D01*
X13654Y78067D01*
X13694Y78178D01*
X13737Y78288D01*
X13784Y78397D01*
X13834Y78504D01*
X13888Y78609D01*
X13946Y78712D01*
X14007Y78813D01*
X14071Y78913D01*
X14138Y79010D01*
X14208Y79105D01*
X14282Y79197D01*
X14358Y79288D01*
X14438Y79375D01*
X14520Y79460D01*
X14605Y79542D01*
X14692Y79622D01*
X14783Y79698D01*
X14875Y79772D01*
X14970Y79842D01*
X15067Y79909D01*
X15167Y79973D01*
X15268Y80034D01*
X15371Y80091D01*
X15476Y80145D01*
X15583Y80196D01*
X15692Y80243D01*
X15802Y80286D01*
X15913Y80326D01*
X16025Y80362D01*
X16139Y80395D01*
X16254Y80424D01*
X16369Y80449D01*
X16486Y80470D01*
X16603Y80487D01*
X16720Y80501D01*
X16838Y80510D01*
X16956Y80516D01*
X17074Y80518D01*
X22493Y80518D01*
X375384Y73293D02*
X378093Y73293D01*
X378093Y64262D01*
X372674Y64262D01*
X372556Y64264D01*
X372438Y64270D01*
X372320Y64279D01*
X372203Y64293D01*
X372086Y64310D01*
X371969Y64331D01*
X371854Y64356D01*
X371739Y64385D01*
X371625Y64418D01*
X371513Y64454D01*
X371402Y64494D01*
X371292Y64537D01*
X371183Y64584D01*
X371076Y64634D01*
X370971Y64689D01*
X370868Y64746D01*
X370767Y64807D01*
X370667Y64871D01*
X370570Y64938D01*
X370475Y65008D01*
X370383Y65082D01*
X370292Y65158D01*
X370205Y65238D01*
X370120Y65320D01*
X370038Y65405D01*
X369958Y65492D01*
X369882Y65583D01*
X369808Y65675D01*
X369738Y65770D01*
X369671Y65867D01*
X369607Y65967D01*
X369546Y66068D01*
X369489Y66171D01*
X369434Y66276D01*
X369384Y66383D01*
X369337Y66492D01*
X369294Y66602D01*
X369254Y66713D01*
X369218Y66825D01*
X369185Y66939D01*
X369156Y67054D01*
X369131Y67169D01*
X369110Y67286D01*
X369093Y67403D01*
X369079Y67520D01*
X369070Y67638D01*
X369064Y67756D01*
X369062Y67874D01*
X369062Y76906D01*
X369064Y77024D01*
X369070Y77142D01*
X369079Y77260D01*
X369093Y77377D01*
X369110Y77494D01*
X369131Y77611D01*
X369156Y77726D01*
X369185Y77841D01*
X369218Y77955D01*
X369254Y78067D01*
X369294Y78178D01*
X369337Y78288D01*
X369384Y78397D01*
X369434Y78504D01*
X369488Y78609D01*
X369546Y78712D01*
X369607Y78813D01*
X369671Y78913D01*
X369738Y79010D01*
X369808Y79105D01*
X369882Y79197D01*
X369958Y79288D01*
X370038Y79375D01*
X370120Y79460D01*
X370205Y79542D01*
X370292Y79622D01*
X370383Y79698D01*
X370475Y79772D01*
X370570Y79842D01*
X370667Y79909D01*
X370767Y79973D01*
X370868Y80034D01*
X370971Y80091D01*
X371076Y80145D01*
X371183Y80196D01*
X371292Y80243D01*
X371402Y80286D01*
X371513Y80326D01*
X371625Y80362D01*
X371739Y80395D01*
X371854Y80424D01*
X371969Y80449D01*
X372086Y80470D01*
X372203Y80487D01*
X372320Y80501D01*
X372438Y80510D01*
X372556Y80516D01*
X372674Y80518D01*
X378093Y80518D01*
X361781Y216662D02*
X356362Y232918D01*
X367199Y232918D02*
X361781Y216662D01*
X373035Y222984D02*
X383873Y222984D01*
X378454Y228402D02*
X378454Y217565D01*
X203962Y220218D02*
X203962Y203962D01*
X203962Y220218D02*
X208478Y220218D01*
X208611Y220216D01*
X208743Y220210D01*
X208875Y220200D01*
X209007Y220187D01*
X209139Y220169D01*
X209269Y220148D01*
X209400Y220123D01*
X209529Y220094D01*
X209657Y220061D01*
X209785Y220025D01*
X209911Y219985D01*
X210036Y219941D01*
X210160Y219893D01*
X210282Y219842D01*
X210403Y219787D01*
X210522Y219729D01*
X210640Y219667D01*
X210755Y219602D01*
X210869Y219533D01*
X210980Y219462D01*
X211089Y219386D01*
X211196Y219308D01*
X211301Y219227D01*
X211403Y219142D01*
X211503Y219055D01*
X211600Y218965D01*
X211695Y218872D01*
X211786Y218776D01*
X211875Y218678D01*
X211961Y218577D01*
X212044Y218473D01*
X212124Y218367D01*
X212200Y218259D01*
X212274Y218149D01*
X212344Y218036D01*
X212411Y217922D01*
X212474Y217805D01*
X212534Y217687D01*
X212591Y217567D01*
X212644Y217445D01*
X212693Y217322D01*
X212739Y217198D01*
X212781Y217072D01*
X212819Y216945D01*
X212854Y216817D01*
X212885Y216688D01*
X212912Y216559D01*
X212935Y216428D01*
X212955Y216297D01*
X212970Y216165D01*
X212982Y216033D01*
X212990Y215901D01*
X212994Y215768D01*
X212994Y215636D01*
X212990Y215503D01*
X212982Y215371D01*
X212970Y215239D01*
X212955Y215107D01*
X212935Y214976D01*
X212912Y214845D01*
X212885Y214716D01*
X212854Y214587D01*
X212819Y214459D01*
X212781Y214332D01*
X212739Y214206D01*
X212693Y214082D01*
X212644Y213959D01*
X212591Y213837D01*
X212534Y213717D01*
X212474Y213599D01*
X212411Y213482D01*
X212344Y213368D01*
X212274Y213255D01*
X212200Y213145D01*
X212124Y213037D01*
X212044Y212931D01*
X211961Y212827D01*
X211875Y212726D01*
X211786Y212628D01*
X211695Y212532D01*
X211600Y212439D01*
X211503Y212349D01*
X211403Y212262D01*
X211301Y212177D01*
X211196Y212096D01*
X211089Y212018D01*
X210980Y211942D01*
X210869Y211871D01*
X210755Y211802D01*
X210640Y211737D01*
X210522Y211675D01*
X210403Y211617D01*
X210282Y211562D01*
X210160Y211511D01*
X210036Y211463D01*
X209911Y211419D01*
X209785Y211379D01*
X209657Y211343D01*
X209529Y211310D01*
X209400Y211281D01*
X209269Y211256D01*
X209139Y211235D01*
X209007Y211217D01*
X208875Y211204D01*
X208743Y211194D01*
X208611Y211188D01*
X208478Y211186D01*
X208478Y211187D02*
X203962Y211187D01*
X218861Y208478D02*
X218861Y215702D01*
X218863Y215835D01*
X218869Y215967D01*
X218879Y216099D01*
X218892Y216231D01*
X218910Y216363D01*
X218931Y216493D01*
X218956Y216624D01*
X218985Y216753D01*
X219018Y216881D01*
X219054Y217009D01*
X219094Y217135D01*
X219138Y217260D01*
X219186Y217384D01*
X219237Y217506D01*
X219292Y217627D01*
X219350Y217746D01*
X219412Y217864D01*
X219477Y217979D01*
X219546Y218093D01*
X219617Y218204D01*
X219693Y218313D01*
X219771Y218420D01*
X219852Y218525D01*
X219937Y218627D01*
X220024Y218727D01*
X220114Y218824D01*
X220207Y218919D01*
X220303Y219010D01*
X220401Y219099D01*
X220502Y219185D01*
X220606Y219268D01*
X220712Y219348D01*
X220820Y219424D01*
X220930Y219498D01*
X221043Y219568D01*
X221157Y219635D01*
X221274Y219698D01*
X221392Y219758D01*
X221512Y219815D01*
X221634Y219868D01*
X221757Y219917D01*
X221881Y219963D01*
X222007Y220005D01*
X222134Y220043D01*
X222262Y220078D01*
X222391Y220109D01*
X222520Y220136D01*
X222651Y220159D01*
X222782Y220179D01*
X222914Y220194D01*
X223046Y220206D01*
X223178Y220214D01*
X223311Y220218D01*
X223443Y220218D01*
X223576Y220214D01*
X223708Y220206D01*
X223840Y220194D01*
X223972Y220179D01*
X224103Y220159D01*
X224234Y220136D01*
X224363Y220109D01*
X224492Y220078D01*
X224620Y220043D01*
X224747Y220005D01*
X224873Y219963D01*
X224997Y219917D01*
X225120Y219868D01*
X225242Y219815D01*
X225362Y219758D01*
X225480Y219698D01*
X225597Y219635D01*
X225711Y219568D01*
X225824Y219498D01*
X225934Y219424D01*
X226042Y219348D01*
X226148Y219268D01*
X226252Y219185D01*
X226353Y219099D01*
X226451Y219010D01*
X226547Y218919D01*
X226640Y218824D01*
X226730Y218727D01*
X226817Y218627D01*
X226902Y218525D01*
X226983Y218420D01*
X227061Y218313D01*
X227137Y218204D01*
X227208Y218093D01*
X227277Y217979D01*
X227342Y217864D01*
X227404Y217746D01*
X227462Y217627D01*
X227517Y217506D01*
X227568Y217384D01*
X227616Y217260D01*
X227660Y217135D01*
X227700Y217009D01*
X227736Y216881D01*
X227769Y216753D01*
X227798Y216624D01*
X227823Y216493D01*
X227844Y216363D01*
X227862Y216231D01*
X227875Y216099D01*
X227885Y215967D01*
X227891Y215835D01*
X227893Y215702D01*
X227892Y215702D02*
X227892Y208478D01*
X227893Y208478D02*
X227891Y208345D01*
X227885Y208213D01*
X227875Y208081D01*
X227862Y207949D01*
X227844Y207817D01*
X227823Y207687D01*
X227798Y207556D01*
X227769Y207427D01*
X227736Y207299D01*
X227700Y207171D01*
X227660Y207045D01*
X227616Y206920D01*
X227568Y206796D01*
X227517Y206674D01*
X227462Y206553D01*
X227404Y206434D01*
X227342Y206316D01*
X227277Y206201D01*
X227208Y206087D01*
X227137Y205976D01*
X227061Y205867D01*
X226983Y205760D01*
X226902Y205655D01*
X226817Y205553D01*
X226730Y205453D01*
X226640Y205356D01*
X226547Y205261D01*
X226451Y205170D01*
X226353Y205081D01*
X226252Y204995D01*
X226148Y204912D01*
X226042Y204832D01*
X225934Y204756D01*
X225824Y204682D01*
X225711Y204612D01*
X225597Y204545D01*
X225480Y204482D01*
X225362Y204422D01*
X225242Y204365D01*
X225120Y204312D01*
X224997Y204263D01*
X224873Y204217D01*
X224747Y204175D01*
X224620Y204137D01*
X224492Y204102D01*
X224363Y204071D01*
X224234Y204044D01*
X224103Y204021D01*
X223972Y204001D01*
X223840Y203986D01*
X223708Y203974D01*
X223576Y203966D01*
X223443Y203962D01*
X223311Y203962D01*
X223178Y203966D01*
X223046Y203974D01*
X222914Y203986D01*
X222782Y204001D01*
X222651Y204021D01*
X222520Y204044D01*
X222391Y204071D01*
X222262Y204102D01*
X222134Y204137D01*
X222007Y204175D01*
X221881Y204217D01*
X221757Y204263D01*
X221634Y204312D01*
X221512Y204365D01*
X221392Y204422D01*
X221274Y204482D01*
X221157Y204545D01*
X221043Y204612D01*
X220930Y204682D01*
X220820Y204756D01*
X220712Y204832D01*
X220606Y204912D01*
X220502Y204995D01*
X220401Y205081D01*
X220303Y205170D01*
X220207Y205261D01*
X220114Y205356D01*
X220024Y205453D01*
X219937Y205553D01*
X219852Y205655D01*
X219771Y205760D01*
X219693Y205867D01*
X219617Y205976D01*
X219546Y206087D01*
X219477Y206201D01*
X219412Y206316D01*
X219350Y206434D01*
X219292Y206553D01*
X219237Y206674D01*
X219186Y206796D01*
X219138Y206920D01*
X219094Y207045D01*
X219054Y207171D01*
X219018Y207299D01*
X218985Y207427D01*
X218956Y207556D01*
X218931Y207687D01*
X218910Y207817D01*
X218892Y207949D01*
X218879Y208081D01*
X218869Y208213D01*
X218863Y208345D01*
X218861Y208478D01*
X237966Y203962D02*
X237966Y220218D01*
X242481Y220218D02*
X233450Y220218D01*
D11*
X253841Y133922D03*
D12*
X266700Y133922D03*
D13*
X281750Y133922D03*
D14*
X294799Y133922D03*
D13*
X302895Y133922D03*
D15*
X253746Y134112D03*
D16*
X266700Y134112D03*
D13*
X281750Y134112D03*
D11*
X284131Y134112D03*
D14*
X294799Y134112D03*
X302800Y134112D03*
D15*
X253556Y134303D03*
D17*
X266224Y134303D03*
D13*
X267081Y134303D03*
X281750Y134303D03*
D15*
X284226Y134303D03*
D17*
X294799Y134303D03*
D13*
X302705Y134303D03*
D18*
X253460Y134493D03*
D14*
X266986Y134493D03*
D13*
X281750Y134493D03*
D18*
X284131Y134493D03*
D13*
X302705Y134493D03*
D18*
X253270Y134684D03*
D14*
X266986Y134684D03*
D13*
X281750Y134684D03*
X283655Y134684D03*
D14*
X284702Y134684D03*
X302800Y134684D03*
D15*
X253175Y134874D03*
D14*
X266795Y134874D03*
D13*
X281559Y134874D03*
X283655Y134874D03*
D14*
X284702Y134874D03*
D13*
X302705Y134874D03*
D18*
X253079Y135065D03*
D19*
X266510Y135065D03*
D13*
X281559Y135065D03*
D20*
X283750Y135065D03*
D17*
X295370Y135065D03*
D13*
X302705Y135065D03*
D18*
X252889Y135255D03*
D13*
X266319Y135255D03*
D14*
X281654Y135255D03*
X283750Y135255D03*
D20*
X294989Y135255D03*
D13*
X302705Y135255D03*
D18*
X252698Y135446D03*
D14*
X266033Y135446D03*
X281654Y135446D03*
D19*
X294894Y135446D03*
D13*
X302705Y135446D03*
D18*
X252698Y135636D03*
D13*
X265938Y135636D03*
D14*
X281654Y135636D03*
D19*
X294704Y135636D03*
D14*
X302609Y135636D03*
D18*
X252508Y135827D03*
D14*
X265843Y135827D03*
X281654Y135827D03*
D21*
X294323Y135827D03*
D17*
X295180Y135827D03*
D14*
X302609Y135827D03*
D18*
X252508Y136017D03*
D14*
X265652Y136017D03*
X281654Y136017D03*
X294227Y136017D03*
D21*
X295085Y136017D03*
D14*
X302609Y136017D03*
D18*
X252317Y136208D03*
D14*
X265652Y136208D03*
X281654Y136208D03*
D15*
X294513Y136208D03*
D14*
X302609Y136208D03*
D11*
X252317Y136398D03*
D21*
X265557Y136398D03*
D14*
X281654Y136398D03*
D15*
X294513Y136398D03*
D14*
X302609Y136398D03*
D15*
X252032Y136589D03*
D14*
X265462Y136589D03*
X281654Y136589D03*
D18*
X294227Y136589D03*
D21*
X302514Y136589D03*
D16*
X251651Y136779D03*
D14*
X265462Y136779D03*
X281654Y136779D03*
D13*
X293751Y136779D03*
D14*
X294799Y136779D03*
D21*
X302514Y136779D03*
D15*
X251079Y136970D03*
D14*
X265271Y136970D03*
X281654Y136970D03*
D20*
X293656Y136970D03*
D14*
X294799Y136970D03*
D21*
X302324Y136970D03*
D18*
X250984Y137160D03*
D13*
X265176Y137160D03*
D14*
X281654Y137160D03*
D19*
X293561Y137160D03*
D14*
X294799Y137160D03*
D21*
X302324Y137160D03*
D14*
X250222Y137351D03*
D21*
X251651Y137351D03*
D14*
X265081Y137351D03*
X281654Y137351D03*
D20*
X293275Y137351D03*
D14*
X294608Y137351D03*
D21*
X302324Y137351D03*
D13*
X249936Y137541D03*
D17*
X251746Y137541D03*
D14*
X265081Y137541D03*
X281654Y137541D03*
X284321Y137541D03*
X293084Y137541D03*
D13*
X294513Y137541D03*
D14*
X302228Y137541D03*
D13*
X249936Y137732D03*
D21*
X251841Y137732D03*
X264986Y137732D03*
D14*
X281654Y137732D03*
D20*
X284321Y137732D03*
D13*
X294513Y137732D03*
D14*
X302228Y137732D03*
X249650Y137922D03*
D17*
X252127Y137922D03*
D14*
X264890Y137922D03*
X281654Y137922D03*
D20*
X284321Y137922D03*
D13*
X294323Y137922D03*
D14*
X302228Y137922D03*
D13*
X249555Y138113D03*
D21*
X252222Y138113D03*
X281750Y138113D03*
D13*
X284226Y138113D03*
D21*
X294323Y138113D03*
D14*
X302228Y138113D03*
X249460Y138303D03*
X252317Y138303D03*
D17*
X281654Y138303D03*
D13*
X284226Y138303D03*
D21*
X302133Y138303D03*
D14*
X249269Y138494D03*
X252508Y138494D03*
D21*
X284036Y138494D03*
X302133Y138494D03*
D14*
X249079Y138684D03*
X252698Y138684D03*
D22*
X284036Y138684D03*
D14*
X302038Y138684D03*
X248888Y138875D03*
X252889Y138875D03*
X302038Y138875D03*
X248698Y139065D03*
D20*
X253079Y139065D03*
D14*
X302038Y139065D03*
X248507Y139256D03*
D20*
X253270Y139256D03*
D14*
X302038Y139256D03*
D17*
X248317Y139446D03*
D20*
X253460Y139446D03*
D17*
X259747Y139446D03*
D14*
X301847Y139446D03*
D17*
X247936Y139637D03*
D19*
X253746Y139637D03*
D14*
X259747Y139637D03*
X301847Y139637D03*
X247745Y139827D03*
D20*
X253841Y139827D03*
D22*
X258318Y139827D03*
D13*
X259842Y139827D03*
D14*
X301847Y139827D03*
D13*
X247650Y140018D03*
D14*
X250793Y140018D03*
D19*
X254127Y140018D03*
D14*
X258223Y140018D03*
D13*
X260033Y140018D03*
D14*
X301847Y140018D03*
D13*
X247650Y140208D03*
X250698Y140208D03*
D19*
X254318Y140208D03*
D13*
X258509Y140208D03*
X260033Y140208D03*
D14*
X301657Y140208D03*
D13*
X247841Y140399D03*
D19*
X250508Y140399D03*
X254508Y140399D03*
D20*
X258985Y140399D03*
D13*
X260223Y140399D03*
D21*
X282321Y140399D03*
D20*
X284702Y140399D03*
D13*
X301752Y140399D03*
D14*
X248126Y140589D03*
D19*
X250508Y140589D03*
D20*
X254794Y140589D03*
D12*
X259842Y140589D03*
D21*
X282321Y140589D03*
D15*
X284798Y140589D03*
D13*
X301752Y140589D03*
D14*
X248317Y140780D03*
D20*
X250603Y140780D03*
D19*
X255080Y140780D03*
D12*
X259842Y140780D03*
D21*
X282321Y140780D03*
D15*
X284798Y140780D03*
D13*
X301752Y140780D03*
X248603Y140970D03*
D14*
X250603Y140970D03*
D19*
X255270Y140970D03*
D23*
X259937Y140970D03*
D21*
X282321Y140970D03*
D13*
X284417Y140970D03*
D14*
X285464Y140970D03*
D13*
X301562Y140970D03*
D21*
X248603Y141161D03*
D19*
X255270Y141161D03*
D24*
X260033Y141161D03*
D14*
X282416Y141161D03*
D13*
X284417Y141161D03*
D14*
X285655Y141161D03*
D13*
X301562Y141161D03*
D21*
X248603Y141351D03*
D15*
X255651Y141351D03*
D25*
X260033Y141351D03*
D14*
X282416Y141351D03*
D13*
X284417Y141351D03*
D14*
X285655Y141351D03*
D20*
X301466Y141351D03*
D14*
X248888Y141542D03*
D11*
X255937Y141542D03*
D20*
X258794Y141542D03*
D26*
X260890Y141542D03*
D14*
X282416Y141542D03*
D17*
X284321Y141542D03*
D13*
X285560Y141542D03*
D20*
X301466Y141542D03*
D14*
X249079Y141732D03*
D19*
X256223Y141732D03*
D20*
X258604Y141732D03*
D16*
X261176Y141732D03*
D14*
X282607Y141732D03*
D20*
X285464Y141732D03*
X301466Y141732D03*
D14*
X249079Y141923D03*
D19*
X256604Y141923D03*
D20*
X258413Y141923D03*
D22*
X260604Y141923D03*
D20*
X261842Y141923D03*
D13*
X282702Y141923D03*
D20*
X285274Y141923D03*
X301276Y141923D03*
D14*
X249269Y142113D03*
D19*
X256604Y142113D03*
D20*
X258413Y142113D03*
X262033Y142113D03*
X282797Y142113D03*
D13*
X285179Y142113D03*
D20*
X301276Y142113D03*
D13*
X249365Y142304D03*
D20*
X256699Y142304D03*
X258223Y142304D03*
X262223Y142304D03*
D11*
X282988Y142304D03*
D14*
X285083Y142304D03*
D13*
X301181Y142304D03*
D12*
X248984Y142494D03*
D14*
X256889Y142494D03*
D20*
X258223Y142494D03*
D19*
X262319Y142494D03*
X283083Y142494D03*
D13*
X301181Y142494D03*
D27*
X248984Y142685D03*
D19*
X258128Y142685D03*
D20*
X262604Y142685D03*
X283178Y142685D03*
D17*
X288322Y142685D03*
X289084Y142685D03*
D20*
X301085Y142685D03*
D27*
X248984Y142875D03*
D20*
X258032Y142875D03*
D15*
X263081Y142875D03*
D14*
X278416Y142875D03*
D20*
X283178Y142875D03*
D11*
X288893Y142875D03*
D20*
X300895Y142875D03*
X247936Y143066D03*
D15*
X249746Y143066D03*
D19*
X257937Y143066D03*
D18*
X263176Y143066D03*
D14*
X278416Y143066D03*
D20*
X283178Y143066D03*
D18*
X288893Y143066D03*
D14*
X300704Y143066D03*
D20*
X247745Y143256D03*
D16*
X249936Y143256D03*
D13*
X257747Y143256D03*
D18*
X263557Y143256D03*
D13*
X278321Y143256D03*
D20*
X283178Y143256D03*
D22*
X284417Y143256D03*
D16*
X288989Y143256D03*
D20*
X300514Y143256D03*
D19*
X247650Y143447D03*
D17*
X249269Y143447D03*
D20*
X250603Y143447D03*
X257651Y143447D03*
D15*
X263652Y143447D03*
D14*
X278225Y143447D03*
D12*
X283845Y143447D03*
X289179Y143447D03*
D20*
X300323Y143447D03*
D18*
X247364Y143637D03*
D20*
X250793Y143637D03*
D13*
X257366Y143637D03*
D15*
X263652Y143637D03*
D20*
X278225Y143637D03*
D12*
X284036Y143637D03*
D14*
X288512Y143637D03*
D19*
X289941Y143637D03*
X300228Y143637D03*
D16*
X247269Y143828D03*
D20*
X250984Y143828D03*
X257270Y143828D03*
D11*
X263747Y143828D03*
D20*
X278225Y143828D03*
D17*
X282035Y143828D03*
D24*
X284417Y143828D03*
D14*
X288512Y143828D03*
D19*
X290703Y143828D03*
D20*
X300133Y143828D03*
D12*
X247269Y144018D03*
D13*
X251079Y144018D03*
D20*
X257270Y144018D03*
X263747Y144018D03*
X278225Y144018D03*
D21*
X281940Y144018D03*
D24*
X284607Y144018D03*
D14*
X288322Y144018D03*
D19*
X290894Y144018D03*
X300038Y144018D03*
D28*
X247174Y144209D03*
D20*
X251365Y144209D03*
D13*
X257175Y144209D03*
D14*
X263938Y144209D03*
D11*
X278035Y144209D03*
D22*
X280226Y144209D03*
D13*
X281940Y144209D03*
D29*
X285083Y144209D03*
D20*
X288131Y144209D03*
X291370Y144209D03*
D14*
X299561Y144209D03*
D17*
X300323Y144209D03*
D27*
X247079Y144399D03*
D20*
X251555Y144399D03*
D13*
X257175Y144399D03*
X264224Y144399D03*
D18*
X278035Y144399D03*
D21*
X280226Y144399D03*
D13*
X281750Y144399D03*
D30*
X286036Y144399D03*
D14*
X291560Y144399D03*
D13*
X299085Y144399D03*
D31*
X247745Y144590D03*
D19*
X251841Y144590D03*
D13*
X256794Y144590D03*
D14*
X264319Y144590D03*
D29*
X278797Y144590D03*
D20*
X281464Y144590D03*
D32*
X286226Y144590D03*
D20*
X298799Y144590D03*
D33*
X248031Y144780D03*
D19*
X252032Y144780D03*
D13*
X256794Y144780D03*
X264605Y144780D03*
D31*
X279368Y144780D03*
D27*
X286512Y144780D03*
D22*
X292418Y144780D03*
D19*
X298514Y144780D03*
D34*
X248222Y144971D03*
D19*
X252222Y144971D03*
D13*
X256604Y144971D03*
D20*
X264700Y144971D03*
D31*
X279178Y144971D03*
D18*
X286798Y144971D03*
D17*
X292513Y144971D03*
D14*
X298037Y144971D03*
D11*
X246221Y145161D03*
D32*
X249460Y145161D03*
D11*
X252317Y145161D03*
D14*
X256508Y145161D03*
D20*
X264890Y145161D03*
D13*
X277368Y145161D03*
D27*
X279845Y145161D03*
D16*
X287084Y145161D03*
D21*
X292608Y145161D03*
D14*
X297847Y145161D03*
D11*
X246221Y145352D03*
D18*
X250412Y145352D03*
D11*
X252508Y145352D03*
D13*
X256413Y145352D03*
D20*
X265081Y145352D03*
D13*
X277178Y145352D03*
D28*
X279940Y145352D03*
D18*
X287369Y145352D03*
D21*
X292799Y145352D03*
X297752Y145352D03*
D11*
X246221Y145542D03*
D19*
X250889Y145542D03*
X252603Y145542D03*
D13*
X256223Y145542D03*
D20*
X265462Y145542D03*
D13*
X277178Y145542D03*
D20*
X279940Y145542D03*
D17*
X280892Y145542D03*
D18*
X287941Y145542D03*
D20*
X292894Y145542D03*
D11*
X246221Y145733D03*
D20*
X250984Y145733D03*
D17*
X252317Y145733D03*
D21*
X256223Y145733D03*
D19*
X265557Y145733D03*
D13*
X276987Y145733D03*
D11*
X280321Y145733D03*
D26*
X288322Y145733D03*
D20*
X292894Y145733D03*
D17*
X299752Y145733D03*
D11*
X246221Y145923D03*
D13*
X251079Y145923D03*
D14*
X256127Y145923D03*
D19*
X265748Y145923D03*
D20*
X276892Y145923D03*
D17*
X279559Y145923D03*
D14*
X280511Y145923D03*
D16*
X288608Y145923D03*
D13*
X292989Y145923D03*
D26*
X298990Y145923D03*
D11*
X246221Y146114D03*
D20*
X250984Y146114D03*
D21*
X255842Y146114D03*
D20*
X266033Y146114D03*
D14*
X276701Y146114D03*
D21*
X279464Y146114D03*
D22*
X280226Y146114D03*
D15*
X289179Y146114D03*
D14*
X293275Y146114D03*
D12*
X298514Y146114D03*
D11*
X246221Y146304D03*
D21*
X247841Y146304D03*
D20*
X250793Y146304D03*
X266224Y146304D03*
X276320Y146304D03*
D17*
X279178Y146304D03*
D21*
X279845Y146304D03*
D15*
X289370Y146304D03*
D14*
X293275Y146304D03*
D29*
X297656Y146304D03*
X247174Y146495D03*
D15*
X250508Y146495D03*
D20*
X266414Y146495D03*
X276320Y146495D03*
D13*
X279464Y146495D03*
D16*
X289751Y146495D03*
D14*
X293275Y146495D03*
D23*
X296894Y146495D03*
D14*
X245840Y146685D03*
D31*
X248888Y146685D03*
D21*
X253937Y146685D03*
D19*
X266510Y146685D03*
D20*
X276130Y146685D03*
D13*
X279273Y146685D03*
D16*
X289941Y146685D03*
D21*
X293180Y146685D03*
D28*
X296513Y146685D03*
D21*
X245555Y146876D03*
D35*
X248984Y146876D03*
D14*
X254032Y146876D03*
D19*
X266891Y146876D03*
D13*
X276035Y146876D03*
X279273Y146876D03*
D16*
X289941Y146876D03*
D13*
X293180Y146876D03*
D26*
X296132Y146876D03*
D14*
X245459Y147066D03*
D36*
X248888Y147066D03*
D14*
X254032Y147066D03*
D11*
X267176Y147066D03*
D21*
X275844Y147066D03*
D17*
X278416Y147066D03*
D20*
X279368Y147066D03*
D14*
X280511Y147066D03*
D22*
X281559Y147066D03*
X282702Y147066D03*
D17*
X283559Y147066D03*
D22*
X284036Y147066D03*
D26*
X290036Y147066D03*
D14*
X293084Y147066D03*
D11*
X295180Y147066D03*
D14*
X245459Y147257D03*
D26*
X249841Y147257D03*
D14*
X254032Y147257D03*
D20*
X267367Y147257D03*
D21*
X275654Y147257D03*
D37*
X280797Y147257D03*
D22*
X284607Y147257D03*
D13*
X289370Y147257D03*
D22*
X290322Y147257D03*
D17*
X290798Y147257D03*
D14*
X293084Y147257D03*
D11*
X294989Y147257D03*
D13*
X245364Y147447D03*
D16*
X249936Y147447D03*
D14*
X254032Y147447D03*
D20*
X267367Y147447D03*
D14*
X275558Y147447D03*
D15*
X278130Y147447D03*
D38*
X282226Y147447D03*
D14*
X289465Y147447D03*
X292894Y147447D03*
D11*
X294799Y147447D03*
D14*
X245269Y147638D03*
D16*
X250317Y147638D03*
D14*
X254032Y147638D03*
D21*
X267462Y147638D03*
D22*
X268415Y147638D03*
D21*
X275654Y147638D03*
D16*
X277940Y147638D03*
D39*
X282416Y147638D03*
D14*
X289465Y147638D03*
X292894Y147638D03*
D19*
X294704Y147638D03*
D13*
X245364Y147828D03*
D20*
X250793Y147828D03*
D14*
X254032Y147828D03*
D40*
X270605Y147828D03*
D14*
X275749Y147828D03*
D19*
X277368Y147828D03*
D41*
X283083Y147828D03*
D13*
X289560Y147828D03*
X292799Y147828D03*
X294513Y147828D03*
D14*
X245459Y148019D03*
D20*
X250793Y148019D03*
D14*
X254032Y148019D03*
D40*
X270986Y148019D03*
D14*
X275749Y148019D03*
D21*
X277178Y148019D03*
D42*
X283083Y148019D03*
D14*
X289655Y148019D03*
X292703Y148019D03*
D13*
X245555Y148209D03*
D25*
X249555Y148209D03*
D13*
X254127Y148209D03*
D43*
X271463Y148209D03*
D14*
X275939Y148209D03*
D44*
X283178Y148209D03*
D14*
X289655Y148209D03*
D15*
X246126Y148400D03*
D36*
X249269Y148400D03*
D20*
X254222Y148400D03*
D45*
X271653Y148400D03*
D14*
X275939Y148400D03*
D46*
X283083Y148400D03*
D14*
X289655Y148400D03*
D39*
X248317Y148590D03*
D20*
X254222Y148590D03*
D12*
X271272Y148590D03*
D21*
X275844Y148590D03*
D16*
X278892Y148590D03*
D24*
X286893Y148590D03*
D21*
X289560Y148590D03*
D47*
X248031Y148781D03*
D20*
X254222Y148781D03*
D19*
X270891Y148781D03*
X278321Y148781D03*
D12*
X287465Y148781D03*
D19*
X289751Y148781D03*
D47*
X247841Y148971D03*
D13*
X254318Y148971D03*
D21*
X274511Y148971D03*
D13*
X278130Y148971D03*
D19*
X288227Y148971D03*
D15*
X290132Y148971D03*
D13*
X245174Y149162D03*
D15*
X250127Y149162D03*
D13*
X254318Y149162D03*
X274511Y149162D03*
D21*
X278130Y149162D03*
D16*
X290513Y149162D03*
D14*
X245078Y149352D03*
D11*
X250412Y149352D03*
D13*
X254318Y149352D03*
D20*
X274415Y149352D03*
D12*
X290894Y149352D03*
D13*
X245174Y149543D03*
D20*
X250603Y149543D03*
D13*
X254318Y149543D03*
D11*
X274225Y149543D03*
D16*
X291275Y149543D03*
D13*
X245174Y149733D03*
D20*
X250793Y149733D03*
D13*
X254318Y149733D03*
D19*
X273939Y149733D03*
D12*
X291656Y149733D03*
D13*
X245174Y149924D03*
D20*
X250793Y149924D03*
D13*
X254318Y149924D03*
D22*
X272415Y149924D03*
D13*
X273558Y149924D03*
D27*
X291846Y149924D03*
D20*
X245269Y150114D03*
X246602Y150114D03*
X250793Y150114D03*
D13*
X254318Y150114D03*
D15*
X272987Y150114D03*
D28*
X292322Y150114D03*
D12*
X246126Y150305D03*
D11*
X250603Y150305D03*
D13*
X254318Y150305D03*
D18*
X272891Y150305D03*
D28*
X292703Y150305D03*
D29*
X246602Y150495D03*
D18*
X250222Y150495D03*
D13*
X254318Y150495D03*
D18*
X272701Y150495D03*
D12*
X292989Y150495D03*
D47*
X248031Y150686D03*
D20*
X254222Y150686D03*
D18*
X272320Y150686D03*
D26*
X293465Y150686D03*
D47*
X247841Y150876D03*
D20*
X254222Y150876D03*
D15*
X272034Y150876D03*
D26*
X294037Y150876D03*
D20*
X245269Y151067D03*
D45*
X248603Y151067D03*
D13*
X254127Y151067D03*
D18*
X271748Y151067D03*
D16*
X294323Y151067D03*
D13*
X245174Y151257D03*
D27*
X249174Y151257D03*
D13*
X254127Y151257D03*
D15*
X271653Y151257D03*
D26*
X294608Y151257D03*
D20*
X245269Y151448D03*
D28*
X249460Y151448D03*
D14*
X254222Y151448D03*
D18*
X271367Y151448D03*
D16*
X295085Y151448D03*
D20*
X245459Y151638D03*
D12*
X249555Y151638D03*
D13*
X254127Y151638D03*
D15*
X271082Y151638D03*
D26*
X295561Y151638D03*
D19*
X245555Y151829D03*
D16*
X249555Y151829D03*
D13*
X254127Y151829D03*
D18*
X270796Y151829D03*
D12*
X296037Y151829D03*
X246317Y152019D03*
D22*
X248793Y152019D03*
D18*
X250031Y152019D03*
D13*
X254127Y152019D03*
D15*
X270320Y152019D03*
D27*
X296228Y152019D03*
X246698Y152210D03*
D18*
X250222Y152210D03*
D20*
X254222Y152210D03*
D11*
X270224Y152210D03*
D23*
X296323Y152210D03*
D39*
X248698Y152400D03*
D13*
X254127Y152400D03*
D15*
X269748Y152400D03*
D23*
X296704Y152400D03*
D48*
X248984Y152591D03*
D13*
X254127Y152591D03*
D15*
X269558Y152591D03*
D28*
X296894Y152591D03*
D17*
X246602Y152781D03*
D43*
X249555Y152781D03*
D13*
X254127Y152781D03*
D19*
X269177Y152781D03*
D12*
X297180Y152781D03*
D36*
X249841Y152972D03*
D13*
X254127Y152972D03*
D11*
X268891Y152972D03*
D12*
X297561Y152972D03*
D13*
X251460Y153162D03*
X254127Y153162D03*
D15*
X268796Y153162D03*
D26*
X297847Y153162D03*
D13*
X251460Y153353D03*
X254127Y153353D03*
D11*
X268510Y153353D03*
D26*
X298418Y153353D03*
D13*
X251460Y153543D03*
X254127Y153543D03*
D19*
X268224Y153543D03*
D26*
X298799Y153543D03*
D13*
X251460Y153734D03*
X254127Y153734D03*
D19*
X267843Y153734D03*
D26*
X299180Y153734D03*
D13*
X251460Y153924D03*
D14*
X254032Y153924D03*
D20*
X267557Y153924D03*
D22*
X268415Y153924D03*
D26*
X299561Y153924D03*
D14*
X251555Y154115D03*
X254032Y154115D03*
D11*
X267367Y154115D03*
D26*
X299942Y154115D03*
D13*
X251460Y154305D03*
D14*
X254032Y154305D03*
D20*
X266605Y154305D03*
D17*
X267748Y154305D03*
D18*
X300323Y154305D03*
D13*
X251460Y154496D03*
D14*
X254032Y154496D03*
D20*
X266414Y154496D03*
D22*
X267462Y154496D03*
D18*
X300704Y154496D03*
D20*
X251555Y154686D03*
D14*
X254032Y154686D03*
D20*
X266033Y154686D03*
D22*
X267272Y154686D03*
D16*
X301371Y154686D03*
D20*
X251555Y154877D03*
D13*
X254127Y154877D03*
D19*
X265748Y154877D03*
D26*
X301847Y154877D03*
D19*
X251651Y155067D03*
D20*
X254032Y155067D03*
D11*
X265462Y155067D03*
D26*
X302038Y155067D03*
D20*
X251746Y155258D03*
D13*
X253937Y155258D03*
D11*
X265271Y155258D03*
D16*
X302514Y155258D03*
D11*
X251936Y155448D03*
D13*
X253937Y155448D03*
D11*
X264890Y155448D03*
D16*
X302895Y155448D03*
D11*
X251936Y155639D03*
D13*
X253937Y155639D03*
D19*
X264795Y155639D03*
D18*
X303181Y155639D03*
X252127Y155829D03*
D13*
X253937Y155829D03*
D20*
X264509Y155829D03*
D15*
X303467Y155829D03*
D24*
X252794Y156020D03*
D11*
X264319Y156020D03*
D15*
X303657Y156020D03*
D24*
X252794Y156210D03*
D19*
X264033Y156210D03*
D11*
X303943Y156210D03*
D27*
X252794Y156401D03*
D11*
X263747Y156401D03*
X304324Y156401D03*
D27*
X252794Y156591D03*
D19*
X263652Y156591D03*
D11*
X304705Y156591D03*
D16*
X252794Y156782D03*
D20*
X263366Y156782D03*
D19*
X304991Y156782D03*
D22*
X252222Y156972D03*
D14*
X253079Y156972D03*
D19*
X263081Y156972D03*
D11*
X305276Y156972D03*
D13*
X262890Y157163D03*
D11*
X305657Y157163D03*
D20*
X262604Y157353D03*
D19*
X305943Y157353D03*
D13*
X262319Y157544D03*
D19*
X306134Y157544D03*
D20*
X262223Y157734D03*
X306610Y157734D03*
D17*
X261652Y157925D03*
D21*
X262319Y157925D03*
D20*
X306991Y157925D03*
X261842Y158115D03*
D13*
X307277Y158115D03*
D20*
X261652Y158306D03*
D14*
X307562Y158306D03*
D20*
X261461Y158496D03*
D14*
X307753Y158496D03*
X261271Y158687D03*
D21*
X260985Y158877D03*
D14*
X260699Y159068D03*
D21*
X260414Y159258D03*
D17*
X260128Y159449D03*
X259937Y159639D03*
D22*
X280797Y159639D03*
X259842Y159830D03*
D26*
X279940Y159830D03*
D22*
X259652Y160020D03*
D28*
X279368Y160020D03*
D17*
X309658Y160020D03*
D22*
X259461Y160211D03*
D29*
X279178Y160211D03*
D20*
X283369Y160211D03*
D17*
X309848Y160211D03*
D49*
X280511Y160401D03*
D21*
X309944Y160401D03*
D22*
X258890Y160592D03*
D50*
X280797Y160592D03*
D21*
X309944Y160592D03*
D41*
X280797Y160782D03*
D21*
X310134Y160782D03*
D44*
X281083Y160973D03*
D14*
X310229Y160973D03*
D51*
X281178Y161163D03*
D13*
X310325Y161163D03*
D52*
X281083Y161354D03*
D13*
X310325Y161354D03*
D53*
X281178Y161544D03*
D20*
X310420Y161544D03*
D17*
X257842Y161735D03*
D24*
X276225Y161735D03*
D54*
X282988Y161735D03*
D20*
X310610Y161735D03*
D21*
X257747Y161925D03*
D16*
X275273Y161925D03*
X277559Y161925D03*
D55*
X283559Y161925D03*
D20*
X310610Y161925D03*
D13*
X257747Y162116D03*
D16*
X274892Y162116D03*
D14*
X277082Y162116D03*
D56*
X284798Y162116D03*
D20*
X310801Y162116D03*
D14*
X257651Y162306D03*
D18*
X274796Y162306D03*
D22*
X276987Y162306D03*
D47*
X285560Y162306D03*
D20*
X310801Y162306D03*
D14*
X257461Y162497D03*
D15*
X274320Y162497D03*
D31*
X286607Y162497D03*
D20*
X310801Y162497D03*
D14*
X257461Y162687D03*
D18*
X274034Y162687D03*
D32*
X287369Y162687D03*
D20*
X310991Y162687D03*
D21*
X257366Y162878D03*
D15*
X273749Y162878D03*
D27*
X288036Y162878D03*
D20*
X310991Y162878D03*
D14*
X257270Y163068D03*
D15*
X273368Y163068D03*
D27*
X288417Y163068D03*
D20*
X310991Y163068D03*
D14*
X257270Y163259D03*
D15*
X273177Y163259D03*
D27*
X288608Y163259D03*
D20*
X311182Y163259D03*
D14*
X257270Y163449D03*
D19*
X272987Y163449D03*
D26*
X288893Y163449D03*
D20*
X311182Y163449D03*
D14*
X257080Y163640D03*
D19*
X272796Y163640D03*
D22*
X288417Y163640D03*
D18*
X289655Y163640D03*
D20*
X311372Y163640D03*
D14*
X257080Y163830D03*
D13*
X272606Y163830D03*
D15*
X290132Y163830D03*
D19*
X311468Y163830D03*
D14*
X257080Y164021D03*
X272510Y164021D03*
D19*
X278892Y164021D03*
D11*
X290227Y164021D03*
D20*
X311563Y164021D03*
D13*
X256985Y164211D03*
D17*
X272510Y164211D03*
D28*
X278987Y164211D03*
D11*
X290417Y164211D03*
D20*
X311753Y164211D03*
D14*
X256889Y164402D03*
D17*
X272320Y164402D03*
D25*
X278702Y164402D03*
D11*
X290608Y164402D03*
D20*
X311753Y164402D03*
X256889Y164592D03*
D57*
X276320Y164592D03*
D11*
X290798Y164592D03*
D20*
X311944Y164592D03*
X256889Y164783D03*
D55*
X276511Y164783D03*
D11*
X290989Y164783D03*
D20*
X311944Y164783D03*
D13*
X256794Y164973D03*
D58*
X275368Y164973D03*
D12*
X280607Y164973D03*
D11*
X291179Y164973D03*
D20*
X311944Y164973D03*
D14*
X256508Y165164D03*
D47*
X275082Y165164D03*
D12*
X280988Y165164D03*
D11*
X291370Y165164D03*
D20*
X312134Y165164D03*
D13*
X256413Y165354D03*
D34*
X275082Y165354D03*
D28*
X281464Y165354D03*
D19*
X291656Y165354D03*
D20*
X312134Y165354D03*
D13*
X256413Y165545D03*
D28*
X274987Y165545D03*
D23*
X282035Y165545D03*
D21*
X284036Y165545D03*
D19*
X291656Y165545D03*
D20*
X312325Y165545D03*
D13*
X256413Y165735D03*
D58*
X284321Y165735D03*
D18*
X291370Y165735D03*
D19*
X312420Y165735D03*
D13*
X256223Y165926D03*
D59*
X287369Y165926D03*
D20*
X312515Y165926D03*
D13*
X256223Y166116D03*
D60*
X287560Y166116D03*
D20*
X312706Y166116D03*
D13*
X256223Y166307D03*
D41*
X287655Y166307D03*
D20*
X312706Y166307D03*
D13*
X256223Y166497D03*
D61*
X287560Y166497D03*
D20*
X312896Y166497D03*
D13*
X256223Y166688D03*
D17*
X284512Y166688D03*
D20*
X285464Y166688D03*
D43*
X288798Y166688D03*
D20*
X312896Y166688D03*
D13*
X256032Y166878D03*
D22*
X288989Y166878D03*
D13*
X312992Y166878D03*
D20*
X256127Y167069D03*
X313087Y167069D03*
X256127Y167259D03*
D13*
X313182Y167259D03*
D20*
X256127Y167450D03*
X313277Y167450D03*
D13*
X256032Y167640D03*
D20*
X313277Y167640D03*
D21*
X255842Y167831D03*
D13*
X313563Y167831D03*
D22*
X255651Y168021D03*
D13*
X313563Y168021D03*
D22*
X255651Y168212D03*
D13*
X313754Y168212D03*
D22*
X255651Y168402D03*
D13*
X313754Y168402D03*
D22*
X255461Y168593D03*
D13*
X313944Y168593D03*
X278130Y168783D03*
X313944Y168783D03*
D29*
X277082Y168974D03*
D20*
X314039Y168974D03*
D35*
X276987Y169164D03*
D13*
X314135Y169164D03*
D43*
X276987Y169355D03*
D13*
X314135Y169355D03*
D22*
X274130Y169545D03*
D30*
X276892Y169545D03*
D14*
X314230Y169545D03*
D40*
X276701Y169736D03*
D13*
X314325Y169736D03*
X274320Y169926D03*
X275463Y169926D03*
D14*
X314420Y169926D03*
D11*
X274415Y170117D03*
D13*
X314516Y170117D03*
D19*
X274130Y170307D03*
D14*
X314611Y170307D03*
D19*
X273939Y170498D03*
D22*
X297561Y170498D03*
D14*
X314611Y170498D03*
D17*
X259366Y170688D03*
D32*
X263557Y170688D03*
D20*
X273844Y170688D03*
D21*
X292037Y170688D03*
D17*
X292894Y170688D03*
D29*
X297466Y170688D03*
D13*
X314706Y170688D03*
D42*
X262700Y170879D03*
D20*
X273844Y170879D03*
D53*
X294704Y170879D03*
D14*
X314801Y170879D03*
D60*
X262795Y171069D03*
D20*
X273653Y171069D03*
D62*
X293846Y171069D03*
D17*
X302419Y171069D03*
D13*
X314897Y171069D03*
D19*
X319278Y171069D03*
D22*
X254318Y171260D03*
D55*
X260318Y171260D03*
D36*
X267367Y171260D03*
D13*
X273558Y171260D03*
D63*
X292418Y171260D03*
D11*
X300133Y171260D03*
D14*
X302419Y171260D03*
D13*
X315087Y171260D03*
D25*
X318897Y171260D03*
D21*
X254318Y171450D03*
D62*
X262414Y171450D03*
D13*
X273558Y171450D03*
D64*
X292608Y171450D03*
D14*
X302609Y171450D03*
D13*
X315087Y171450D03*
D45*
X318897Y171450D03*
X255461Y171641D03*
D65*
X263938Y171641D03*
D13*
X273558Y171641D03*
D66*
X292513Y171641D03*
D13*
X302705Y171641D03*
D14*
X315182Y171641D03*
D43*
X318897Y171641D03*
D35*
X255270Y171831D03*
D65*
X263938Y171831D03*
D20*
X273463Y171831D03*
D67*
X292799Y171831D03*
D21*
X301371Y171831D03*
D13*
X302895Y171831D03*
X315278Y171831D03*
D30*
X318992Y171831D03*
D68*
X261652Y172022D03*
D20*
X273463Y172022D03*
D69*
X292799Y172022D03*
D21*
X301562Y172022D03*
D20*
X302990Y172022D03*
D13*
X315278Y172022D03*
D20*
X317278Y172022D03*
D11*
X320897Y172022D03*
D70*
X261557Y172212D03*
D20*
X273463Y172212D03*
D51*
X289941Y172212D03*
D22*
X299466Y172212D03*
X300800Y172212D03*
D12*
X302514Y172212D03*
D14*
X315373Y172212D03*
D22*
X316992Y172212D03*
D20*
X321278Y172212D03*
D25*
X254508Y172403D03*
D71*
X263366Y172403D03*
D20*
X273463Y172403D03*
D56*
X288036Y172403D03*
D26*
X302609Y172403D03*
D13*
X315468Y172403D03*
X321374Y172403D03*
D19*
X253175Y172593D03*
D16*
X255270Y172593D03*
D30*
X267748Y172593D03*
D20*
X273463Y172593D03*
D13*
X284798Y172593D03*
D32*
X287369Y172593D03*
D26*
X302800Y172593D03*
D14*
X315563Y172593D03*
D22*
X316802Y172593D03*
D13*
X321564Y172593D03*
D20*
X253079Y172784D03*
D26*
X255175Y172784D03*
D32*
X268510Y172784D03*
D19*
X273749Y172784D03*
D21*
X284798Y172784D03*
D24*
X286893Y172784D03*
D12*
X302895Y172784D03*
D13*
X315659Y172784D03*
D14*
X316706Y172784D03*
D20*
X321850Y172784D03*
D19*
X252984Y172974D03*
D16*
X255080Y172974D03*
D11*
X269653Y172974D03*
X273844Y172974D03*
D14*
X284512Y172974D03*
D27*
X286703Y172974D03*
D26*
X303181Y172974D03*
D15*
X316230Y172974D03*
D13*
X321945Y172974D03*
D20*
X252889Y173165D03*
D26*
X254984Y173165D03*
D20*
X269843Y173165D03*
D22*
X271082Y173165D03*
D11*
X274034Y173165D03*
D14*
X284321Y173165D03*
D28*
X286417Y173165D03*
D26*
X303181Y173165D03*
D13*
X315849Y173165D03*
X322136Y173165D03*
D19*
X252794Y173355D03*
D20*
X254413Y173355D03*
D13*
X255651Y173355D03*
D14*
X269843Y173355D03*
D17*
X271177Y173355D03*
D15*
X274130Y173355D03*
D22*
X284036Y173355D03*
D28*
X286036Y173355D03*
D26*
X303371Y173355D03*
D13*
X315849Y173355D03*
X322326Y173355D03*
D20*
X252698Y173546D03*
X254222Y173546D03*
D14*
X255556Y173546D03*
D21*
X269939Y173546D03*
D13*
X271272Y173546D03*
D19*
X274320Y173546D03*
D17*
X283940Y173546D03*
D12*
X285750Y173546D03*
D26*
X303371Y173546D03*
D13*
X316040Y173546D03*
X322517Y173546D03*
D19*
X252603Y173736D03*
D20*
X254032Y173736D03*
D14*
X255556Y173736D03*
X270034Y173736D03*
D20*
X271558Y173736D03*
X274415Y173736D03*
D17*
X283940Y173736D03*
D16*
X285560Y173736D03*
D12*
X303657Y173736D03*
D14*
X316135Y173736D03*
D13*
X322707Y173736D03*
D28*
X253270Y173927D03*
D14*
X255556Y173927D03*
X270034Y173927D03*
D19*
X271653Y173927D03*
D13*
X274320Y173927D03*
D14*
X283940Y173927D03*
D18*
X285464Y173927D03*
D26*
X303752Y173927D03*
D14*
X316135Y173927D03*
D20*
X322802Y173927D03*
D26*
X253079Y174117D03*
D13*
X255461Y174117D03*
D14*
X270224Y174117D03*
D20*
X271748Y174117D03*
D19*
X284036Y174117D03*
D20*
X285464Y174117D03*
D12*
X303848Y174117D03*
D13*
X316230Y174117D03*
D14*
X322993Y174117D03*
D12*
X252984Y174308D03*
D13*
X255461Y174308D03*
D14*
X270415Y174308D03*
D20*
X271939Y174308D03*
D19*
X284036Y174308D03*
D20*
X285464Y174308D03*
D28*
X303943Y174308D03*
D14*
X316325Y174308D03*
D13*
X323088Y174308D03*
D28*
X252889Y174498D03*
D14*
X255365Y174498D03*
X270605Y174498D03*
D19*
X272034Y174498D03*
D11*
X283940Y174498D03*
D13*
X285369Y174498D03*
D28*
X304133Y174498D03*
D17*
X315563Y174498D03*
D14*
X316325Y174498D03*
X323183Y174498D03*
D28*
X252889Y174689D03*
D14*
X255365Y174689D03*
D13*
X270701Y174689D03*
D19*
X272034Y174689D03*
D28*
X284512Y174689D03*
X304324Y174689D03*
D17*
X315563Y174689D03*
D21*
X316421Y174689D03*
D22*
X320231Y174689D03*
D14*
X323374Y174689D03*
D27*
X252794Y174879D03*
D14*
X255365Y174879D03*
X270796Y174879D03*
D11*
X272129Y174879D03*
D28*
X284512Y174879D03*
X304324Y174879D03*
D21*
X315468Y174879D03*
D14*
X316516Y174879D03*
D17*
X320135Y174879D03*
D14*
X323374Y174879D03*
D28*
X252698Y175070D03*
D14*
X255365Y175070D03*
D12*
X271653Y175070D03*
D13*
X283464Y175070D03*
D11*
X284893Y175070D03*
D27*
X304419Y175070D03*
D21*
X315468Y175070D03*
D14*
X316516Y175070D03*
D21*
X320040Y175070D03*
D14*
X323374Y175070D03*
D27*
X252603Y175260D03*
D21*
X255270Y175260D03*
D28*
X271748Y175260D03*
D13*
X283464Y175260D03*
D19*
X284798Y175260D03*
D27*
X304610Y175260D03*
D17*
X315373Y175260D03*
D21*
X316611Y175260D03*
X320040Y175260D03*
X323469Y175260D03*
D27*
X252603Y175451D03*
D21*
X255270Y175451D03*
D12*
X271844Y175451D03*
D14*
X283369Y175451D03*
D19*
X284798Y175451D03*
D27*
X304610Y175451D03*
D17*
X315373Y175451D03*
D22*
X316802Y175451D03*
D21*
X320040Y175451D03*
D14*
X323564Y175451D03*
D28*
X252508Y175641D03*
D14*
X255175Y175641D03*
D28*
X271939Y175641D03*
D13*
X283274Y175641D03*
D19*
X284607Y175641D03*
D27*
X304800Y175641D03*
D21*
X315278Y175641D03*
X320040Y175641D03*
X323660Y175641D03*
D28*
X252508Y175832D03*
D14*
X255175Y175832D03*
D12*
X272034Y175832D03*
X284036Y175832D03*
D23*
X304895Y175832D03*
D21*
X315278Y175832D03*
X320040Y175832D03*
D14*
X323564Y175832D03*
D29*
X251936Y176022D03*
D14*
X255175Y176022D03*
D28*
X272129Y176022D03*
D12*
X284036Y176022D03*
D27*
X304991Y176022D03*
D21*
X315278Y176022D03*
X320040Y176022D03*
X323660Y176022D03*
D32*
X251746Y176213D03*
D14*
X255175Y176213D03*
D28*
X272320Y176213D03*
D12*
X284036Y176213D03*
D27*
X304991Y176213D03*
D14*
X315182Y176213D03*
X319945Y176213D03*
D13*
X324041Y176213D03*
D32*
X251555Y176403D03*
D14*
X255175Y176403D03*
D28*
X272320Y176403D03*
D12*
X283845Y176403D03*
D27*
X305181Y176403D03*
D21*
X315087Y176403D03*
X319850Y176403D03*
D13*
X324041Y176403D03*
D16*
X250508Y176594D03*
D11*
X252698Y176594D03*
D21*
X255080Y176594D03*
D27*
X272415Y176594D03*
D12*
X283845Y176594D03*
D27*
X305181Y176594D03*
D21*
X315087Y176594D03*
D15*
X319278Y176594D03*
D13*
X324041Y176594D03*
D19*
X249936Y176784D03*
D14*
X251174Y176784D03*
D15*
X252603Y176784D03*
D21*
X255080Y176784D03*
D28*
X272510Y176784D03*
X283750Y176784D03*
D20*
X294608Y176784D03*
D17*
X295751Y176784D03*
D28*
X305276Y176784D03*
D21*
X315087Y176784D03*
D16*
X319088Y176784D03*
D14*
X324136Y176784D03*
D20*
X249841Y176975D03*
D28*
X252127Y176975D03*
D14*
X254984Y176975D03*
D27*
X272606Y176975D03*
D28*
X283750Y176975D03*
D12*
X295085Y176975D03*
D27*
X305372Y176975D03*
D14*
X314992Y176975D03*
D18*
X318992Y176975D03*
D14*
X324136Y176975D03*
D20*
X249650Y177165D03*
D27*
X252032Y177165D03*
D14*
X254984Y177165D03*
D27*
X272796Y177165D03*
D12*
X283655Y177165D03*
D29*
X294989Y177165D03*
D28*
X305467Y177165D03*
D14*
X314992Y177165D03*
D18*
X318992Y177165D03*
D14*
X324136Y177165D03*
D13*
X249555Y177356D03*
D23*
X251936Y177356D03*
D21*
X254889Y177356D03*
D27*
X272796Y177356D03*
D28*
X283559Y177356D03*
D36*
X294989Y177356D03*
D28*
X305467Y177356D03*
D14*
X314992Y177356D03*
D19*
X319088Y177356D03*
D14*
X324136Y177356D03*
D20*
X249269Y177546D03*
D27*
X251841Y177546D03*
D21*
X254889Y177546D03*
D23*
X272891Y177546D03*
D28*
X283559Y177546D03*
D43*
X295085Y177546D03*
D12*
X305562Y177546D03*
D13*
X314897Y177546D03*
D14*
X324136Y177546D03*
D20*
X249269Y177737D03*
D27*
X251841Y177737D03*
D21*
X254889Y177737D03*
D28*
X273082Y177737D03*
D12*
X283464Y177737D03*
D33*
X295085Y177737D03*
D28*
X305657Y177737D03*
D14*
X314801Y177737D03*
X324136Y177737D03*
D13*
X249174Y177927D03*
D27*
X251841Y177927D03*
D17*
X254794Y177927D03*
D19*
X264224Y177927D03*
D27*
X273177Y177927D03*
D20*
X282607Y177927D03*
X284131Y177927D03*
D11*
X293275Y177927D03*
D18*
X296894Y177927D03*
D28*
X305657Y177927D03*
D14*
X314801Y177927D03*
D21*
X324041Y177927D03*
D13*
X249174Y178118D03*
D23*
X251746Y178118D03*
D17*
X254794Y178118D03*
D24*
X264033Y178118D03*
D28*
X273272Y178118D03*
D20*
X282607Y178118D03*
X284131Y178118D03*
D11*
X293084Y178118D03*
D15*
X297180Y178118D03*
D27*
X305753Y178118D03*
D14*
X314801Y178118D03*
X323945Y178118D03*
D13*
X249174Y178308D03*
D27*
X251651Y178308D03*
D17*
X254794Y178308D03*
D32*
X263938Y178308D03*
D28*
X273272Y178308D03*
X283369Y178308D03*
D11*
X292894Y178308D03*
X297466Y178308D03*
D28*
X305848Y178308D03*
D21*
X314897Y178308D03*
X323850Y178308D03*
D14*
X249079Y178499D03*
D28*
X251746Y178499D03*
D17*
X254794Y178499D03*
D43*
X264033Y178499D03*
D28*
X273463Y178499D03*
X283178Y178499D03*
D19*
X292799Y178499D03*
D17*
X295180Y178499D03*
D11*
X297656Y178499D03*
D28*
X305848Y178499D03*
D17*
X314230Y178499D03*
D14*
X323755Y178499D03*
X249079Y178689D03*
D28*
X251746Y178689D03*
D17*
X254794Y178689D03*
D28*
X262985Y178689D03*
D26*
X265652Y178689D03*
D28*
X273463Y178689D03*
X283178Y178689D03*
D19*
X292608Y178689D03*
X297752Y178689D03*
D27*
X305943Y178689D03*
D17*
X314230Y178689D03*
D21*
X316230Y178689D03*
X323660Y178689D03*
D13*
X249174Y178880D03*
D28*
X251746Y178880D03*
D22*
X254699Y178880D03*
D18*
X262223Y178880D03*
D22*
X263652Y178880D03*
X264224Y178880D03*
D12*
X265748Y178880D03*
D27*
X273558Y178880D03*
D28*
X282988Y178880D03*
D19*
X292608Y178880D03*
D20*
X297847Y178880D03*
D27*
X305943Y178880D03*
D20*
X313468Y178880D03*
D19*
X316421Y178880D03*
D14*
X323564Y178880D03*
D13*
X249174Y179070D03*
D12*
X251651Y179070D03*
D17*
X254794Y179070D03*
D15*
X261938Y179070D03*
X266319Y179070D03*
D27*
X273558Y179070D03*
D28*
X282988Y179070D03*
D11*
X292513Y179070D03*
D20*
X298037Y179070D03*
D36*
X306610Y179070D03*
D19*
X312992Y179070D03*
D15*
X316421Y179070D03*
D13*
X323469Y179070D03*
X249174Y179261D03*
D12*
X251651Y179261D03*
D14*
X253841Y179261D03*
D22*
X254699Y179261D03*
D11*
X261652Y179261D03*
X266605Y179261D03*
D28*
X273653Y179261D03*
X282988Y179261D03*
D19*
X292418Y179261D03*
D20*
X298037Y179261D03*
D36*
X306800Y179261D03*
D11*
X312515Y179261D03*
D18*
X316516Y179261D03*
D22*
X322326Y179261D03*
D13*
X323279Y179261D03*
D14*
X249079Y179451D03*
D25*
X252222Y179451D03*
D17*
X254603Y179451D03*
D15*
X261557Y179451D03*
D19*
X266891Y179451D03*
D20*
X272891Y179451D03*
D19*
X274320Y179451D03*
D12*
X282893Y179451D03*
D19*
X292227Y179451D03*
D20*
X298037Y179451D03*
D36*
X306800Y179451D03*
D16*
X312230Y179451D03*
X316611Y179451D03*
D19*
X322898Y179451D03*
D14*
X249079Y179642D03*
D32*
X252127Y179642D03*
D17*
X254603Y179642D03*
D19*
X261366Y179642D03*
D20*
X266986Y179642D03*
X272891Y179642D03*
D19*
X274320Y179642D03*
D12*
X282893Y179642D03*
D20*
X292132Y179642D03*
X298037Y179642D03*
D32*
X306800Y179642D03*
D12*
X312039Y179642D03*
D17*
X313849Y179642D03*
D18*
X316706Y179642D03*
D19*
X322707Y179642D03*
D33*
X251270Y179832D03*
D22*
X254508Y179832D03*
D19*
X261176Y179832D03*
D20*
X267176Y179832D03*
D13*
X272987Y179832D03*
D20*
X274415Y179832D03*
D14*
X276511Y179832D03*
D26*
X282988Y179832D03*
D19*
X292037Y179832D03*
D20*
X298037Y179832D03*
D32*
X306800Y179832D03*
D45*
X312039Y179832D03*
D13*
X316040Y179832D03*
D16*
X317754Y179832D03*
D11*
X322612Y179832D03*
D30*
X251174Y180023D03*
D20*
X261080Y180023D03*
X267176Y180023D03*
X273082Y180023D03*
X274415Y180023D03*
D11*
X276701Y180023D03*
D18*
X278987Y180023D03*
D26*
X282988Y180023D03*
D20*
X291941Y180023D03*
D17*
X293275Y180023D03*
D20*
X298037Y180023D03*
D32*
X306800Y180023D03*
D43*
X311658Y180023D03*
D14*
X315754Y180023D03*
D12*
X317945Y180023D03*
D11*
X322421Y180023D03*
D43*
X251079Y180213D03*
D20*
X261080Y180213D03*
X267367Y180213D03*
D13*
X273177Y180213D03*
D20*
X274606Y180213D03*
D72*
X279940Y180213D03*
D20*
X291941Y180213D03*
X298037Y180213D03*
D32*
X306800Y180213D03*
D33*
X311468Y180213D03*
D11*
X315563Y180213D03*
D24*
X318326Y180213D03*
D18*
X322231Y180213D03*
D31*
X250984Y180404D03*
D20*
X261080Y180404D03*
D13*
X267462Y180404D03*
D20*
X273272Y180404D03*
D19*
X274892Y180404D03*
D72*
X279940Y180404D03*
D20*
X291941Y180404D03*
D22*
X293180Y180404D03*
D20*
X298037Y180404D03*
D51*
X310706Y180404D03*
D39*
X319945Y180404D03*
D35*
X250889Y180594D03*
D20*
X261080Y180594D03*
D13*
X267462Y180594D03*
D19*
X273368Y180594D03*
D11*
X274987Y180594D03*
D72*
X279940Y180594D03*
D20*
X291941Y180594D03*
X297847Y180594D03*
D51*
X310706Y180594D03*
D38*
X319754Y180594D03*
D35*
X250889Y180785D03*
D20*
X261080Y180785D03*
D13*
X267462Y180785D03*
D19*
X273558Y180785D03*
D55*
X279178Y180785D03*
D20*
X291941Y180785D03*
X297847Y180785D03*
D25*
X306896Y180785D03*
D48*
X312039Y180785D03*
D20*
X315944Y180785D03*
D34*
X319659Y180785D03*
D36*
X250984Y180975D03*
D17*
X253651Y180975D03*
D20*
X261080Y180975D03*
D13*
X267462Y180975D03*
D73*
X278416Y180975D03*
D20*
X291941Y180975D03*
D13*
X297752Y180975D03*
D32*
X306991Y180975D03*
D34*
X311849Y180975D03*
D20*
X315944Y180975D03*
D30*
X319373Y180975D03*
D45*
X251079Y181166D03*
D14*
X253651Y181166D03*
D13*
X261176Y181166D03*
X267462Y181166D03*
D74*
X278321Y181166D03*
D20*
X291941Y181166D03*
X297656Y181166D03*
D57*
X309658Y181166D03*
D14*
X315944Y181166D03*
D45*
X319088Y181166D03*
D30*
X251555Y181356D03*
D20*
X261080Y181356D03*
X267367Y181356D03*
D60*
X278416Y181356D03*
D20*
X291941Y181356D03*
D19*
X297561Y181356D03*
D75*
X309563Y181356D03*
D20*
X317659Y181356D03*
D43*
X251460Y181547D03*
D13*
X261176Y181547D03*
X267272Y181547D03*
D60*
X278416Y181547D03*
D20*
X291941Y181547D03*
D19*
X297561Y181547D03*
D61*
X309467Y181547D03*
D20*
X317849Y181547D03*
D43*
X251460Y181737D03*
D20*
X261271Y181737D03*
D19*
X267081Y181737D03*
D60*
X278416Y181737D03*
D20*
X291941Y181737D03*
D19*
X297371Y181737D03*
D72*
X309277Y181737D03*
D13*
X317945Y181737D03*
D31*
X251365Y181928D03*
D11*
X261461Y181928D03*
D15*
X266891Y181928D03*
D46*
X278321Y181928D03*
D20*
X291941Y181928D03*
D15*
X296990Y181928D03*
D76*
X309182Y181928D03*
D22*
X314897Y181928D03*
D20*
X318040Y181928D03*
D35*
X251270Y182118D03*
D11*
X261461Y182118D03*
D15*
X266700Y182118D03*
D60*
X278416Y182118D03*
D20*
X292132Y182118D03*
D22*
X293561Y182118D03*
D15*
X296990Y182118D03*
D77*
X309086Y182118D03*
D22*
X314897Y182118D03*
D20*
X318040Y182118D03*
D45*
X251079Y182309D03*
D15*
X261747Y182309D03*
D16*
X266510Y182309D03*
D60*
X278416Y182309D03*
D19*
X292227Y182309D03*
D18*
X296704Y182309D03*
D49*
X309086Y182309D03*
D17*
X314992Y182309D03*
D20*
X318230Y182309D03*
D45*
X251079Y182499D03*
D11*
X261842Y182499D03*
D26*
X266224Y182499D03*
D74*
X278321Y182499D03*
D19*
X292227Y182499D03*
D16*
X296418Y182499D03*
D58*
X308896Y182499D03*
D22*
X314897Y182499D03*
D13*
X318326Y182499D03*
D45*
X251079Y182690D03*
D15*
X262128Y182690D03*
D26*
X266033Y182690D03*
D51*
X278321Y182690D03*
D11*
X292513Y182690D03*
D16*
X296228Y182690D03*
D37*
X308801Y182690D03*
D22*
X314897Y182690D03*
D13*
X318516Y182690D03*
D36*
X251174Y182880D03*
D38*
X264128Y182880D03*
D48*
X275463Y182880D03*
D38*
X281464Y182880D03*
D11*
X292703Y182880D03*
D12*
X295847Y182880D03*
D78*
X308705Y182880D03*
D22*
X314897Y182880D03*
D13*
X318516Y182880D03*
D36*
X251365Y183071D03*
D40*
X264128Y183071D03*
D52*
X278416Y183071D03*
D30*
X294418Y183071D03*
D47*
X308610Y183071D03*
D22*
X314897Y183071D03*
D13*
X318516Y183071D03*
D36*
X251365Y183261D03*
D43*
X264033Y183261D03*
D52*
X278606Y183261D03*
D31*
X294418Y183261D03*
D48*
X308420Y183261D03*
D17*
X314801Y183261D03*
D13*
X318707Y183261D03*
D36*
X251555Y183452D03*
D32*
X264128Y183452D03*
D52*
X278797Y183452D03*
D45*
X294323Y183452D03*
D24*
X307086Y183452D03*
D26*
X310039Y183452D03*
D21*
X314706Y183452D03*
D13*
X318897Y183452D03*
D35*
X251651Y183642D03*
D23*
X264128Y183642D03*
D79*
X278892Y183642D03*
D29*
X294227Y183642D03*
D34*
X308229Y183642D03*
D21*
X314706Y183642D03*
D13*
X318897Y183642D03*
D30*
X251936Y183833D03*
D16*
X264033Y183833D03*
D53*
X278892Y183833D03*
D28*
X294037Y183833D03*
D24*
X307086Y183833D03*
D20*
X310229Y183833D03*
D17*
X314611Y183833D03*
D13*
X319088Y183833D03*
D39*
X252317Y184023D03*
D13*
X264033Y184023D03*
D64*
X278702Y184023D03*
D11*
X293846Y184023D03*
D17*
X294989Y184023D03*
D25*
X306896Y184023D03*
D20*
X310229Y184023D03*
D21*
X314516Y184023D03*
D13*
X319088Y184023D03*
D58*
X252508Y184214D03*
D31*
X273653Y184214D03*
D80*
X281178Y184214D03*
D22*
X293942Y184214D03*
X303276Y184214D03*
D43*
X306324Y184214D03*
D21*
X310134Y184214D03*
X314516Y184214D03*
D13*
X319278Y184214D03*
D22*
X248984Y184404D03*
D72*
X253270Y184404D03*
D43*
X272987Y184404D03*
D25*
X278130Y184404D03*
D40*
X283940Y184404D03*
D29*
X304705Y184404D03*
D15*
X307467Y184404D03*
D21*
X314516Y184404D03*
D13*
X317564Y184404D03*
D20*
X319373Y184404D03*
D81*
X253841Y184595D03*
D34*
X272415Y184595D03*
D16*
X277559Y184595D03*
D33*
X284798Y184595D03*
D25*
X304419Y184595D03*
D11*
X307372Y184595D03*
D14*
X314420Y184595D03*
D15*
X317754Y184595D03*
D20*
X319564Y184595D03*
D46*
X254889Y184785D03*
D17*
X264509Y184785D03*
D56*
X271463Y184785D03*
D40*
X285083Y184785D03*
D22*
X301371Y184785D03*
D48*
X304610Y184785D03*
D14*
X314230Y184785D03*
D29*
X318421Y184785D03*
D60*
X255175Y184976D03*
D15*
X264605Y184976D03*
D57*
X270415Y184976D03*
D47*
X285941Y184976D03*
D11*
X298799Y184976D03*
D82*
X303276Y184976D03*
D22*
X312611Y184976D03*
D14*
X314230Y184976D03*
D25*
X318516Y184976D03*
D83*
X262414Y185166D03*
D82*
X286512Y185166D03*
D61*
X301847Y185166D03*
D17*
X312706Y185166D03*
D14*
X314230Y185166D03*
D29*
X318611Y185166D03*
D16*
X251270Y185357D03*
D84*
X263652Y185357D03*
D85*
X294323Y185357D03*
D17*
X312706Y185357D03*
D14*
X314230Y185357D03*
D29*
X318611Y185357D03*
D20*
X250984Y185547D03*
D86*
X263843Y185547D03*
D87*
X293846Y185547D03*
D22*
X304800Y185547D03*
D17*
X312706Y185547D03*
D13*
X314135Y185547D03*
D23*
X318802Y185547D03*
D13*
X250889Y185738D03*
D88*
X263843Y185738D03*
D89*
X293561Y185738D03*
D17*
X312706Y185738D03*
D13*
X314135Y185738D03*
D27*
X318897Y185738D03*
D20*
X250793Y185928D03*
D87*
X263938Y185928D03*
D90*
X293180Y185928D03*
D17*
X312706Y185928D03*
D13*
X314135Y185928D03*
D20*
X318040Y185928D03*
D19*
X319659Y185928D03*
D20*
X250793Y186119D03*
D91*
X263271Y186119D03*
D16*
X273177Y186119D03*
D92*
X292799Y186119D03*
D17*
X312706Y186119D03*
D13*
X314135Y186119D03*
D20*
X318230Y186119D03*
D17*
X319754Y186119D03*
D20*
X250603Y186309D03*
D93*
X263557Y186309D03*
D11*
X273272Y186309D03*
D94*
X292418Y186309D03*
D17*
X312706Y186309D03*
D13*
X314135Y186309D03*
D20*
X318230Y186309D03*
X250412Y186500D03*
D63*
X264414Y186500D03*
D22*
X273177Y186500D03*
D73*
X291370Y186500D03*
D17*
X312706Y186500D03*
D13*
X314135Y186500D03*
X318326Y186500D03*
X250127Y186690D03*
D95*
X264319Y186690D03*
D50*
X291084Y186690D03*
D21*
X312611Y186690D03*
D20*
X314039Y186690D03*
X318421Y186690D03*
X250031Y186881D03*
D44*
X263557Y186881D03*
D39*
X291179Y186881D03*
D14*
X301276Y186881D03*
D17*
X312515Y186881D03*
D20*
X314039Y186881D03*
D13*
X318516Y186881D03*
X249936Y187071D03*
D45*
X263081Y187071D03*
D11*
X300895Y187071D03*
D22*
X312611Y187071D03*
D20*
X314039Y187071D03*
D13*
X318516Y187071D03*
D20*
X249650Y187262D03*
D24*
X288417Y187262D03*
D28*
X300323Y187262D03*
D21*
X312420Y187262D03*
D20*
X314039Y187262D03*
X318611Y187262D03*
D11*
X249650Y187452D03*
D19*
X269177Y187452D03*
D36*
X288703Y187452D03*
D25*
X299847Y187452D03*
D14*
X312325Y187452D03*
D19*
X313944Y187452D03*
D13*
X318897Y187452D03*
D16*
X249746Y187643D03*
D22*
X267081Y187643D03*
D27*
X268796Y187643D03*
D39*
X289274Y187643D03*
D35*
X298895Y187643D03*
D13*
X312230Y187643D03*
D19*
X313944Y187643D03*
D13*
X318897Y187643D03*
D26*
X249841Y187833D03*
D21*
X255842Y187833D03*
D31*
X268129Y187833D03*
D50*
X290322Y187833D03*
D34*
X298133Y187833D03*
D13*
X312230Y187833D03*
D19*
X313944Y187833D03*
D20*
X318992Y187833D03*
D28*
X250222Y188024D03*
D14*
X255937Y188024D03*
D56*
X267272Y188024D03*
D19*
X286703Y188024D03*
D17*
X287750Y188024D03*
D79*
X294132Y188024D03*
D14*
X312325Y188024D03*
D19*
X313944Y188024D03*
D20*
X318992Y188024D03*
D12*
X250508Y188214D03*
D27*
X256985Y188214D03*
D14*
X259556Y188214D03*
D74*
X265938Y188214D03*
D20*
X286417Y188214D03*
D57*
X294608Y188214D03*
D13*
X312230Y188214D03*
D19*
X313944Y188214D03*
D20*
X318992Y188214D03*
D18*
X250984Y188405D03*
D22*
X254127Y188405D03*
D96*
X261366Y188405D03*
D16*
X270891Y188405D03*
D13*
X286322Y188405D03*
D49*
X294608Y188405D03*
D21*
X301181Y188405D03*
D14*
X312134Y188405D03*
D19*
X313944Y188405D03*
D20*
X318992Y188405D03*
X251365Y188595D03*
D14*
X254032Y188595D03*
D54*
X260699Y188595D03*
D15*
X271272Y188595D03*
D13*
X286322Y188595D03*
D31*
X294227Y188595D03*
D21*
X299085Y188595D03*
D15*
X300419Y188595D03*
D14*
X312134Y188595D03*
D19*
X313944Y188595D03*
D20*
X318992Y188595D03*
D13*
X251460Y188786D03*
D14*
X254032Y188786D03*
D18*
X256889Y188786D03*
D49*
X261652Y188786D03*
D22*
X265557Y188786D03*
D19*
X271463Y188786D03*
D13*
X286322Y188786D03*
D25*
X294513Y188786D03*
D24*
X299657Y188786D03*
D14*
X312134Y188786D03*
D19*
X313944Y188786D03*
D13*
X318897Y188786D03*
X251460Y188976D03*
D14*
X254032Y188976D03*
D19*
X256794Y188976D03*
D33*
X261176Y188976D03*
D13*
X271653Y188976D03*
X286322Y188976D03*
D30*
X298609Y188976D03*
D14*
X312134Y188976D03*
D19*
X313944Y188976D03*
D14*
X318992Y188976D03*
D13*
X251460Y189167D03*
D21*
X254127Y189167D03*
D11*
X257270Y189167D03*
D13*
X271653Y189167D03*
X286322Y189167D03*
D30*
X297656Y189167D03*
D14*
X312134Y189167D03*
D19*
X313944Y189167D03*
D13*
X319088Y189167D03*
X251460Y189357D03*
X254318Y189357D03*
D11*
X257842Y189357D03*
D13*
X271653Y189357D03*
X286322Y189357D03*
D45*
X296799Y189357D03*
D14*
X312134Y189357D03*
D19*
X313944Y189357D03*
D13*
X319088Y189357D03*
X251270Y189548D03*
X254318Y189548D03*
D15*
X258318Y189548D03*
D13*
X271653Y189548D03*
D20*
X286417Y189548D03*
D22*
X293751Y189548D03*
D29*
X295751Y189548D03*
D14*
X312134Y189548D03*
D20*
X313849Y189548D03*
D13*
X319088Y189548D03*
D14*
X251174Y189738D03*
D13*
X254318Y189738D03*
D11*
X258604Y189738D03*
D13*
X271653Y189738D03*
X286322Y189738D03*
D32*
X295370Y189738D03*
D14*
X312134Y189738D03*
D20*
X313849Y189738D03*
D13*
X319088Y189738D03*
X251079Y189929D03*
X254318Y189929D03*
D11*
X259175Y189929D03*
D13*
X271463Y189929D03*
D20*
X286607Y189929D03*
D25*
X294323Y189929D03*
D21*
X312039Y189929D03*
D20*
X313849Y189929D03*
D13*
X319088Y189929D03*
D20*
X250984Y190119D03*
D13*
X254318Y190119D03*
D18*
X259556Y190119D03*
D20*
X271367Y190119D03*
X287179Y190119D03*
D36*
X293656Y190119D03*
D21*
X312039Y190119D03*
D13*
X313754Y190119D03*
X319088Y190119D03*
X250889Y190310D03*
X254318Y190310D03*
D28*
X260509Y190310D03*
D19*
X271082Y190310D03*
D28*
X287750Y190310D03*
D31*
X292894Y190310D03*
D21*
X312039Y190310D03*
D13*
X313754Y190310D03*
D20*
X319183Y190310D03*
D13*
X250889Y190500D03*
X254318Y190500D03*
D29*
X261461Y190500D03*
D18*
X270605Y190500D03*
D77*
X290227Y190500D03*
D17*
X311944Y190500D03*
D13*
X313754Y190500D03*
X319278Y190500D03*
D20*
X250793Y190691D03*
D13*
X254318Y190691D03*
D23*
X261652Y190691D03*
D22*
X263652Y190691D03*
D28*
X270034Y190691D03*
D82*
X290132Y190691D03*
D21*
X311849Y190691D03*
D13*
X313754Y190691D03*
X319278Y190691D03*
X250698Y190881D03*
X254318Y190881D03*
D32*
X262985Y190881D03*
D27*
X269748Y190881D03*
D39*
X289846Y190881D03*
D14*
X311944Y190881D03*
D13*
X313754Y190881D03*
X319278Y190881D03*
X250698Y191072D03*
X254318Y191072D03*
D81*
X266414Y191072D03*
D43*
X289941Y191072D03*
D14*
X311944Y191072D03*
X313658Y191072D03*
D13*
X319278Y191072D03*
X250698Y191262D03*
X254318Y191262D03*
D97*
X266319Y191262D03*
D24*
X289941Y191262D03*
D14*
X311944Y191262D03*
X313658Y191262D03*
D13*
X319278Y191262D03*
D14*
X250603Y191453D03*
D13*
X254318Y191453D03*
D47*
X266700Y191453D03*
D14*
X311944Y191453D03*
X313658Y191453D03*
D13*
X319278Y191453D03*
D14*
X250603Y191643D03*
X254413Y191643D03*
D36*
X267367Y191643D03*
D14*
X311944Y191643D03*
D13*
X313754Y191643D03*
D14*
X319373Y191643D03*
D21*
X250698Y191834D03*
D14*
X254413Y191834D03*
X311944Y191834D03*
X313658Y191834D03*
X319373Y191834D03*
D17*
X251746Y192024D03*
D13*
X254508Y192024D03*
D14*
X311944Y192024D03*
D13*
X313563Y192024D03*
D14*
X319373Y192024D03*
X251555Y192215D03*
D13*
X254508Y192215D03*
D21*
X311849Y192215D03*
D13*
X313563Y192215D03*
D14*
X251555Y192405D03*
D13*
X254508Y192405D03*
D21*
X311849Y192405D03*
D13*
X313563Y192405D03*
X251460Y192596D03*
X254508Y192596D03*
D21*
X311849Y192596D03*
D13*
X313563Y192596D03*
D20*
X251365Y192786D03*
D13*
X254508Y192786D03*
D14*
X311753Y192786D03*
X313658Y192786D03*
D20*
X251174Y192977D03*
D13*
X254508Y192977D03*
D14*
X311753Y192977D03*
D21*
X313563Y192977D03*
D20*
X250984Y193167D03*
D14*
X254603Y193167D03*
X311753Y193167D03*
D21*
X313563Y193167D03*
D13*
X250889Y193358D03*
D14*
X254603Y193358D03*
D13*
X311849Y193358D03*
D21*
X313563Y193358D03*
D13*
X250698Y193548D03*
D14*
X254603Y193548D03*
D13*
X311849Y193548D03*
D21*
X313563Y193548D03*
D20*
X250603Y193739D03*
D14*
X254603Y193739D03*
X311753Y193739D03*
D21*
X313563Y193739D03*
D19*
X250508Y193929D03*
D14*
X254603Y193929D03*
X311753Y193929D03*
D21*
X313563Y193929D03*
D18*
X250603Y194120D03*
D21*
X254699Y194120D03*
D14*
X311753Y194120D03*
D21*
X313563Y194120D03*
D12*
X250698Y194310D03*
D21*
X254699Y194310D03*
D13*
X311658Y194310D03*
D21*
X313563Y194310D03*
D27*
X250889Y194501D03*
D14*
X254794Y194501D03*
X311563Y194501D03*
D17*
X313468Y194501D03*
D23*
X250793Y194691D03*
D21*
X254699Y194691D03*
D14*
X311563Y194691D03*
D17*
X313468Y194691D03*
D27*
X250889Y194882D03*
D14*
X254794Y194882D03*
D13*
X311468Y194882D03*
D17*
X313468Y194882D03*
D22*
X317754Y194882D03*
D21*
X249936Y195072D03*
D19*
X251651Y195072D03*
D14*
X254794Y195072D03*
D13*
X311277Y195072D03*
D17*
X313468Y195072D03*
D22*
X317754Y195072D03*
D20*
X251555Y195263D03*
D14*
X254794Y195263D03*
D20*
X311182Y195263D03*
D17*
X313468Y195263D03*
D22*
X317754Y195263D03*
D13*
X251460Y195453D03*
D14*
X254984Y195453D03*
D20*
X310991Y195453D03*
D22*
X313373Y195453D03*
D21*
X317754Y195453D03*
D13*
X251460Y195644D03*
D14*
X254984Y195644D03*
D13*
X310896Y195644D03*
D22*
X313373Y195644D03*
D21*
X317754Y195644D03*
D13*
X251460Y195834D03*
D14*
X254984Y195834D03*
D13*
X310896Y195834D03*
D21*
X317754Y195834D03*
D14*
X251555Y196025D03*
X254984Y196025D03*
D13*
X310706Y196025D03*
D22*
X313373Y196025D03*
D21*
X317754Y196025D03*
D14*
X251555Y196215D03*
X254984Y196215D03*
X310610Y196215D03*
D17*
X313468Y196215D03*
D21*
X317754Y196215D03*
D13*
X251460Y196406D03*
D14*
X255175Y196406D03*
X310420Y196406D03*
D22*
X313373Y196406D03*
D17*
X317849Y196406D03*
D13*
X251460Y196596D03*
D17*
X255365Y196596D03*
D13*
X310325Y196596D03*
D17*
X317849Y196596D03*
D14*
X251555Y196787D03*
D21*
X255461Y196787D03*
D14*
X310229Y196787D03*
D21*
X317754Y196787D03*
D14*
X251555Y196977D03*
D17*
X255556Y196977D03*
D13*
X310134Y196977D03*
D21*
X317945Y196977D03*
D14*
X251555Y197168D03*
D17*
X255556Y197168D03*
D14*
X310039Y197168D03*
X317849Y197168D03*
D13*
X251651Y197358D03*
D17*
X255746Y197358D03*
D14*
X310039Y197358D03*
X317849Y197358D03*
D13*
X251651Y197549D03*
D21*
X255842Y197549D03*
D14*
X309848Y197549D03*
X317849Y197549D03*
D13*
X251651Y197739D03*
D17*
X255937Y197739D03*
D13*
X309753Y197739D03*
D14*
X317849Y197739D03*
D13*
X251651Y197930D03*
D17*
X256127Y197930D03*
D13*
X309753Y197930D03*
X317945Y197930D03*
D14*
X251746Y198120D03*
D17*
X256127Y198120D03*
D13*
X309563Y198120D03*
X317945Y198120D03*
D14*
X251746Y198311D03*
D21*
X256223Y198311D03*
D13*
X309372Y198311D03*
X317945Y198311D03*
D14*
X251746Y198501D03*
D17*
X256318Y198501D03*
D20*
X309277Y198501D03*
D13*
X317945Y198501D03*
D14*
X251746Y198692D03*
D21*
X256413Y198692D03*
D20*
X309086Y198692D03*
D13*
X317945Y198692D03*
D14*
X251746Y198882D03*
D17*
X256508Y198882D03*
D19*
X308991Y198882D03*
D13*
X317945Y198882D03*
D21*
X251841Y199073D03*
D17*
X256699Y199073D03*
D19*
X308991Y199073D03*
D13*
X317945Y199073D03*
D21*
X251841Y199263D03*
X256794Y199263D03*
D11*
X308705Y199263D03*
D20*
X317849Y199263D03*
D21*
X251841Y199454D03*
X256794Y199454D03*
D11*
X308705Y199454D03*
D20*
X317849Y199454D03*
D21*
X252032Y199644D03*
D14*
X256889Y199644D03*
D11*
X308515Y199644D03*
D20*
X317849Y199644D03*
D17*
X252127Y199835D03*
D14*
X256889Y199835D03*
D11*
X308515Y199835D03*
D20*
X317849Y199835D03*
D17*
X252127Y200025D03*
D13*
X256985Y200025D03*
D19*
X308229Y200025D03*
D20*
X317849Y200025D03*
D17*
X252127Y200216D03*
D13*
X257175Y200216D03*
D11*
X308134Y200216D03*
X317659Y200216D03*
D22*
X252222Y200406D03*
D13*
X257175Y200406D03*
D20*
X307943Y200406D03*
D22*
X308991Y200406D03*
D18*
X317468Y200406D03*
D22*
X252222Y200597D03*
D13*
X257366Y200597D03*
X307848Y200597D03*
D16*
X317373Y200597D03*
D22*
X252222Y200787D03*
D14*
X257461Y200787D03*
D13*
X307658Y200787D03*
D22*
X309182Y200787D03*
X315468Y200787D03*
D12*
X317183Y200787D03*
D13*
X257747Y200978D03*
D20*
X307562Y200978D03*
D27*
X317183Y200978D03*
D20*
X258032Y201168D03*
X307372Y201168D03*
D19*
X316230Y201168D03*
D20*
X318040Y201168D03*
X258032Y201359D03*
D13*
X307277Y201359D03*
D22*
X308610Y201359D03*
D19*
X316230Y201359D03*
D13*
X318135Y201359D03*
D19*
X258318Y201549D03*
D13*
X307086Y201549D03*
D20*
X315944Y201549D03*
D14*
X318230Y201549D03*
D19*
X258509Y201740D03*
D20*
X306991Y201740D03*
D22*
X308039Y201740D03*
X308610Y201740D03*
D19*
X315849Y201740D03*
D17*
X318230Y201740D03*
D13*
X258890Y201930D03*
X306896Y201930D03*
D20*
X315563Y201930D03*
D13*
X259080Y202121D03*
D19*
X306705Y202121D03*
D20*
X315563Y202121D03*
D13*
X259271Y202311D03*
X306515Y202311D03*
X315468Y202311D03*
D20*
X259556Y202502D03*
D19*
X306324Y202502D03*
D22*
X308229Y202502D03*
D13*
X315468Y202502D03*
X259842Y202692D03*
D21*
X303657Y202692D03*
D11*
X306229Y202692D03*
D21*
X260223Y202883D03*
D14*
X303562Y202883D03*
D18*
X306038Y202883D03*
D14*
X260509Y203073D03*
D21*
X303276Y203073D03*
D16*
X305753Y203073D03*
D21*
X260795Y203264D03*
X303086Y203264D03*
D16*
X305562Y203264D03*
D22*
X307658Y203264D03*
D17*
X261080Y203454D03*
D14*
X302990Y203454D03*
D26*
X305276Y203454D03*
D17*
X261461Y203645D03*
D23*
X303943Y203645D03*
D21*
X312992Y203645D03*
D24*
X303848Y203835D03*
D22*
X306705Y203835D03*
D14*
X313087Y203835D03*
D17*
X255175Y204026D03*
D13*
X286703Y204026D03*
D21*
X295847Y204026D03*
D28*
X303562Y204026D03*
D14*
X313087Y204026D03*
D20*
X255365Y204216D03*
D27*
X286893Y204216D03*
D26*
X294989Y204216D03*
D27*
X303467Y204216D03*
D14*
X313087Y204216D03*
D18*
X255365Y204407D03*
D24*
X286893Y204407D03*
D17*
X290989Y204407D03*
D25*
X293942Y204407D03*
D22*
X300800Y204407D03*
D17*
X301466Y204407D03*
D26*
X302990Y204407D03*
D14*
X313087Y204407D03*
D16*
X255461Y204597D03*
D17*
X263557Y204597D03*
D98*
X294323Y204597D03*
D14*
X313087Y204597D03*
D26*
X255556Y204788D03*
D21*
X263652Y204788D03*
D99*
X291370Y204788D03*
D17*
X297847Y204788D03*
X298609Y204788D03*
D14*
X299942Y204788D03*
D26*
X301657Y204788D03*
D13*
X312992Y204788D03*
D11*
X255175Y204978D03*
D21*
X256604Y204978D03*
X264224Y204978D03*
D22*
X264795Y204978D03*
D20*
X279940Y204978D03*
D24*
X286893Y204978D03*
D20*
X290227Y204978D03*
D18*
X291941Y204978D03*
D12*
X301181Y204978D03*
D13*
X312992Y204978D03*
D11*
X255175Y205169D03*
D14*
X256889Y205169D03*
D19*
X264986Y205169D03*
D24*
X280416Y205169D03*
X286893Y205169D03*
D21*
X289751Y205169D03*
D20*
X290989Y205169D03*
D24*
X300609Y205169D03*
D13*
X312992Y205169D03*
D11*
X255175Y205359D03*
D17*
X257080Y205359D03*
D28*
X265843Y205359D03*
D32*
X280321Y205359D03*
D39*
X288322Y205359D03*
D27*
X300038Y205359D03*
D13*
X312992Y205359D03*
D11*
X255365Y205550D03*
D16*
X265748Y205550D03*
D22*
X267272Y205550D03*
D36*
X280321Y205550D03*
D43*
X288417Y205550D03*
D13*
X300609Y205550D03*
D14*
X313087Y205550D03*
D19*
X255461Y205740D03*
D22*
X265367Y205740D03*
D17*
X265843Y205740D03*
D21*
X267653Y205740D03*
D22*
X268415Y205740D03*
D25*
X271082Y205740D03*
D45*
X280226Y205740D03*
D11*
X289274Y205740D03*
D14*
X313087Y205740D03*
D11*
X255556Y205931D03*
D48*
X270701Y205931D03*
D24*
X279845Y205931D03*
D17*
X281845Y205931D03*
D14*
X311563Y205931D03*
X313087Y205931D03*
D19*
X255651Y206121D03*
D48*
X270891Y206121D03*
D27*
X279464Y206121D03*
D22*
X281178Y206121D03*
D19*
X311468Y206121D03*
D14*
X313087Y206121D03*
D11*
X255746Y206312D03*
D22*
X268796Y206312D03*
D29*
X271367Y206312D03*
D14*
X279368Y206312D03*
D28*
X312134Y206312D03*
D19*
X255842Y206502D03*
D15*
X272034Y206502D03*
D17*
X279559Y206502D03*
D27*
X312039Y206502D03*
D11*
X255937Y206693D03*
D27*
X312039Y206693D03*
D19*
X256032Y206883D03*
D20*
X311182Y206883D03*
D13*
X312801Y206883D03*
D19*
X256223Y207074D03*
D17*
X260318Y207074D03*
D13*
X311087Y207074D03*
D21*
X312992Y207074D03*
D19*
X256223Y207264D03*
D14*
X260318Y207264D03*
D13*
X311087Y207264D03*
D20*
X256318Y207455D03*
X260509Y207455D03*
X310991Y207455D03*
D14*
X256318Y207645D03*
D20*
X260699Y207645D03*
D15*
X310896Y207645D03*
D21*
X256413Y207836D03*
D20*
X261080Y207836D03*
D26*
X310610Y207836D03*
D17*
X256508Y208026D03*
D20*
X261271Y208026D03*
D12*
X310706Y208026D03*
D20*
X261461Y208217D03*
D28*
X310801Y208217D03*
D19*
X261747Y208407D03*
D21*
X285750Y208407D03*
D12*
X311087Y208407D03*
D11*
X262033Y208598D03*
D21*
X285750Y208598D03*
D18*
X311563Y208598D03*
D19*
X262319Y208788D03*
D14*
X285655Y208788D03*
D11*
X311753Y208788D03*
D19*
X262700Y208979D03*
D13*
X285750Y208979D03*
D20*
X311944Y208979D03*
X262985Y209169D03*
D13*
X285750Y209169D03*
X312039Y209169D03*
D20*
X263176Y209360D03*
D13*
X285750Y209360D03*
D14*
X312134Y209360D03*
D20*
X263366Y209550D03*
D13*
X285941Y209550D03*
D20*
X263557Y209741D03*
D13*
X286131Y209741D03*
X263843Y209931D03*
X286131Y209931D03*
D21*
X300990Y209931D03*
D13*
X264033Y210122D03*
D14*
X266414Y210122D03*
D13*
X286322Y210122D03*
D21*
X295085Y210122D03*
D14*
X301085Y210122D03*
D13*
X264224Y210312D03*
D20*
X266224Y210312D03*
D13*
X286512Y210312D03*
D18*
X295370Y210312D03*
D13*
X301371Y210312D03*
X264224Y210503D03*
D20*
X266033Y210503D03*
D13*
X286512Y210503D03*
D12*
X295466Y210503D03*
D13*
X301562Y210503D03*
X264414Y210693D03*
D19*
X265748Y210693D03*
D13*
X286703Y210693D03*
D23*
X295751Y210693D03*
D20*
X301657Y210693D03*
D16*
X265176Y210884D03*
D20*
X286988Y210884D03*
D25*
X296037Y210884D03*
D20*
X301847Y210884D03*
D22*
X306705Y210884D03*
D15*
X265176Y211074D03*
D13*
X287274Y211074D03*
D36*
X296323Y211074D03*
D20*
X301847Y211074D03*
D21*
X306705Y211074D03*
D11*
X265081Y211265D03*
D20*
X287369Y211265D03*
D17*
X289084Y211265D03*
D30*
X297085Y211265D03*
D11*
X301847Y211265D03*
D13*
X306896Y211265D03*
D11*
X265081Y211455D03*
D13*
X287465Y211455D03*
D17*
X289084Y211455D03*
D76*
X298704Y211455D03*
D20*
X304133Y211455D03*
X306991Y211455D03*
D19*
X264986Y211646D03*
X287655Y211646D03*
D21*
X289179Y211646D03*
D49*
X298799Y211646D03*
D18*
X304324Y211646D03*
D13*
X307086Y211646D03*
D20*
X264890Y211836D03*
D17*
X269272Y211836D03*
D20*
X287941Y211836D03*
D13*
X289370Y211836D03*
D58*
X298799Y211836D03*
D12*
X304610Y211836D03*
D20*
X307181Y211836D03*
X264890Y212027D03*
D14*
X269081Y212027D03*
D20*
X288131Y212027D03*
X289655Y212027D03*
D48*
X298704Y212027D03*
D28*
X304895Y212027D03*
D20*
X307181Y212027D03*
D13*
X264795Y212217D03*
D14*
X268891Y212217D03*
D17*
X282797Y212217D03*
D19*
X288417Y212217D03*
X289941Y212217D03*
D34*
X298895Y212217D03*
D25*
X306324Y212217D03*
D21*
X264795Y212408D03*
D14*
X268700Y212408D03*
D17*
X282988Y212408D03*
D12*
X289370Y212408D03*
D40*
X299180Y212408D03*
D24*
X306705Y212408D03*
D20*
X268319Y212598D03*
D22*
X269939Y212598D03*
D17*
X282988Y212598D03*
D27*
X289751Y212598D03*
D17*
X292513Y212598D03*
D25*
X300228Y212598D03*
D27*
X307086Y212598D03*
D19*
X268034Y212789D03*
D17*
X269843Y212789D03*
D14*
X283178Y212789D03*
D23*
X290036Y212789D03*
D21*
X292418Y212789D03*
D27*
X300609Y212789D03*
D12*
X307277Y212789D03*
D11*
X267748Y212979D03*
D21*
X269748Y212979D03*
D13*
X283274Y212979D03*
D32*
X290608Y212979D03*
D22*
X294704Y212979D03*
D18*
X300704Y212979D03*
D15*
X307658Y212979D03*
X267462Y213170D03*
D21*
X269748Y213170D03*
D11*
X281083Y213170D03*
D13*
X283464Y213170D03*
D29*
X290798Y213170D03*
D19*
X295085Y213170D03*
D18*
X300323Y213170D03*
D19*
X308039Y213170D03*
X267272Y213360D03*
D14*
X269843Y213360D03*
D18*
X281273Y213360D03*
D20*
X283559Y213360D03*
D25*
X291084Y213360D03*
D18*
X295370Y213360D03*
D21*
X296799Y213360D03*
D18*
X299942Y213360D03*
D13*
X308229Y213360D03*
D19*
X267081Y213551D03*
D14*
X269843Y213551D03*
D26*
X274034Y213551D03*
D28*
X281654Y213551D03*
D11*
X283940Y213551D03*
D20*
X290608Y213551D03*
D12*
X292608Y213551D03*
D39*
X297275Y213551D03*
D22*
X308420Y213551D03*
D19*
X266891Y213741D03*
D13*
X269939Y213741D03*
D23*
X274034Y213741D03*
X281845Y213741D03*
D11*
X284321Y213741D03*
D76*
X296228Y213741D03*
D20*
X266795Y213932D03*
D19*
X270129Y213932D03*
D28*
X273463Y213932D03*
D14*
X275368Y213932D03*
D17*
X278416Y213932D03*
D36*
X283178Y213932D03*
D37*
X296037Y213932D03*
D13*
X266700Y214122D03*
D19*
X270129Y214122D03*
D16*
X272796Y214122D03*
D21*
X275844Y214122D03*
D13*
X278321Y214122D03*
D32*
X283940Y214122D03*
D18*
X294418Y214122D03*
D11*
X297847Y214122D03*
D17*
X266605Y214313D03*
D19*
X270129Y214313D03*
D16*
X272415Y214313D03*
D21*
X276035Y214313D03*
D19*
X278321Y214313D03*
D29*
X284321Y214313D03*
D24*
X271272Y214503D03*
D29*
X277273Y214503D03*
D24*
X284798Y214503D03*
D27*
X271272Y214694D03*
D29*
X277273Y214694D03*
D27*
X285369Y214694D03*
D13*
X288989Y214694D03*
D17*
X289846Y214694D03*
D13*
X291656Y214694D03*
D16*
X271272Y214884D03*
D24*
X277178Y214884D03*
D12*
X285560Y214884D03*
D36*
X290227Y214884D03*
D15*
X271272Y215075D03*
D16*
X276416Y215075D03*
D21*
X278321Y215075D03*
D18*
X285845Y215075D03*
D36*
X290227Y215075D03*
D19*
X271272Y215265D03*
D15*
X276225Y215265D03*
X286131Y215265D03*
D36*
X290227Y215265D03*
D13*
X271272Y215456D03*
D20*
X276130Y215456D03*
D19*
X286512Y215456D03*
D28*
X289655Y215456D03*
D22*
X275844Y215646D03*
D14*
X286607Y215646D03*
D28*
X289465Y215646D03*
D21*
X286703Y215837D03*
D24*
X289179Y215837D03*
D43*
X288417Y216027D03*
D34*
X288036Y216218D03*
D30*
X287369Y216408D03*
D16*
X285750Y216599D03*
D17*
X287179Y216599D03*
D10*
X191770Y48260D02*
X191770Y43180D01*
X189230Y45720D02*
X194310Y45720D01*
X157480Y38100D02*
X157486Y38599D01*
X157504Y39097D01*
X157535Y39595D01*
X157578Y40092D01*
X157633Y40587D01*
X157700Y41082D01*
X157779Y41574D01*
X157870Y42064D01*
X157974Y42552D01*
X158089Y43037D01*
X158216Y43520D01*
X158355Y43999D01*
X158506Y44474D01*
X158668Y44946D01*
X158842Y45413D01*
X159027Y45876D01*
X159223Y46335D01*
X159431Y46788D01*
X159650Y47236D01*
X159879Y47679D01*
X160120Y48116D01*
X160371Y48547D01*
X160633Y48971D01*
X160905Y49389D01*
X161187Y49800D01*
X161479Y50205D01*
X161781Y50602D01*
X162092Y50991D01*
X162414Y51372D01*
X162744Y51746D01*
X163083Y52111D01*
X163432Y52468D01*
X163789Y52817D01*
X164154Y53156D01*
X164528Y53486D01*
X164909Y53808D01*
X165298Y54119D01*
X165695Y54421D01*
X166100Y54713D01*
X166511Y54995D01*
X166929Y55267D01*
X167353Y55529D01*
X167784Y55780D01*
X168221Y56021D01*
X168664Y56250D01*
X169112Y56469D01*
X169565Y56677D01*
X170024Y56873D01*
X170487Y57058D01*
X170954Y57232D01*
X171426Y57394D01*
X171901Y57545D01*
X172380Y57684D01*
X172863Y57811D01*
X173348Y57926D01*
X173836Y58030D01*
X174326Y58121D01*
X174818Y58200D01*
X175313Y58267D01*
X175808Y58322D01*
X176305Y58365D01*
X176803Y58396D01*
X177301Y58414D01*
X177800Y58420D01*
X178299Y58414D01*
X178797Y58396D01*
X179295Y58365D01*
X179792Y58322D01*
X180287Y58267D01*
X180782Y58200D01*
X181274Y58121D01*
X181764Y58030D01*
X182252Y57926D01*
X182737Y57811D01*
X183220Y57684D01*
X183699Y57545D01*
X184174Y57394D01*
X184646Y57232D01*
X185113Y57058D01*
X185576Y56873D01*
X186035Y56677D01*
X186488Y56469D01*
X186936Y56250D01*
X187379Y56021D01*
X187816Y55780D01*
X188247Y55529D01*
X188671Y55267D01*
X189089Y54995D01*
X189500Y54713D01*
X189905Y54421D01*
X190302Y54119D01*
X190691Y53808D01*
X191072Y53486D01*
X191446Y53156D01*
X191811Y52817D01*
X192168Y52468D01*
X192517Y52111D01*
X192856Y51746D01*
X193186Y51372D01*
X193508Y50991D01*
X193819Y50602D01*
X194121Y50205D01*
X194413Y49800D01*
X194695Y49389D01*
X194967Y48971D01*
X195229Y48547D01*
X195480Y48116D01*
X195721Y47679D01*
X195950Y47236D01*
X196169Y46788D01*
X196377Y46335D01*
X196573Y45876D01*
X196758Y45413D01*
X196932Y44946D01*
X197094Y44474D01*
X197245Y43999D01*
X197384Y43520D01*
X197511Y43037D01*
X197626Y42552D01*
X197730Y42064D01*
X197821Y41574D01*
X197900Y41082D01*
X197967Y40587D01*
X198022Y40092D01*
X198065Y39595D01*
X198096Y39097D01*
X198114Y38599D01*
X198120Y38100D01*
X198114Y37601D01*
X198096Y37103D01*
X198065Y36605D01*
X198022Y36108D01*
X197967Y35613D01*
X197900Y35118D01*
X197821Y34626D01*
X197730Y34136D01*
X197626Y33648D01*
X197511Y33163D01*
X197384Y32680D01*
X197245Y32201D01*
X197094Y31726D01*
X196932Y31254D01*
X196758Y30787D01*
X196573Y30324D01*
X196377Y29865D01*
X196169Y29412D01*
X195950Y28964D01*
X195721Y28521D01*
X195480Y28084D01*
X195229Y27653D01*
X194967Y27229D01*
X194695Y26811D01*
X194413Y26400D01*
X194121Y25995D01*
X193819Y25598D01*
X193508Y25209D01*
X193186Y24828D01*
X192856Y24454D01*
X192517Y24089D01*
X192168Y23732D01*
X191811Y23383D01*
X191446Y23044D01*
X191072Y22714D01*
X190691Y22392D01*
X190302Y22081D01*
X189905Y21779D01*
X189500Y21487D01*
X189089Y21205D01*
X188671Y20933D01*
X188247Y20671D01*
X187816Y20420D01*
X187379Y20179D01*
X186936Y19950D01*
X186488Y19731D01*
X186035Y19523D01*
X185576Y19327D01*
X185113Y19142D01*
X184646Y18968D01*
X184174Y18806D01*
X183699Y18655D01*
X183220Y18516D01*
X182737Y18389D01*
X182252Y18274D01*
X181764Y18170D01*
X181274Y18079D01*
X180782Y18000D01*
X180287Y17933D01*
X179792Y17878D01*
X179295Y17835D01*
X178797Y17804D01*
X178299Y17786D01*
X177800Y17780D01*
X177301Y17786D01*
X176803Y17804D01*
X176305Y17835D01*
X175808Y17878D01*
X175313Y17933D01*
X174818Y18000D01*
X174326Y18079D01*
X173836Y18170D01*
X173348Y18274D01*
X172863Y18389D01*
X172380Y18516D01*
X171901Y18655D01*
X171426Y18806D01*
X170954Y18968D01*
X170487Y19142D01*
X170024Y19327D01*
X169565Y19523D01*
X169112Y19731D01*
X168664Y19950D01*
X168221Y20179D01*
X167784Y20420D01*
X167353Y20671D01*
X166929Y20933D01*
X166511Y21205D01*
X166100Y21487D01*
X165695Y21779D01*
X165298Y22081D01*
X164909Y22392D01*
X164528Y22714D01*
X164154Y23044D01*
X163789Y23383D01*
X163432Y23732D01*
X163083Y24089D01*
X162744Y24454D01*
X162414Y24828D01*
X162092Y25209D01*
X161781Y25598D01*
X161479Y25995D01*
X161187Y26400D01*
X160905Y26811D01*
X160633Y27229D01*
X160371Y27653D01*
X160120Y28084D01*
X159879Y28521D01*
X159650Y28964D01*
X159431Y29412D01*
X159223Y29865D01*
X159027Y30324D01*
X158842Y30787D01*
X158668Y31254D01*
X158506Y31726D01*
X158355Y32201D01*
X158216Y32680D01*
X158089Y33163D01*
X157974Y33648D01*
X157870Y34136D01*
X157779Y34626D01*
X157700Y35118D01*
X157633Y35613D01*
X157578Y36108D01*
X157535Y36605D01*
X157504Y37103D01*
X157486Y37601D01*
X157480Y38100D01*
D100*
X220942Y35268D02*
X220942Y32672D01*
X220940Y32573D01*
X220934Y32473D01*
X220925Y32374D01*
X220912Y32276D01*
X220895Y32178D01*
X220874Y32080D01*
X220849Y31984D01*
X220821Y31889D01*
X220789Y31795D01*
X220754Y31702D01*
X220715Y31610D01*
X220672Y31520D01*
X220627Y31432D01*
X220577Y31345D01*
X220525Y31261D01*
X220469Y31178D01*
X220411Y31098D01*
X220349Y31020D01*
X220284Y30945D01*
X220216Y30872D01*
X220146Y30802D01*
X220073Y30734D01*
X219998Y30669D01*
X219920Y30607D01*
X219840Y30549D01*
X219757Y30493D01*
X219673Y30441D01*
X219586Y30391D01*
X219498Y30346D01*
X219408Y30303D01*
X219316Y30264D01*
X219223Y30229D01*
X219129Y30197D01*
X219034Y30169D01*
X218938Y30144D01*
X218840Y30123D01*
X218742Y30106D01*
X218644Y30093D01*
X218545Y30084D01*
X218445Y30078D01*
X218346Y30076D01*
X218346Y30075D02*
X211854Y30075D01*
X211755Y30077D01*
X211655Y30083D01*
X211556Y30092D01*
X211458Y30105D01*
X211360Y30123D01*
X211262Y30143D01*
X211166Y30168D01*
X211070Y30196D01*
X210976Y30228D01*
X210883Y30263D01*
X210792Y30302D01*
X210702Y30345D01*
X210613Y30390D01*
X210527Y30440D01*
X210442Y30492D01*
X210360Y30548D01*
X210280Y30607D01*
X210202Y30668D01*
X210126Y30733D01*
X210053Y30801D01*
X209983Y30871D01*
X209915Y30944D01*
X209850Y31020D01*
X209789Y31098D01*
X209730Y31178D01*
X209674Y31260D01*
X209622Y31345D01*
X209573Y31431D01*
X209527Y31520D01*
X209484Y31610D01*
X209445Y31701D01*
X209410Y31794D01*
X209378Y31888D01*
X209350Y31984D01*
X209325Y32080D01*
X209305Y32178D01*
X209287Y32276D01*
X209274Y32374D01*
X209265Y32473D01*
X209259Y32572D01*
X209257Y32672D01*
X209258Y32672D02*
X209258Y35268D01*
X211854Y39634D02*
X209258Y42879D01*
X220942Y42879D01*
X220942Y39634D02*
X220942Y46125D01*
D10*
X121920Y155702D02*
X121920Y160782D01*
X119380Y158242D02*
X124460Y158242D01*
X87630Y150622D02*
X87636Y151121D01*
X87654Y151619D01*
X87685Y152117D01*
X87728Y152614D01*
X87783Y153109D01*
X87850Y153604D01*
X87929Y154096D01*
X88020Y154586D01*
X88124Y155074D01*
X88239Y155559D01*
X88366Y156042D01*
X88505Y156521D01*
X88656Y156996D01*
X88818Y157468D01*
X88992Y157935D01*
X89177Y158398D01*
X89373Y158857D01*
X89581Y159310D01*
X89800Y159758D01*
X90029Y160201D01*
X90270Y160638D01*
X90521Y161069D01*
X90783Y161493D01*
X91055Y161911D01*
X91337Y162322D01*
X91629Y162727D01*
X91931Y163124D01*
X92242Y163513D01*
X92564Y163894D01*
X92894Y164268D01*
X93233Y164633D01*
X93582Y164990D01*
X93939Y165339D01*
X94304Y165678D01*
X94678Y166008D01*
X95059Y166330D01*
X95448Y166641D01*
X95845Y166943D01*
X96250Y167235D01*
X96661Y167517D01*
X97079Y167789D01*
X97503Y168051D01*
X97934Y168302D01*
X98371Y168543D01*
X98814Y168772D01*
X99262Y168991D01*
X99715Y169199D01*
X100174Y169395D01*
X100637Y169580D01*
X101104Y169754D01*
X101576Y169916D01*
X102051Y170067D01*
X102530Y170206D01*
X103013Y170333D01*
X103498Y170448D01*
X103986Y170552D01*
X104476Y170643D01*
X104968Y170722D01*
X105463Y170789D01*
X105958Y170844D01*
X106455Y170887D01*
X106953Y170918D01*
X107451Y170936D01*
X107950Y170942D01*
X108449Y170936D01*
X108947Y170918D01*
X109445Y170887D01*
X109942Y170844D01*
X110437Y170789D01*
X110932Y170722D01*
X111424Y170643D01*
X111914Y170552D01*
X112402Y170448D01*
X112887Y170333D01*
X113370Y170206D01*
X113849Y170067D01*
X114324Y169916D01*
X114796Y169754D01*
X115263Y169580D01*
X115726Y169395D01*
X116185Y169199D01*
X116638Y168991D01*
X117086Y168772D01*
X117529Y168543D01*
X117966Y168302D01*
X118397Y168051D01*
X118821Y167789D01*
X119239Y167517D01*
X119650Y167235D01*
X120055Y166943D01*
X120452Y166641D01*
X120841Y166330D01*
X121222Y166008D01*
X121596Y165678D01*
X121961Y165339D01*
X122318Y164990D01*
X122667Y164633D01*
X123006Y164268D01*
X123336Y163894D01*
X123658Y163513D01*
X123969Y163124D01*
X124271Y162727D01*
X124563Y162322D01*
X124845Y161911D01*
X125117Y161493D01*
X125379Y161069D01*
X125630Y160638D01*
X125871Y160201D01*
X126100Y159758D01*
X126319Y159310D01*
X126527Y158857D01*
X126723Y158398D01*
X126908Y157935D01*
X127082Y157468D01*
X127244Y156996D01*
X127395Y156521D01*
X127534Y156042D01*
X127661Y155559D01*
X127776Y155074D01*
X127880Y154586D01*
X127971Y154096D01*
X128050Y153604D01*
X128117Y153109D01*
X128172Y152614D01*
X128215Y152117D01*
X128246Y151619D01*
X128264Y151121D01*
X128270Y150622D01*
X128264Y150123D01*
X128246Y149625D01*
X128215Y149127D01*
X128172Y148630D01*
X128117Y148135D01*
X128050Y147640D01*
X127971Y147148D01*
X127880Y146658D01*
X127776Y146170D01*
X127661Y145685D01*
X127534Y145202D01*
X127395Y144723D01*
X127244Y144248D01*
X127082Y143776D01*
X126908Y143309D01*
X126723Y142846D01*
X126527Y142387D01*
X126319Y141934D01*
X126100Y141486D01*
X125871Y141043D01*
X125630Y140606D01*
X125379Y140175D01*
X125117Y139751D01*
X124845Y139333D01*
X124563Y138922D01*
X124271Y138517D01*
X123969Y138120D01*
X123658Y137731D01*
X123336Y137350D01*
X123006Y136976D01*
X122667Y136611D01*
X122318Y136254D01*
X121961Y135905D01*
X121596Y135566D01*
X121222Y135236D01*
X120841Y134914D01*
X120452Y134603D01*
X120055Y134301D01*
X119650Y134009D01*
X119239Y133727D01*
X118821Y133455D01*
X118397Y133193D01*
X117966Y132942D01*
X117529Y132701D01*
X117086Y132472D01*
X116638Y132253D01*
X116185Y132045D01*
X115726Y131849D01*
X115263Y131664D01*
X114796Y131490D01*
X114324Y131328D01*
X113849Y131177D01*
X113370Y131038D01*
X112887Y130911D01*
X112402Y130796D01*
X111914Y130692D01*
X111424Y130601D01*
X110932Y130522D01*
X110437Y130455D01*
X109942Y130400D01*
X109445Y130357D01*
X108947Y130326D01*
X108449Y130308D01*
X107950Y130302D01*
X107451Y130308D01*
X106953Y130326D01*
X106455Y130357D01*
X105958Y130400D01*
X105463Y130455D01*
X104968Y130522D01*
X104476Y130601D01*
X103986Y130692D01*
X103498Y130796D01*
X103013Y130911D01*
X102530Y131038D01*
X102051Y131177D01*
X101576Y131328D01*
X101104Y131490D01*
X100637Y131664D01*
X100174Y131849D01*
X99715Y132045D01*
X99262Y132253D01*
X98814Y132472D01*
X98371Y132701D01*
X97934Y132942D01*
X97503Y133193D01*
X97079Y133455D01*
X96661Y133727D01*
X96250Y134009D01*
X95845Y134301D01*
X95448Y134603D01*
X95059Y134914D01*
X94678Y135236D01*
X94304Y135566D01*
X93939Y135905D01*
X93582Y136254D01*
X93233Y136611D01*
X92894Y136976D01*
X92564Y137350D01*
X92242Y137731D01*
X91931Y138120D01*
X91629Y138517D01*
X91337Y138922D01*
X91055Y139333D01*
X90783Y139751D01*
X90521Y140175D01*
X90270Y140606D01*
X90029Y141043D01*
X89800Y141486D01*
X89581Y141934D01*
X89373Y142387D01*
X89177Y142846D01*
X88992Y143309D01*
X88818Y143776D01*
X88656Y144248D01*
X88505Y144723D01*
X88366Y145202D01*
X88239Y145685D01*
X88124Y146170D01*
X88020Y146658D01*
X87929Y147148D01*
X87850Y147640D01*
X87783Y148135D01*
X87728Y148630D01*
X87685Y149127D01*
X87654Y149625D01*
X87636Y150123D01*
X87630Y150622D01*
D101*
X114681Y123726D02*
X114681Y122654D01*
X114679Y122589D01*
X114673Y122525D01*
X114663Y122461D01*
X114650Y122397D01*
X114632Y122335D01*
X114611Y122274D01*
X114587Y122214D01*
X114558Y122156D01*
X114526Y122099D01*
X114491Y122045D01*
X114453Y121993D01*
X114411Y121943D01*
X114367Y121896D01*
X114320Y121852D01*
X114270Y121810D01*
X114218Y121772D01*
X114164Y121737D01*
X114107Y121705D01*
X114049Y121676D01*
X113989Y121652D01*
X113928Y121631D01*
X113866Y121613D01*
X113802Y121600D01*
X113738Y121590D01*
X113674Y121584D01*
X113609Y121582D01*
X113609Y121581D02*
X110927Y121581D01*
X110862Y121583D01*
X110798Y121589D01*
X110734Y121599D01*
X110670Y121612D01*
X110608Y121630D01*
X110547Y121651D01*
X110487Y121676D01*
X110428Y121704D01*
X110372Y121736D01*
X110317Y121771D01*
X110265Y121809D01*
X110215Y121851D01*
X110168Y121895D01*
X110124Y121942D01*
X110082Y121992D01*
X110044Y122044D01*
X110009Y122099D01*
X109977Y122155D01*
X109949Y122214D01*
X109924Y122273D01*
X109903Y122335D01*
X109885Y122397D01*
X109872Y122461D01*
X109862Y122525D01*
X109856Y122589D01*
X109854Y122654D01*
X109855Y122654D02*
X109855Y123726D01*
X114681Y126182D02*
X114681Y127522D01*
X114679Y127593D01*
X114673Y127665D01*
X114664Y127735D01*
X114651Y127805D01*
X114634Y127875D01*
X114613Y127943D01*
X114589Y128010D01*
X114561Y128076D01*
X114530Y128140D01*
X114495Y128203D01*
X114457Y128263D01*
X114416Y128322D01*
X114372Y128378D01*
X114325Y128432D01*
X114276Y128483D01*
X114223Y128531D01*
X114168Y128577D01*
X114111Y128619D01*
X114051Y128659D01*
X113990Y128695D01*
X113926Y128728D01*
X113861Y128757D01*
X113795Y128783D01*
X113727Y128806D01*
X113658Y128825D01*
X113588Y128840D01*
X113518Y128851D01*
X113447Y128859D01*
X113376Y128863D01*
X113304Y128863D01*
X113233Y128859D01*
X113162Y128851D01*
X113092Y128840D01*
X113022Y128825D01*
X112953Y128806D01*
X112885Y128783D01*
X112819Y128757D01*
X112754Y128728D01*
X112690Y128695D01*
X112629Y128659D01*
X112569Y128619D01*
X112512Y128577D01*
X112457Y128531D01*
X112404Y128483D01*
X112355Y128432D01*
X112308Y128378D01*
X112264Y128322D01*
X112223Y128263D01*
X112185Y128203D01*
X112150Y128140D01*
X112119Y128076D01*
X112091Y128010D01*
X112067Y127943D01*
X112046Y127875D01*
X112029Y127805D01*
X112016Y127735D01*
X112007Y127665D01*
X112001Y127593D01*
X111999Y127522D01*
X109855Y127790D02*
X109855Y126182D01*
X109855Y127790D02*
X109857Y127855D01*
X109863Y127919D01*
X109873Y127983D01*
X109886Y128047D01*
X109904Y128109D01*
X109925Y128170D01*
X109949Y128230D01*
X109978Y128288D01*
X110010Y128345D01*
X110045Y128399D01*
X110083Y128451D01*
X110125Y128501D01*
X110169Y128548D01*
X110216Y128592D01*
X110266Y128634D01*
X110318Y128672D01*
X110372Y128707D01*
X110429Y128739D01*
X110487Y128768D01*
X110547Y128792D01*
X110608Y128813D01*
X110670Y128831D01*
X110734Y128844D01*
X110798Y128854D01*
X110862Y128860D01*
X110927Y128862D01*
X110992Y128860D01*
X111056Y128854D01*
X111120Y128844D01*
X111184Y128831D01*
X111246Y128813D01*
X111307Y128792D01*
X111367Y128768D01*
X111425Y128739D01*
X111482Y128707D01*
X111536Y128672D01*
X111588Y128634D01*
X111638Y128592D01*
X111685Y128548D01*
X111729Y128501D01*
X111771Y128451D01*
X111809Y128399D01*
X111844Y128345D01*
X111876Y128288D01*
X111905Y128230D01*
X111929Y128170D01*
X111950Y128109D01*
X111968Y128047D01*
X111981Y127983D01*
X111991Y127919D01*
X111997Y127855D01*
X111999Y127790D01*
X112000Y127790D02*
X112000Y126718D01*
D102*
X120650Y25400D02*
X82550Y25400D01*
D103*
X81934Y25874D01*
X81329Y26363D01*
X80737Y26867D01*
X80157Y27385D01*
X79590Y27917D01*
X79036Y28463D01*
X78496Y29022D01*
X77970Y29595D01*
X77457Y30180D01*
X76960Y30777D01*
X76477Y31386D01*
X76009Y32007D01*
X75556Y32640D01*
X75119Y33283D01*
X74698Y33937D01*
X74294Y34601D01*
X73905Y35274D01*
X73533Y35957D01*
X73178Y36649D01*
X72840Y37349D01*
X72519Y38057D01*
X72216Y38773D01*
X71930Y39497D01*
X71662Y40226D01*
X71412Y40963D01*
X71181Y41705D01*
X70967Y42453D01*
X70772Y43205D01*
X70595Y43963D01*
X70437Y44724D01*
X70297Y45489D01*
X70177Y46257D01*
X70075Y47028D01*
X69992Y47801D01*
X69928Y48576D01*
X69883Y49352D01*
X69857Y50129D01*
X69850Y50907D01*
X69862Y51684D01*
X69893Y52461D01*
X69944Y53237D01*
X70013Y54012D01*
X70101Y54784D01*
X70208Y55554D01*
X70334Y56322D01*
X70478Y57086D01*
X70642Y57846D01*
X70824Y58602D01*
X71024Y59353D01*
X71242Y60100D01*
X71479Y60840D01*
X71734Y61575D01*
X72007Y62303D01*
X72298Y63024D01*
X72606Y63738D01*
X72931Y64444D01*
X73274Y65142D01*
X73634Y65832D01*
X74010Y66512D01*
X74403Y67183D01*
X74813Y67844D01*
X75238Y68495D01*
X75679Y69135D01*
X76136Y69764D01*
X76608Y70382D01*
X77095Y70988D01*
X77597Y71582D01*
X78113Y72164D01*
X78643Y72733D01*
X79187Y73288D01*
X79745Y73831D01*
X80315Y74359D01*
X80898Y74873D01*
X81494Y75373D01*
X82102Y75858D01*
X82721Y76328D01*
X83352Y76782D01*
X83994Y77221D01*
X84646Y77645D01*
X85309Y78052D01*
X85981Y78443D01*
X86663Y78817D01*
X87353Y79174D01*
X88052Y79514D01*
X88760Y79838D01*
X89474Y80143D01*
X90197Y80432D01*
X90926Y80702D01*
X91661Y80954D01*
X92403Y81189D01*
X93150Y81405D01*
X93902Y81603D01*
X94658Y81782D01*
X95419Y81943D01*
X96183Y82085D01*
X96951Y82208D01*
X97722Y82312D01*
X98495Y82398D01*
X99269Y82464D01*
X100045Y82512D01*
X100822Y82540D01*
X101600Y82550D01*
X102378Y82540D01*
X103155Y82512D01*
X103931Y82464D01*
X104705Y82398D01*
X105478Y82312D01*
X106249Y82208D01*
X107017Y82085D01*
X107781Y81943D01*
X108542Y81782D01*
X109298Y81603D01*
X110050Y81405D01*
X110797Y81189D01*
X111539Y80954D01*
X112274Y80702D01*
X113003Y80432D01*
X113726Y80143D01*
X114440Y79838D01*
X115148Y79514D01*
X115847Y79174D01*
X116537Y78817D01*
X117219Y78443D01*
X117891Y78052D01*
X118554Y77645D01*
X119206Y77221D01*
X119848Y76782D01*
X120479Y76328D01*
X121098Y75858D01*
X121706Y75373D01*
X122302Y74873D01*
X122885Y74359D01*
X123455Y73831D01*
X124013Y73288D01*
X124557Y72733D01*
X125087Y72164D01*
X125603Y71582D01*
X126105Y70988D01*
X126592Y70382D01*
X127064Y69764D01*
X127521Y69135D01*
X127962Y68495D01*
X128387Y67844D01*
X128797Y67183D01*
X129190Y66512D01*
X129566Y65832D01*
X129926Y65142D01*
X130269Y64444D01*
X130594Y63738D01*
X130902Y63024D01*
X131193Y62303D01*
X131466Y61575D01*
X131721Y60840D01*
X131958Y60100D01*
X132176Y59353D01*
X132376Y58602D01*
X132558Y57846D01*
X132722Y57086D01*
X132866Y56322D01*
X132992Y55554D01*
X133099Y54784D01*
X133187Y54012D01*
X133256Y53237D01*
X133307Y52461D01*
X133338Y51684D01*
X133350Y50907D01*
X133343Y50129D01*
X133317Y49352D01*
X133272Y48576D01*
X133208Y47801D01*
X133125Y47028D01*
X133023Y46257D01*
X132903Y45489D01*
X132763Y44724D01*
X132605Y43963D01*
X132428Y43205D01*
X132233Y42453D01*
X132019Y41705D01*
X131788Y40963D01*
X131538Y40226D01*
X131270Y39497D01*
X130984Y38773D01*
X130681Y38057D01*
X130360Y37349D01*
X130022Y36649D01*
X129667Y35957D01*
X129295Y35274D01*
X128906Y34601D01*
X128502Y33937D01*
X128081Y33283D01*
X127644Y32640D01*
X127191Y32007D01*
X126723Y31386D01*
X126240Y30777D01*
X125743Y30180D01*
X125230Y29595D01*
X124704Y29022D01*
X124164Y28463D01*
X123610Y27917D01*
X123043Y27385D01*
X122463Y26867D01*
X121871Y26363D01*
X121266Y25874D01*
X120650Y25400D01*
D10*
X76200Y50800D02*
X76208Y51423D01*
X76231Y52046D01*
X76269Y52669D01*
X76322Y53290D01*
X76391Y53909D01*
X76475Y54527D01*
X76574Y55142D01*
X76688Y55755D01*
X76817Y56365D01*
X76961Y56972D01*
X77120Y57575D01*
X77294Y58173D01*
X77482Y58768D01*
X77685Y59357D01*
X77902Y59941D01*
X78133Y60520D01*
X78379Y61093D01*
X78639Y61660D01*
X78912Y62220D01*
X79199Y62773D01*
X79500Y63320D01*
X79814Y63858D01*
X80141Y64389D01*
X80481Y64911D01*
X80833Y65426D01*
X81199Y65931D01*
X81576Y66427D01*
X81966Y66914D01*
X82367Y67391D01*
X82780Y67858D01*
X83204Y68314D01*
X83639Y68761D01*
X84086Y69196D01*
X84542Y69620D01*
X85009Y70033D01*
X85486Y70434D01*
X85973Y70824D01*
X86469Y71201D01*
X86974Y71567D01*
X87489Y71919D01*
X88011Y72259D01*
X88542Y72586D01*
X89080Y72900D01*
X89627Y73201D01*
X90180Y73488D01*
X90740Y73761D01*
X91307Y74021D01*
X91880Y74267D01*
X92459Y74498D01*
X93043Y74715D01*
X93632Y74918D01*
X94227Y75106D01*
X94825Y75280D01*
X95428Y75439D01*
X96035Y75583D01*
X96645Y75712D01*
X97258Y75826D01*
X97873Y75925D01*
X98491Y76009D01*
X99110Y76078D01*
X99731Y76131D01*
X100354Y76169D01*
X100977Y76192D01*
X101600Y76200D01*
X102223Y76192D01*
X102846Y76169D01*
X103469Y76131D01*
X104090Y76078D01*
X104709Y76009D01*
X105327Y75925D01*
X105942Y75826D01*
X106555Y75712D01*
X107165Y75583D01*
X107772Y75439D01*
X108375Y75280D01*
X108973Y75106D01*
X109568Y74918D01*
X110157Y74715D01*
X110741Y74498D01*
X111320Y74267D01*
X111893Y74021D01*
X112460Y73761D01*
X113020Y73488D01*
X113573Y73201D01*
X114120Y72900D01*
X114658Y72586D01*
X115189Y72259D01*
X115711Y71919D01*
X116226Y71567D01*
X116731Y71201D01*
X117227Y70824D01*
X117714Y70434D01*
X118191Y70033D01*
X118658Y69620D01*
X119114Y69196D01*
X119561Y68761D01*
X119996Y68314D01*
X120420Y67858D01*
X120833Y67391D01*
X121234Y66914D01*
X121624Y66427D01*
X122001Y65931D01*
X122367Y65426D01*
X122719Y64911D01*
X123059Y64389D01*
X123386Y63858D01*
X123700Y63320D01*
X124001Y62773D01*
X124288Y62220D01*
X124561Y61660D01*
X124821Y61093D01*
X125067Y60520D01*
X125298Y59941D01*
X125515Y59357D01*
X125718Y58768D01*
X125906Y58173D01*
X126080Y57575D01*
X126239Y56972D01*
X126383Y56365D01*
X126512Y55755D01*
X126626Y55142D01*
X126725Y54527D01*
X126809Y53909D01*
X126878Y53290D01*
X126931Y52669D01*
X126969Y52046D01*
X126992Y51423D01*
X127000Y50800D01*
X126992Y50177D01*
X126969Y49554D01*
X126931Y48931D01*
X126878Y48310D01*
X126809Y47691D01*
X126725Y47073D01*
X126626Y46458D01*
X126512Y45845D01*
X126383Y45235D01*
X126239Y44628D01*
X126080Y44025D01*
X125906Y43427D01*
X125718Y42832D01*
X125515Y42243D01*
X125298Y41659D01*
X125067Y41080D01*
X124821Y40507D01*
X124561Y39940D01*
X124288Y39380D01*
X124001Y38827D01*
X123700Y38280D01*
X123386Y37742D01*
X123059Y37211D01*
X122719Y36689D01*
X122367Y36174D01*
X122001Y35669D01*
X121624Y35173D01*
X121234Y34686D01*
X120833Y34209D01*
X120420Y33742D01*
X119996Y33286D01*
X119561Y32839D01*
X119114Y32404D01*
X118658Y31980D01*
X118191Y31567D01*
X117714Y31166D01*
X117227Y30776D01*
X116731Y30399D01*
X116226Y30033D01*
X115711Y29681D01*
X115189Y29341D01*
X114658Y29014D01*
X114120Y28700D01*
X113573Y28399D01*
X113020Y28112D01*
X112460Y27839D01*
X111893Y27579D01*
X111320Y27333D01*
X110741Y27102D01*
X110157Y26885D01*
X109568Y26682D01*
X108973Y26494D01*
X108375Y26320D01*
X107772Y26161D01*
X107165Y26017D01*
X106555Y25888D01*
X105942Y25774D01*
X105327Y25675D01*
X104709Y25591D01*
X104090Y25522D01*
X103469Y25469D01*
X102846Y25431D01*
X102223Y25408D01*
X101600Y25400D01*
X100977Y25408D01*
X100354Y25431D01*
X99731Y25469D01*
X99110Y25522D01*
X98491Y25591D01*
X97873Y25675D01*
X97258Y25774D01*
X96645Y25888D01*
X96035Y26017D01*
X95428Y26161D01*
X94825Y26320D01*
X94227Y26494D01*
X93632Y26682D01*
X93043Y26885D01*
X92459Y27102D01*
X91880Y27333D01*
X91307Y27579D01*
X90740Y27839D01*
X90180Y28112D01*
X89627Y28399D01*
X89080Y28700D01*
X88542Y29014D01*
X88011Y29341D01*
X87489Y29681D01*
X86974Y30033D01*
X86469Y30399D01*
X85973Y30776D01*
X85486Y31166D01*
X85009Y31567D01*
X84542Y31980D01*
X84086Y32404D01*
X83639Y32839D01*
X83204Y33286D01*
X82780Y33742D01*
X82367Y34209D01*
X81966Y34686D01*
X81576Y35173D01*
X81199Y35669D01*
X80833Y36174D01*
X80481Y36689D01*
X80141Y37211D01*
X79814Y37742D01*
X79500Y38280D01*
X79199Y38827D01*
X78912Y39380D01*
X78639Y39940D01*
X78379Y40507D01*
X78133Y41080D01*
X77902Y41659D01*
X77685Y42243D01*
X77482Y42832D01*
X77294Y43427D01*
X77120Y44025D01*
X76961Y44628D01*
X76817Y45235D01*
X76688Y45845D01*
X76574Y46458D01*
X76475Y47073D01*
X76391Y47691D01*
X76322Y48310D01*
X76269Y48931D01*
X76231Y49554D01*
X76208Y50177D01*
X76200Y50800D01*
D101*
X136144Y46625D02*
X140970Y46625D01*
X136144Y46625D02*
X136144Y47965D01*
X136146Y48035D01*
X136151Y48105D01*
X136161Y48175D01*
X136173Y48244D01*
X136190Y48312D01*
X136210Y48379D01*
X136233Y48446D01*
X136260Y48510D01*
X136290Y48574D01*
X136324Y48636D01*
X136360Y48695D01*
X136400Y48753D01*
X136443Y48809D01*
X136488Y48862D01*
X136537Y48913D01*
X136588Y48962D01*
X136641Y49007D01*
X136697Y49050D01*
X136755Y49090D01*
X136815Y49126D01*
X136876Y49160D01*
X136940Y49190D01*
X137004Y49217D01*
X137071Y49240D01*
X137138Y49260D01*
X137206Y49277D01*
X137275Y49289D01*
X137345Y49299D01*
X137415Y49304D01*
X137485Y49306D01*
X139629Y49306D01*
X139699Y49304D01*
X139769Y49299D01*
X139839Y49289D01*
X139908Y49277D01*
X139976Y49260D01*
X140043Y49240D01*
X140110Y49217D01*
X140174Y49190D01*
X140238Y49160D01*
X140300Y49126D01*
X140359Y49090D01*
X140417Y49050D01*
X140473Y49007D01*
X140526Y48962D01*
X140577Y48913D01*
X140626Y48862D01*
X140671Y48809D01*
X140714Y48753D01*
X140754Y48695D01*
X140790Y48635D01*
X140824Y48574D01*
X140854Y48510D01*
X140881Y48446D01*
X140904Y48379D01*
X140924Y48312D01*
X140941Y48244D01*
X140953Y48175D01*
X140963Y48105D01*
X140968Y48035D01*
X140970Y47965D01*
X140970Y46625D01*
X140970Y52294D02*
X140970Y53635D01*
X140968Y53706D01*
X140962Y53778D01*
X140953Y53848D01*
X140940Y53918D01*
X140923Y53988D01*
X140902Y54056D01*
X140878Y54123D01*
X140850Y54189D01*
X140819Y54253D01*
X140784Y54316D01*
X140746Y54376D01*
X140705Y54435D01*
X140661Y54491D01*
X140614Y54545D01*
X140565Y54596D01*
X140512Y54644D01*
X140457Y54690D01*
X140400Y54732D01*
X140340Y54772D01*
X140279Y54808D01*
X140215Y54841D01*
X140150Y54870D01*
X140084Y54896D01*
X140016Y54919D01*
X139947Y54938D01*
X139877Y54953D01*
X139807Y54964D01*
X139736Y54972D01*
X139665Y54976D01*
X139593Y54976D01*
X139522Y54972D01*
X139451Y54964D01*
X139381Y54953D01*
X139311Y54938D01*
X139242Y54919D01*
X139174Y54896D01*
X139108Y54870D01*
X139043Y54841D01*
X138979Y54808D01*
X138918Y54772D01*
X138858Y54732D01*
X138801Y54690D01*
X138746Y54644D01*
X138693Y54596D01*
X138644Y54545D01*
X138597Y54491D01*
X138553Y54435D01*
X138512Y54376D01*
X138474Y54316D01*
X138439Y54253D01*
X138408Y54189D01*
X138380Y54123D01*
X138356Y54056D01*
X138335Y53988D01*
X138318Y53918D01*
X138305Y53848D01*
X138296Y53778D01*
X138290Y53706D01*
X138288Y53635D01*
X136144Y53903D02*
X136144Y52294D01*
X136144Y53903D02*
X136146Y53968D01*
X136152Y54032D01*
X136162Y54096D01*
X136175Y54160D01*
X136193Y54222D01*
X136214Y54283D01*
X136238Y54343D01*
X136267Y54401D01*
X136299Y54458D01*
X136334Y54512D01*
X136372Y54564D01*
X136414Y54614D01*
X136458Y54661D01*
X136505Y54705D01*
X136555Y54747D01*
X136607Y54785D01*
X136661Y54820D01*
X136718Y54852D01*
X136776Y54881D01*
X136836Y54905D01*
X136897Y54926D01*
X136959Y54944D01*
X137023Y54957D01*
X137087Y54967D01*
X137151Y54973D01*
X137216Y54975D01*
X137281Y54973D01*
X137345Y54967D01*
X137409Y54957D01*
X137473Y54944D01*
X137535Y54926D01*
X137596Y54905D01*
X137656Y54881D01*
X137714Y54852D01*
X137771Y54820D01*
X137825Y54785D01*
X137877Y54747D01*
X137927Y54705D01*
X137974Y54661D01*
X138018Y54614D01*
X138060Y54564D01*
X138098Y54512D01*
X138133Y54458D01*
X138165Y54401D01*
X138194Y54343D01*
X138218Y54283D01*
X138239Y54222D01*
X138257Y54160D01*
X138270Y54096D01*
X138280Y54032D01*
X138286Y53968D01*
X138288Y53903D01*
X138289Y53903D02*
X138289Y52830D01*
D104*
X152400Y86430D03*
D105*
X142930Y106700D02*
X139700Y106700D01*
X139700Y172700D01*
X142930Y172700D01*
X238070Y106700D02*
X241300Y106700D01*
X241300Y172700D01*
X238070Y172700D01*
D100*
X245089Y123381D02*
X245089Y111697D01*
X243791Y111697D02*
X246387Y111697D01*
X246387Y123381D02*
X243791Y123381D01*
X253551Y111697D02*
X256147Y111697D01*
X253551Y111697D02*
X253452Y111699D01*
X253352Y111705D01*
X253253Y111714D01*
X253155Y111727D01*
X253057Y111744D01*
X252959Y111765D01*
X252863Y111790D01*
X252768Y111818D01*
X252674Y111850D01*
X252581Y111885D01*
X252489Y111924D01*
X252399Y111967D01*
X252311Y112012D01*
X252224Y112062D01*
X252140Y112114D01*
X252057Y112170D01*
X251977Y112228D01*
X251899Y112290D01*
X251824Y112355D01*
X251751Y112423D01*
X251681Y112493D01*
X251613Y112566D01*
X251548Y112641D01*
X251486Y112719D01*
X251428Y112799D01*
X251372Y112882D01*
X251320Y112966D01*
X251270Y113053D01*
X251225Y113141D01*
X251182Y113231D01*
X251143Y113323D01*
X251108Y113416D01*
X251076Y113510D01*
X251048Y113605D01*
X251023Y113701D01*
X251002Y113799D01*
X250985Y113897D01*
X250972Y113995D01*
X250963Y114094D01*
X250957Y114194D01*
X250955Y114293D01*
X250954Y114293D02*
X250954Y120784D01*
X250955Y120784D02*
X250957Y120883D01*
X250963Y120983D01*
X250972Y121082D01*
X250985Y121180D01*
X251002Y121278D01*
X251023Y121376D01*
X251048Y121472D01*
X251076Y121567D01*
X251108Y121661D01*
X251143Y121754D01*
X251182Y121846D01*
X251225Y121936D01*
X251270Y122024D01*
X251320Y122111D01*
X251372Y122195D01*
X251428Y122278D01*
X251486Y122358D01*
X251548Y122436D01*
X251613Y122511D01*
X251681Y122584D01*
X251751Y122654D01*
X251824Y122722D01*
X251899Y122787D01*
X251977Y122849D01*
X252057Y122907D01*
X252140Y122963D01*
X252224Y123015D01*
X252311Y123065D01*
X252399Y123110D01*
X252489Y123153D01*
X252581Y123192D01*
X252673Y123227D01*
X252768Y123259D01*
X252863Y123287D01*
X252959Y123312D01*
X253057Y123333D01*
X253155Y123350D01*
X253253Y123363D01*
X253352Y123372D01*
X253452Y123378D01*
X253551Y123380D01*
X253551Y123381D02*
X256147Y123381D01*
X260512Y120784D02*
X263758Y123381D01*
X263758Y111697D01*
X267003Y111697D02*
X260512Y111697D01*
D106*
X71500Y98200D02*
X71500Y201800D01*
X71500Y98200D02*
X1600Y98200D01*
X4400Y92200D01*
X-8100Y92200D01*
X-5500Y98200D01*
X-11500Y98200D01*
X-11500Y201800D01*
X42900Y201800D01*
X40300Y207800D01*
X52600Y207800D01*
X50000Y201800D01*
X71500Y201800D01*
D107*
X46000Y187000D02*
X46002Y187063D01*
X46008Y187125D01*
X46018Y187187D01*
X46031Y187249D01*
X46049Y187309D01*
X46070Y187368D01*
X46095Y187426D01*
X46124Y187482D01*
X46156Y187536D01*
X46191Y187588D01*
X46229Y187637D01*
X46271Y187685D01*
X46315Y187729D01*
X46363Y187771D01*
X46412Y187809D01*
X46464Y187844D01*
X46518Y187876D01*
X46574Y187905D01*
X46632Y187930D01*
X46691Y187951D01*
X46751Y187969D01*
X46813Y187982D01*
X46875Y187992D01*
X46937Y187998D01*
X47000Y188000D01*
X47063Y187998D01*
X47125Y187992D01*
X47187Y187982D01*
X47249Y187969D01*
X47309Y187951D01*
X47368Y187930D01*
X47426Y187905D01*
X47482Y187876D01*
X47536Y187844D01*
X47588Y187809D01*
X47637Y187771D01*
X47685Y187729D01*
X47729Y187685D01*
X47771Y187637D01*
X47809Y187588D01*
X47844Y187536D01*
X47876Y187482D01*
X47905Y187426D01*
X47930Y187368D01*
X47951Y187309D01*
X47969Y187249D01*
X47982Y187187D01*
X47992Y187125D01*
X47998Y187063D01*
X48000Y187000D01*
X47998Y186937D01*
X47992Y186875D01*
X47982Y186813D01*
X47969Y186751D01*
X47951Y186691D01*
X47930Y186632D01*
X47905Y186574D01*
X47876Y186518D01*
X47844Y186464D01*
X47809Y186412D01*
X47771Y186363D01*
X47729Y186315D01*
X47685Y186271D01*
X47637Y186229D01*
X47588Y186191D01*
X47536Y186156D01*
X47482Y186124D01*
X47426Y186095D01*
X47368Y186070D01*
X47309Y186049D01*
X47249Y186031D01*
X47187Y186018D01*
X47125Y186008D01*
X47063Y186002D01*
X47000Y186000D01*
X46937Y186002D01*
X46875Y186008D01*
X46813Y186018D01*
X46751Y186031D01*
X46691Y186049D01*
X46632Y186070D01*
X46574Y186095D01*
X46518Y186124D01*
X46464Y186156D01*
X46412Y186191D01*
X46363Y186229D01*
X46315Y186271D01*
X46271Y186315D01*
X46229Y186363D01*
X46191Y186412D01*
X46156Y186464D01*
X46124Y186518D01*
X46095Y186574D01*
X46070Y186632D01*
X46049Y186691D01*
X46031Y186751D01*
X46018Y186813D01*
X46008Y186875D01*
X46002Y186937D01*
X46000Y187000D01*
D106*
X328500Y201800D02*
X328500Y98200D01*
X328500Y201800D02*
X398400Y201800D01*
X395600Y207800D01*
X408100Y207800D01*
X405500Y201800D01*
X411500Y201800D01*
X411500Y98200D01*
X357100Y98200D01*
X359700Y92200D01*
X347400Y92200D01*
X350000Y98200D01*
X328500Y98200D01*
D107*
X352000Y113000D02*
X352002Y113063D01*
X352008Y113125D01*
X352018Y113187D01*
X352031Y113249D01*
X352049Y113309D01*
X352070Y113368D01*
X352095Y113426D01*
X352124Y113482D01*
X352156Y113536D01*
X352191Y113588D01*
X352229Y113637D01*
X352271Y113685D01*
X352315Y113729D01*
X352363Y113771D01*
X352412Y113809D01*
X352464Y113844D01*
X352518Y113876D01*
X352574Y113905D01*
X352632Y113930D01*
X352691Y113951D01*
X352751Y113969D01*
X352813Y113982D01*
X352875Y113992D01*
X352937Y113998D01*
X353000Y114000D01*
X353063Y113998D01*
X353125Y113992D01*
X353187Y113982D01*
X353249Y113969D01*
X353309Y113951D01*
X353368Y113930D01*
X353426Y113905D01*
X353482Y113876D01*
X353536Y113844D01*
X353588Y113809D01*
X353637Y113771D01*
X353685Y113729D01*
X353729Y113685D01*
X353771Y113637D01*
X353809Y113588D01*
X353844Y113536D01*
X353876Y113482D01*
X353905Y113426D01*
X353930Y113368D01*
X353951Y113309D01*
X353969Y113249D01*
X353982Y113187D01*
X353992Y113125D01*
X353998Y113063D01*
X354000Y113000D01*
X353998Y112937D01*
X353992Y112875D01*
X353982Y112813D01*
X353969Y112751D01*
X353951Y112691D01*
X353930Y112632D01*
X353905Y112574D01*
X353876Y112518D01*
X353844Y112464D01*
X353809Y112412D01*
X353771Y112363D01*
X353729Y112315D01*
X353685Y112271D01*
X353637Y112229D01*
X353588Y112191D01*
X353536Y112156D01*
X353482Y112124D01*
X353426Y112095D01*
X353368Y112070D01*
X353309Y112049D01*
X353249Y112031D01*
X353187Y112018D01*
X353125Y112008D01*
X353063Y112002D01*
X353000Y112000D01*
X352937Y112002D01*
X352875Y112008D01*
X352813Y112018D01*
X352751Y112031D01*
X352691Y112049D01*
X352632Y112070D01*
X352574Y112095D01*
X352518Y112124D01*
X352464Y112156D01*
X352412Y112191D01*
X352363Y112229D01*
X352315Y112271D01*
X352271Y112315D01*
X352229Y112363D01*
X352191Y112412D01*
X352156Y112464D01*
X352124Y112518D01*
X352095Y112574D01*
X352070Y112632D01*
X352049Y112691D01*
X352031Y112751D01*
X352018Y112813D01*
X352008Y112875D01*
X352002Y112937D01*
X352000Y113000D01*
D106*
X277200Y228500D02*
X122800Y228500D01*
X122800Y298400D01*
X116800Y295600D01*
X116800Y308100D01*
X122800Y305500D01*
X122800Y311500D01*
X277200Y311500D01*
X277200Y257100D01*
X283200Y259700D01*
X283200Y247400D01*
X277200Y250000D01*
X277200Y228500D01*
D107*
X261400Y253000D02*
X261402Y253063D01*
X261408Y253125D01*
X261418Y253187D01*
X261431Y253249D01*
X261449Y253309D01*
X261470Y253368D01*
X261495Y253426D01*
X261524Y253482D01*
X261556Y253536D01*
X261591Y253588D01*
X261629Y253637D01*
X261671Y253685D01*
X261715Y253729D01*
X261763Y253771D01*
X261812Y253809D01*
X261864Y253844D01*
X261918Y253876D01*
X261974Y253905D01*
X262032Y253930D01*
X262091Y253951D01*
X262151Y253969D01*
X262213Y253982D01*
X262275Y253992D01*
X262337Y253998D01*
X262400Y254000D01*
X262463Y253998D01*
X262525Y253992D01*
X262587Y253982D01*
X262649Y253969D01*
X262709Y253951D01*
X262768Y253930D01*
X262826Y253905D01*
X262882Y253876D01*
X262936Y253844D01*
X262988Y253809D01*
X263037Y253771D01*
X263085Y253729D01*
X263129Y253685D01*
X263171Y253637D01*
X263209Y253588D01*
X263244Y253536D01*
X263276Y253482D01*
X263305Y253426D01*
X263330Y253368D01*
X263351Y253309D01*
X263369Y253249D01*
X263382Y253187D01*
X263392Y253125D01*
X263398Y253063D01*
X263400Y253000D01*
X263398Y252937D01*
X263392Y252875D01*
X263382Y252813D01*
X263369Y252751D01*
X263351Y252691D01*
X263330Y252632D01*
X263305Y252574D01*
X263276Y252518D01*
X263244Y252464D01*
X263209Y252412D01*
X263171Y252363D01*
X263129Y252315D01*
X263085Y252271D01*
X263037Y252229D01*
X262988Y252191D01*
X262936Y252156D01*
X262882Y252124D01*
X262826Y252095D01*
X262768Y252070D01*
X262709Y252049D01*
X262649Y252031D01*
X262587Y252018D01*
X262525Y252008D01*
X262463Y252002D01*
X262400Y252000D01*
X262337Y252002D01*
X262275Y252008D01*
X262213Y252018D01*
X262151Y252031D01*
X262091Y252049D01*
X262032Y252070D01*
X261974Y252095D01*
X261918Y252124D01*
X261864Y252156D01*
X261812Y252191D01*
X261763Y252229D01*
X261715Y252271D01*
X261671Y252315D01*
X261629Y252363D01*
X261591Y252412D01*
X261556Y252464D01*
X261524Y252518D01*
X261495Y252574D01*
X261470Y252632D01*
X261449Y252691D01*
X261431Y252751D01*
X261418Y252813D01*
X261408Y252875D01*
X261402Y252937D01*
X261400Y253000D01*
D101*
X295909Y55254D02*
X295405Y54867D01*
X294892Y54491D01*
X294370Y54128D01*
X293840Y53777D01*
X293302Y53440D01*
X292755Y53115D01*
X292201Y52803D01*
X291640Y52504D01*
X291071Y52219D01*
X290496Y51948D01*
X289915Y51690D01*
X289328Y51447D01*
X288735Y51217D01*
X288137Y51002D01*
X287534Y50801D01*
X286926Y50614D01*
X286314Y50442D01*
X285698Y50284D01*
X285078Y50142D01*
X284456Y50014D01*
X283830Y49901D01*
X283202Y49802D01*
X282572Y49719D01*
X281939Y49651D01*
X281940Y49651D02*
X281291Y49597D01*
X280642Y49559D01*
X279991Y49537D01*
X279340Y49530D01*
X278689Y49539D01*
X278039Y49565D01*
X277389Y49606D01*
X276741Y49663D01*
X276094Y49736D01*
X275449Y49824D01*
X274806Y49929D01*
X274166Y50049D01*
X273530Y50184D01*
X272896Y50335D01*
X272267Y50502D01*
X271642Y50683D01*
X271021Y50880D01*
X270406Y51092D01*
X269796Y51319D01*
X269191Y51561D01*
X268593Y51818D01*
X268001Y52089D01*
X267416Y52374D01*
X266838Y52674D01*
X266268Y52987D01*
X265705Y53315D01*
X265151Y53656D01*
X264605Y54010D01*
X264068Y54378D01*
X263539Y54759D01*
X263021Y55152D01*
X262512Y55558D01*
X262013Y55976D01*
X261525Y56407D01*
X261047Y56849D01*
X260580Y57303D01*
X260125Y57768D01*
X259681Y58244D01*
X259248Y58730D01*
X258828Y59227D01*
X258420Y59734D01*
X258024Y60251D01*
X257641Y60778D01*
X257271Y61314D01*
X256914Y61858D01*
X256571Y62411D01*
X256241Y62972D01*
X255925Y63542D01*
X255623Y64118D01*
X255336Y64702D01*
X255062Y65293D01*
X254803Y65890D01*
X254559Y66494D01*
X254329Y67103D01*
X254115Y67717D01*
X253915Y68337D01*
X253915Y84063D02*
X254114Y84678D01*
X254326Y85289D01*
X254554Y85894D01*
X254796Y86493D01*
X255053Y87086D01*
X255324Y87673D01*
X255609Y88253D01*
X255908Y88826D01*
X256221Y89392D01*
X256548Y89950D01*
X256888Y90500D01*
X257241Y91041D01*
X257607Y91574D01*
X257986Y92097D01*
X258378Y92612D01*
X258781Y93116D01*
X259198Y93611D01*
X259625Y94096D01*
X260065Y94570D01*
X260516Y95033D01*
X260978Y95485D01*
X261451Y95926D01*
X261934Y96355D01*
X262428Y96772D01*
X262931Y97178D01*
X263444Y97571D01*
X263967Y97951D01*
X264499Y98319D01*
X265039Y98673D01*
X265588Y99015D01*
X266145Y99343D01*
X266710Y99657D01*
X267282Y99958D01*
X267861Y100245D01*
X268448Y100517D01*
X269040Y100776D01*
X269639Y101019D01*
X270243Y101249D01*
X270853Y101463D01*
X271468Y101663D01*
X272087Y101848D01*
X272711Y102018D01*
X273339Y102172D01*
X273970Y102311D01*
X274604Y102435D01*
X275242Y102544D01*
X275881Y102637D01*
X276523Y102714D01*
X277166Y102776D01*
X277811Y102823D01*
X278457Y102853D01*
X279103Y102868D01*
X279749Y102868D01*
X280396Y102851D01*
X281041Y102819D01*
X281686Y102772D01*
X282329Y102709D01*
X282971Y102630D01*
X283610Y102536D01*
X284247Y102426D01*
X284882Y102301D01*
X285513Y102160D01*
X286140Y102004D01*
X286763Y101833D01*
X287382Y101647D01*
X287997Y101446D01*
X288606Y101231D01*
X289210Y101000D01*
X289808Y100755D01*
X290400Y100496D01*
X290986Y100222D01*
X291565Y99934D01*
X292136Y99632D01*
X292701Y99317D01*
X293257Y98988D01*
X293805Y98645D01*
X294345Y98289D01*
X294876Y97921D01*
X295398Y97539D01*
X295910Y97145D01*
X295910Y55255D01*
X281940Y53663D02*
X281940Y49651D01*
X281940Y73337D02*
X281940Y79063D01*
X281940Y98737D02*
X281940Y102749D01*
X302260Y57785D02*
X307340Y57785D01*
X302260Y57785D02*
X302149Y57787D01*
X302039Y57793D01*
X301928Y57802D01*
X301818Y57816D01*
X301709Y57833D01*
X301600Y57854D01*
X301492Y57879D01*
X301385Y57908D01*
X301279Y57940D01*
X301174Y57976D01*
X301071Y58016D01*
X300969Y58059D01*
X300868Y58106D01*
X300769Y58157D01*
X300673Y58210D01*
X300578Y58267D01*
X300485Y58328D01*
X300394Y58391D01*
X300305Y58458D01*
X300219Y58528D01*
X300136Y58601D01*
X300054Y58676D01*
X299976Y58754D01*
X299901Y58836D01*
X299828Y58919D01*
X299758Y59005D01*
X299691Y59094D01*
X299628Y59185D01*
X299567Y59278D01*
X299510Y59372D01*
X299457Y59469D01*
X299406Y59568D01*
X299359Y59669D01*
X299316Y59771D01*
X299276Y59874D01*
X299240Y59979D01*
X299208Y60085D01*
X299179Y60192D01*
X299154Y60300D01*
X299133Y60409D01*
X299116Y60518D01*
X299102Y60628D01*
X299093Y60739D01*
X299087Y60849D01*
X299085Y60960D01*
X299087Y61071D01*
X299093Y61181D01*
X299102Y61292D01*
X299116Y61402D01*
X299133Y61511D01*
X299154Y61620D01*
X299179Y61728D01*
X299208Y61835D01*
X299240Y61941D01*
X299276Y62046D01*
X299316Y62149D01*
X299359Y62251D01*
X299406Y62352D01*
X299457Y62451D01*
X299510Y62547D01*
X299567Y62642D01*
X299628Y62735D01*
X299691Y62826D01*
X299758Y62915D01*
X299828Y63001D01*
X299901Y63084D01*
X299976Y63166D01*
X300054Y63244D01*
X300136Y63319D01*
X300219Y63392D01*
X300305Y63462D01*
X300394Y63529D01*
X300485Y63592D01*
X300578Y63653D01*
X300673Y63710D01*
X300769Y63763D01*
X300868Y63814D01*
X300969Y63861D01*
X301071Y63904D01*
X301174Y63944D01*
X301279Y63980D01*
X301385Y64012D01*
X301492Y64041D01*
X301600Y64066D01*
X301709Y64087D01*
X301818Y64104D01*
X301928Y64118D01*
X302039Y64127D01*
X302149Y64133D01*
X302260Y64135D01*
X307340Y64135D01*
X307451Y64133D01*
X307561Y64127D01*
X307672Y64118D01*
X307782Y64104D01*
X307891Y64087D01*
X308000Y64066D01*
X308108Y64041D01*
X308215Y64012D01*
X308321Y63980D01*
X308426Y63944D01*
X308529Y63904D01*
X308631Y63861D01*
X308732Y63814D01*
X308831Y63763D01*
X308928Y63710D01*
X309022Y63653D01*
X309115Y63592D01*
X309206Y63529D01*
X309295Y63462D01*
X309381Y63392D01*
X309464Y63319D01*
X309546Y63244D01*
X309624Y63166D01*
X309699Y63084D01*
X309772Y63001D01*
X309842Y62915D01*
X309909Y62826D01*
X309972Y62735D01*
X310033Y62642D01*
X310090Y62547D01*
X310143Y62451D01*
X310194Y62352D01*
X310241Y62251D01*
X310284Y62149D01*
X310324Y62046D01*
X310360Y61941D01*
X310392Y61835D01*
X310421Y61728D01*
X310446Y61620D01*
X310467Y61511D01*
X310484Y61402D01*
X310498Y61292D01*
X310507Y61181D01*
X310513Y61071D01*
X310515Y60960D01*
X310513Y60849D01*
X310507Y60739D01*
X310498Y60628D01*
X310484Y60518D01*
X310467Y60409D01*
X310446Y60300D01*
X310421Y60192D01*
X310392Y60085D01*
X310360Y59979D01*
X310324Y59874D01*
X310284Y59771D01*
X310241Y59669D01*
X310194Y59568D01*
X310143Y59469D01*
X310090Y59372D01*
X310033Y59278D01*
X309972Y59185D01*
X309909Y59094D01*
X309842Y59005D01*
X309772Y58919D01*
X309699Y58836D01*
X309624Y58754D01*
X309546Y58676D01*
X309464Y58601D01*
X309381Y58528D01*
X309295Y58458D01*
X309206Y58391D01*
X309115Y58328D01*
X309022Y58267D01*
X308928Y58210D01*
X308831Y58157D01*
X308732Y58106D01*
X308631Y58059D01*
X308529Y58016D01*
X308426Y57976D01*
X308321Y57940D01*
X308215Y57908D01*
X308108Y57879D01*
X308000Y57854D01*
X307891Y57833D01*
X307782Y57816D01*
X307672Y57802D01*
X307561Y57793D01*
X307451Y57787D01*
X307340Y57785D01*
X307975Y62865D02*
X310515Y65405D01*
X301625Y68846D02*
X299085Y72021D01*
X310515Y72021D01*
X310515Y68846D02*
X310515Y75196D01*
D100*
X203962Y70866D02*
X203962Y82550D01*
X207208Y82550D01*
X207321Y82548D01*
X207434Y82542D01*
X207547Y82532D01*
X207660Y82518D01*
X207772Y82501D01*
X207883Y82479D01*
X207993Y82454D01*
X208103Y82424D01*
X208211Y82391D01*
X208318Y82354D01*
X208424Y82314D01*
X208528Y82269D01*
X208631Y82221D01*
X208732Y82170D01*
X208831Y82115D01*
X208928Y82057D01*
X209023Y81995D01*
X209116Y81930D01*
X209206Y81862D01*
X209294Y81791D01*
X209380Y81716D01*
X209463Y81639D01*
X209543Y81559D01*
X209620Y81476D01*
X209695Y81390D01*
X209766Y81302D01*
X209834Y81212D01*
X209899Y81119D01*
X209961Y81024D01*
X210019Y80927D01*
X210074Y80828D01*
X210125Y80727D01*
X210173Y80624D01*
X210218Y80520D01*
X210258Y80414D01*
X210295Y80307D01*
X210328Y80199D01*
X210358Y80089D01*
X210383Y79979D01*
X210405Y79868D01*
X210422Y79756D01*
X210436Y79643D01*
X210446Y79530D01*
X210452Y79417D01*
X210454Y79304D01*
X210452Y79191D01*
X210446Y79078D01*
X210436Y78965D01*
X210422Y78852D01*
X210405Y78740D01*
X210383Y78629D01*
X210358Y78519D01*
X210328Y78409D01*
X210295Y78301D01*
X210258Y78194D01*
X210218Y78088D01*
X210173Y77984D01*
X210125Y77881D01*
X210074Y77780D01*
X210019Y77681D01*
X209961Y77584D01*
X209899Y77489D01*
X209834Y77396D01*
X209766Y77306D01*
X209695Y77218D01*
X209620Y77132D01*
X209543Y77049D01*
X209463Y76969D01*
X209380Y76892D01*
X209294Y76817D01*
X209206Y76746D01*
X209116Y76678D01*
X209023Y76613D01*
X208928Y76551D01*
X208831Y76493D01*
X208732Y76438D01*
X208631Y76387D01*
X208528Y76339D01*
X208424Y76294D01*
X208318Y76254D01*
X208211Y76217D01*
X208103Y76184D01*
X207993Y76154D01*
X207883Y76129D01*
X207772Y76107D01*
X207660Y76090D01*
X207547Y76076D01*
X207434Y76066D01*
X207321Y76060D01*
X207208Y76058D01*
X207208Y76059D02*
X203962Y76059D01*
X207857Y76059D02*
X210453Y70866D01*
X221809Y79629D02*
X221807Y79736D01*
X221801Y79842D01*
X221791Y79948D01*
X221778Y80054D01*
X221760Y80160D01*
X221739Y80264D01*
X221714Y80368D01*
X221685Y80471D01*
X221653Y80572D01*
X221616Y80672D01*
X221576Y80771D01*
X221533Y80869D01*
X221486Y80965D01*
X221435Y81059D01*
X221381Y81151D01*
X221324Y81241D01*
X221264Y81329D01*
X221200Y81414D01*
X221133Y81497D01*
X221063Y81578D01*
X220991Y81656D01*
X220915Y81732D01*
X220837Y81804D01*
X220756Y81874D01*
X220673Y81941D01*
X220588Y82005D01*
X220500Y82065D01*
X220410Y82122D01*
X220318Y82176D01*
X220224Y82227D01*
X220128Y82274D01*
X220030Y82317D01*
X219931Y82357D01*
X219831Y82394D01*
X219730Y82426D01*
X219627Y82455D01*
X219523Y82480D01*
X219419Y82501D01*
X219313Y82519D01*
X219207Y82532D01*
X219101Y82542D01*
X218995Y82548D01*
X218888Y82550D01*
X218767Y82548D01*
X218646Y82542D01*
X218526Y82532D01*
X218405Y82519D01*
X218286Y82501D01*
X218166Y82480D01*
X218048Y82455D01*
X217931Y82426D01*
X217814Y82393D01*
X217699Y82357D01*
X217585Y82316D01*
X217472Y82273D01*
X217360Y82225D01*
X217251Y82174D01*
X217143Y82119D01*
X217036Y82061D01*
X216932Y82000D01*
X216830Y81935D01*
X216730Y81867D01*
X216632Y81796D01*
X216536Y81722D01*
X216443Y81645D01*
X216353Y81564D01*
X216265Y81481D01*
X216180Y81395D01*
X216097Y81306D01*
X216018Y81215D01*
X215941Y81121D01*
X215868Y81025D01*
X215798Y80927D01*
X215731Y80826D01*
X215667Y80723D01*
X215607Y80618D01*
X215550Y80511D01*
X215496Y80403D01*
X215446Y80293D01*
X215400Y80181D01*
X215357Y80068D01*
X215318Y79953D01*
X220836Y77357D02*
X220915Y77434D01*
X220991Y77515D01*
X221064Y77598D01*
X221134Y77683D01*
X221201Y77771D01*
X221265Y77861D01*
X221325Y77953D01*
X221382Y78048D01*
X221436Y78144D01*
X221487Y78242D01*
X221534Y78342D01*
X221578Y78444D01*
X221618Y78547D01*
X221654Y78651D01*
X221686Y78757D01*
X221715Y78863D01*
X221740Y78971D01*
X221762Y79079D01*
X221779Y79189D01*
X221793Y79298D01*
X221802Y79408D01*
X221808Y79519D01*
X221810Y79629D01*
X220836Y77357D02*
X215318Y70866D01*
X221809Y70866D01*
M02*
