G04 EAGLE Gerber RS-274X export*
G75*
%MOMM*%
%FSLAX34Y34*%
%LPD*%
%INSilkscreen Bottom*%
%IPPOS*%
%AMOC8*
5,1,8,0,0,1.08239X$1,22.5*%
G01*
%ADD10C,0.127000*%
%ADD11C,0.152400*%
%ADD12R,2.032000X0.508000*%
%ADD13R,0.508000X0.635000*%
%ADD14C,0.101600*%


D10*
X309100Y114783D02*
X275100Y114783D01*
X275100Y139217D02*
X309100Y139217D01*
X289343Y142367D02*
X286803Y142367D01*
X289343Y142367D02*
X289443Y142369D01*
X289542Y142375D01*
X289642Y142385D01*
X289740Y142398D01*
X289839Y142416D01*
X289936Y142437D01*
X290032Y142462D01*
X290128Y142491D01*
X290222Y142524D01*
X290315Y142560D01*
X290406Y142600D01*
X290496Y142644D01*
X290584Y142691D01*
X290670Y142741D01*
X290754Y142795D01*
X290836Y142852D01*
X290915Y142912D01*
X290993Y142976D01*
X291067Y143042D01*
X291139Y143111D01*
X291208Y143183D01*
X291274Y143257D01*
X291338Y143335D01*
X291398Y143414D01*
X291455Y143496D01*
X291509Y143580D01*
X291559Y143666D01*
X291606Y143754D01*
X291650Y143844D01*
X291690Y143935D01*
X291726Y144028D01*
X291759Y144122D01*
X291788Y144218D01*
X291813Y144314D01*
X291834Y144411D01*
X291852Y144510D01*
X291865Y144608D01*
X291875Y144708D01*
X291881Y144807D01*
X291883Y144907D01*
X291883Y151257D01*
X291881Y151357D01*
X291875Y151456D01*
X291865Y151556D01*
X291852Y151654D01*
X291834Y151753D01*
X291813Y151850D01*
X291788Y151946D01*
X291759Y152042D01*
X291726Y152136D01*
X291690Y152229D01*
X291650Y152320D01*
X291606Y152410D01*
X291559Y152498D01*
X291509Y152584D01*
X291455Y152668D01*
X291398Y152750D01*
X291338Y152829D01*
X291274Y152907D01*
X291208Y152981D01*
X291139Y153053D01*
X291067Y153122D01*
X290993Y153188D01*
X290915Y153252D01*
X290836Y153312D01*
X290754Y153369D01*
X290670Y153423D01*
X290584Y153473D01*
X290496Y153520D01*
X290406Y153564D01*
X290315Y153604D01*
X290222Y153640D01*
X290128Y153673D01*
X290032Y153702D01*
X289936Y153727D01*
X289839Y153748D01*
X289740Y153766D01*
X289642Y153779D01*
X289542Y153789D01*
X289443Y153795D01*
X289343Y153797D01*
X286803Y153797D01*
X278829Y153798D02*
X278725Y153796D01*
X278620Y153790D01*
X278516Y153781D01*
X278413Y153768D01*
X278310Y153750D01*
X278208Y153730D01*
X278106Y153705D01*
X278006Y153677D01*
X277906Y153645D01*
X277808Y153609D01*
X277711Y153570D01*
X277616Y153528D01*
X277522Y153482D01*
X277430Y153432D01*
X277340Y153380D01*
X277252Y153324D01*
X277166Y153264D01*
X277082Y153202D01*
X277001Y153137D01*
X276922Y153069D01*
X276845Y152997D01*
X276772Y152924D01*
X276700Y152847D01*
X276632Y152768D01*
X276567Y152687D01*
X276505Y152603D01*
X276445Y152517D01*
X276389Y152429D01*
X276337Y152339D01*
X276287Y152247D01*
X276241Y152153D01*
X276199Y152058D01*
X276160Y151961D01*
X276124Y151863D01*
X276092Y151763D01*
X276064Y151663D01*
X276039Y151561D01*
X276019Y151459D01*
X276001Y151356D01*
X275988Y151253D01*
X275979Y151149D01*
X275973Y151044D01*
X275971Y150940D01*
X278829Y153797D02*
X278947Y153795D01*
X279066Y153789D01*
X279184Y153780D01*
X279301Y153767D01*
X279418Y153749D01*
X279535Y153729D01*
X279651Y153704D01*
X279766Y153676D01*
X279879Y153643D01*
X279992Y153608D01*
X280104Y153568D01*
X280214Y153526D01*
X280323Y153479D01*
X280431Y153429D01*
X280536Y153376D01*
X280640Y153319D01*
X280742Y153259D01*
X280842Y153196D01*
X280940Y153129D01*
X281036Y153060D01*
X281129Y152987D01*
X281220Y152911D01*
X281309Y152833D01*
X281395Y152751D01*
X281478Y152667D01*
X281559Y152581D01*
X281636Y152491D01*
X281711Y152400D01*
X281783Y152306D01*
X281852Y152209D01*
X281917Y152111D01*
X281980Y152010D01*
X282039Y151907D01*
X282095Y151803D01*
X282147Y151697D01*
X282196Y151589D01*
X282241Y151480D01*
X282283Y151369D01*
X282321Y151257D01*
X276923Y148718D02*
X276847Y148793D01*
X276772Y148872D01*
X276701Y148953D01*
X276632Y149037D01*
X276567Y149123D01*
X276505Y149211D01*
X276445Y149301D01*
X276389Y149393D01*
X276336Y149488D01*
X276287Y149584D01*
X276241Y149682D01*
X276198Y149781D01*
X276159Y149882D01*
X276124Y149984D01*
X276092Y150087D01*
X276064Y150191D01*
X276039Y150296D01*
X276018Y150403D01*
X276001Y150509D01*
X275988Y150616D01*
X275979Y150724D01*
X275973Y150832D01*
X275971Y150940D01*
X276924Y148717D02*
X282321Y142367D01*
X275971Y142367D01*
D11*
X88900Y146050D02*
X88900Y152400D01*
X95250Y162560D02*
X82550Y162560D01*
X88900Y152400D01*
X88900Y167640D01*
X95250Y162560D02*
X88900Y152400D01*
X95250Y152400D01*
X88900Y152400D02*
X82550Y152400D01*
X99060Y172720D02*
X99058Y172820D01*
X99052Y172919D01*
X99042Y173019D01*
X99029Y173117D01*
X99011Y173216D01*
X98990Y173313D01*
X98965Y173409D01*
X98936Y173505D01*
X98903Y173599D01*
X98867Y173692D01*
X98827Y173783D01*
X98783Y173873D01*
X98736Y173961D01*
X98686Y174047D01*
X98632Y174131D01*
X98575Y174213D01*
X98515Y174292D01*
X98451Y174370D01*
X98385Y174444D01*
X98316Y174516D01*
X98244Y174585D01*
X98170Y174651D01*
X98092Y174715D01*
X98013Y174775D01*
X97931Y174832D01*
X97847Y174886D01*
X97761Y174936D01*
X97673Y174983D01*
X97583Y175027D01*
X97492Y175067D01*
X97399Y175103D01*
X97305Y175136D01*
X97209Y175165D01*
X97113Y175190D01*
X97016Y175211D01*
X96917Y175229D01*
X96819Y175242D01*
X96719Y175252D01*
X96620Y175258D01*
X96520Y175260D01*
X81280Y175260D01*
X81180Y175258D01*
X81081Y175252D01*
X80981Y175242D01*
X80883Y175229D01*
X80784Y175211D01*
X80687Y175190D01*
X80591Y175165D01*
X80495Y175136D01*
X80401Y175103D01*
X80308Y175067D01*
X80217Y175027D01*
X80127Y174983D01*
X80039Y174936D01*
X79953Y174886D01*
X79869Y174832D01*
X79787Y174775D01*
X79708Y174715D01*
X79630Y174651D01*
X79556Y174585D01*
X79484Y174516D01*
X79415Y174444D01*
X79349Y174370D01*
X79285Y174292D01*
X79225Y174213D01*
X79168Y174131D01*
X79114Y174047D01*
X79064Y173961D01*
X79017Y173873D01*
X78973Y173783D01*
X78933Y173692D01*
X78897Y173599D01*
X78864Y173505D01*
X78835Y173409D01*
X78810Y173313D01*
X78789Y173216D01*
X78771Y173117D01*
X78758Y173019D01*
X78748Y172919D01*
X78742Y172820D01*
X78740Y172720D01*
X99060Y132080D02*
X99058Y131980D01*
X99052Y131881D01*
X99042Y131781D01*
X99029Y131683D01*
X99011Y131584D01*
X98990Y131487D01*
X98965Y131391D01*
X98936Y131295D01*
X98903Y131201D01*
X98867Y131108D01*
X98827Y131017D01*
X98783Y130927D01*
X98736Y130839D01*
X98686Y130753D01*
X98632Y130669D01*
X98575Y130587D01*
X98515Y130508D01*
X98451Y130430D01*
X98385Y130356D01*
X98316Y130284D01*
X98244Y130215D01*
X98170Y130149D01*
X98092Y130085D01*
X98013Y130025D01*
X97931Y129968D01*
X97847Y129914D01*
X97761Y129864D01*
X97673Y129817D01*
X97583Y129773D01*
X97492Y129733D01*
X97399Y129697D01*
X97305Y129664D01*
X97209Y129635D01*
X97113Y129610D01*
X97016Y129589D01*
X96917Y129571D01*
X96819Y129558D01*
X96719Y129548D01*
X96620Y129542D01*
X96520Y129540D01*
X81280Y129540D02*
X81180Y129542D01*
X81081Y129548D01*
X80981Y129558D01*
X80883Y129571D01*
X80784Y129589D01*
X80687Y129610D01*
X80591Y129635D01*
X80495Y129664D01*
X80401Y129697D01*
X80308Y129733D01*
X80217Y129773D01*
X80127Y129817D01*
X80039Y129864D01*
X79953Y129914D01*
X79869Y129968D01*
X79787Y130025D01*
X79708Y130085D01*
X79630Y130149D01*
X79556Y130215D01*
X79484Y130284D01*
X79415Y130356D01*
X79349Y130430D01*
X79285Y130508D01*
X79225Y130587D01*
X79168Y130669D01*
X79114Y130753D01*
X79064Y130839D01*
X79017Y130927D01*
X78973Y131017D01*
X78933Y131108D01*
X78897Y131201D01*
X78864Y131295D01*
X78835Y131391D01*
X78810Y131487D01*
X78789Y131584D01*
X78771Y131683D01*
X78758Y131781D01*
X78748Y131881D01*
X78742Y131980D01*
X78740Y132080D01*
X78740Y172720D01*
X81280Y129540D02*
X96520Y129540D01*
X99060Y132080D02*
X99060Y172720D01*
D12*
X88900Y135890D03*
D13*
X88900Y178435D03*
X88900Y126365D03*
D10*
X75565Y144145D02*
X64135Y144145D01*
X75565Y144145D02*
X75565Y147320D01*
X75563Y147431D01*
X75557Y147541D01*
X75548Y147652D01*
X75534Y147762D01*
X75517Y147871D01*
X75496Y147980D01*
X75471Y148088D01*
X75442Y148195D01*
X75410Y148301D01*
X75374Y148406D01*
X75334Y148509D01*
X75291Y148611D01*
X75244Y148712D01*
X75193Y148811D01*
X75140Y148908D01*
X75083Y149002D01*
X75022Y149095D01*
X74959Y149186D01*
X74892Y149275D01*
X74822Y149361D01*
X74749Y149444D01*
X74674Y149526D01*
X74596Y149604D01*
X74514Y149679D01*
X74431Y149752D01*
X74345Y149822D01*
X74256Y149889D01*
X74165Y149952D01*
X74072Y150013D01*
X73978Y150070D01*
X73881Y150123D01*
X73782Y150174D01*
X73681Y150221D01*
X73579Y150264D01*
X73476Y150304D01*
X73371Y150340D01*
X73265Y150372D01*
X73158Y150401D01*
X73050Y150426D01*
X72941Y150447D01*
X72832Y150464D01*
X72722Y150478D01*
X72611Y150487D01*
X72501Y150493D01*
X72390Y150495D01*
X67310Y150495D01*
X67199Y150493D01*
X67089Y150487D01*
X66978Y150478D01*
X66868Y150464D01*
X66759Y150447D01*
X66650Y150426D01*
X66542Y150401D01*
X66435Y150372D01*
X66329Y150340D01*
X66224Y150304D01*
X66121Y150264D01*
X66019Y150221D01*
X65918Y150174D01*
X65819Y150123D01*
X65723Y150070D01*
X65628Y150013D01*
X65535Y149952D01*
X65444Y149889D01*
X65355Y149822D01*
X65269Y149752D01*
X65186Y149679D01*
X65104Y149604D01*
X65026Y149526D01*
X64951Y149444D01*
X64878Y149361D01*
X64808Y149275D01*
X64741Y149186D01*
X64678Y149095D01*
X64617Y149002D01*
X64560Y148908D01*
X64507Y148811D01*
X64456Y148712D01*
X64409Y148611D01*
X64366Y148509D01*
X64326Y148406D01*
X64290Y148301D01*
X64258Y148195D01*
X64229Y148088D01*
X64204Y147980D01*
X64183Y147871D01*
X64166Y147762D01*
X64152Y147652D01*
X64143Y147541D01*
X64137Y147431D01*
X64135Y147320D01*
X64135Y144145D01*
X73025Y155956D02*
X75565Y159131D01*
X64135Y159131D01*
X64135Y155956D02*
X64135Y162306D01*
D11*
X127000Y158750D02*
X127000Y152400D01*
X120650Y142240D02*
X133350Y142240D01*
X127000Y152400D01*
X127000Y137160D01*
X120650Y142240D02*
X127000Y152400D01*
X120650Y152400D01*
X127000Y152400D02*
X133350Y152400D01*
X116840Y132080D02*
X116842Y131980D01*
X116848Y131881D01*
X116858Y131781D01*
X116871Y131683D01*
X116889Y131584D01*
X116910Y131487D01*
X116935Y131391D01*
X116964Y131295D01*
X116997Y131201D01*
X117033Y131108D01*
X117073Y131017D01*
X117117Y130927D01*
X117164Y130839D01*
X117214Y130753D01*
X117268Y130669D01*
X117325Y130587D01*
X117385Y130508D01*
X117449Y130430D01*
X117515Y130356D01*
X117584Y130284D01*
X117656Y130215D01*
X117730Y130149D01*
X117808Y130085D01*
X117887Y130025D01*
X117969Y129968D01*
X118053Y129914D01*
X118139Y129864D01*
X118227Y129817D01*
X118317Y129773D01*
X118408Y129733D01*
X118501Y129697D01*
X118595Y129664D01*
X118691Y129635D01*
X118787Y129610D01*
X118884Y129589D01*
X118983Y129571D01*
X119081Y129558D01*
X119181Y129548D01*
X119280Y129542D01*
X119380Y129540D01*
X134620Y129540D01*
X134720Y129542D01*
X134819Y129548D01*
X134919Y129558D01*
X135017Y129571D01*
X135116Y129589D01*
X135213Y129610D01*
X135309Y129635D01*
X135405Y129664D01*
X135499Y129697D01*
X135592Y129733D01*
X135683Y129773D01*
X135773Y129817D01*
X135861Y129864D01*
X135947Y129914D01*
X136031Y129968D01*
X136113Y130025D01*
X136192Y130085D01*
X136270Y130149D01*
X136344Y130215D01*
X136416Y130284D01*
X136485Y130356D01*
X136551Y130430D01*
X136615Y130508D01*
X136675Y130587D01*
X136732Y130669D01*
X136786Y130753D01*
X136836Y130839D01*
X136883Y130927D01*
X136927Y131017D01*
X136967Y131108D01*
X137003Y131201D01*
X137036Y131295D01*
X137065Y131391D01*
X137090Y131487D01*
X137111Y131584D01*
X137129Y131683D01*
X137142Y131781D01*
X137152Y131881D01*
X137158Y131980D01*
X137160Y132080D01*
X116840Y172720D02*
X116842Y172820D01*
X116848Y172919D01*
X116858Y173019D01*
X116871Y173117D01*
X116889Y173216D01*
X116910Y173313D01*
X116935Y173409D01*
X116964Y173505D01*
X116997Y173599D01*
X117033Y173692D01*
X117073Y173783D01*
X117117Y173873D01*
X117164Y173961D01*
X117214Y174047D01*
X117268Y174131D01*
X117325Y174213D01*
X117385Y174292D01*
X117449Y174370D01*
X117515Y174444D01*
X117584Y174516D01*
X117656Y174585D01*
X117730Y174651D01*
X117808Y174715D01*
X117887Y174775D01*
X117969Y174832D01*
X118053Y174886D01*
X118139Y174936D01*
X118227Y174983D01*
X118317Y175027D01*
X118408Y175067D01*
X118501Y175103D01*
X118595Y175136D01*
X118691Y175165D01*
X118787Y175190D01*
X118884Y175211D01*
X118983Y175229D01*
X119081Y175242D01*
X119181Y175252D01*
X119280Y175258D01*
X119380Y175260D01*
X134620Y175260D02*
X134720Y175258D01*
X134819Y175252D01*
X134919Y175242D01*
X135017Y175229D01*
X135116Y175211D01*
X135213Y175190D01*
X135309Y175165D01*
X135405Y175136D01*
X135499Y175103D01*
X135592Y175067D01*
X135683Y175027D01*
X135773Y174983D01*
X135861Y174936D01*
X135947Y174886D01*
X136031Y174832D01*
X136113Y174775D01*
X136192Y174715D01*
X136270Y174651D01*
X136344Y174585D01*
X136416Y174516D01*
X136485Y174444D01*
X136551Y174370D01*
X136615Y174292D01*
X136675Y174213D01*
X136732Y174131D01*
X136786Y174047D01*
X136836Y173961D01*
X136883Y173873D01*
X136927Y173783D01*
X136967Y173692D01*
X137003Y173599D01*
X137036Y173505D01*
X137065Y173409D01*
X137090Y173313D01*
X137111Y173216D01*
X137129Y173117D01*
X137142Y173019D01*
X137152Y172919D01*
X137158Y172820D01*
X137160Y172720D01*
X137160Y132080D01*
X134620Y175260D02*
X119380Y175260D01*
X116840Y172720D02*
X116840Y132080D01*
D12*
X127000Y168910D03*
D13*
X127000Y126365D03*
X127000Y178435D03*
D10*
X140335Y142494D02*
X151765Y142494D01*
X151765Y145669D01*
X151763Y145780D01*
X151757Y145890D01*
X151748Y146001D01*
X151734Y146111D01*
X151717Y146220D01*
X151696Y146329D01*
X151671Y146437D01*
X151642Y146544D01*
X151610Y146650D01*
X151574Y146755D01*
X151534Y146858D01*
X151491Y146960D01*
X151444Y147061D01*
X151393Y147160D01*
X151340Y147257D01*
X151283Y147351D01*
X151222Y147444D01*
X151159Y147535D01*
X151092Y147624D01*
X151022Y147710D01*
X150949Y147793D01*
X150874Y147875D01*
X150796Y147953D01*
X150714Y148028D01*
X150631Y148101D01*
X150545Y148171D01*
X150456Y148238D01*
X150365Y148301D01*
X150272Y148362D01*
X150178Y148419D01*
X150081Y148472D01*
X149982Y148523D01*
X149881Y148570D01*
X149779Y148613D01*
X149676Y148653D01*
X149571Y148689D01*
X149465Y148721D01*
X149358Y148750D01*
X149250Y148775D01*
X149141Y148796D01*
X149032Y148813D01*
X148922Y148827D01*
X148811Y148836D01*
X148701Y148842D01*
X148590Y148844D01*
X143510Y148844D01*
X143399Y148842D01*
X143289Y148836D01*
X143178Y148827D01*
X143068Y148813D01*
X142959Y148796D01*
X142850Y148775D01*
X142742Y148750D01*
X142635Y148721D01*
X142529Y148689D01*
X142424Y148653D01*
X142321Y148613D01*
X142219Y148570D01*
X142118Y148523D01*
X142019Y148472D01*
X141923Y148419D01*
X141828Y148362D01*
X141735Y148301D01*
X141644Y148238D01*
X141555Y148171D01*
X141469Y148101D01*
X141386Y148028D01*
X141304Y147953D01*
X141226Y147875D01*
X141151Y147793D01*
X141078Y147710D01*
X141008Y147624D01*
X140941Y147535D01*
X140878Y147444D01*
X140817Y147351D01*
X140760Y147257D01*
X140707Y147160D01*
X140656Y147061D01*
X140609Y146960D01*
X140566Y146858D01*
X140526Y146755D01*
X140490Y146650D01*
X140458Y146544D01*
X140429Y146437D01*
X140404Y146329D01*
X140383Y146220D01*
X140366Y146111D01*
X140352Y146001D01*
X140343Y145890D01*
X140337Y145780D01*
X140335Y145669D01*
X140335Y142494D01*
X151766Y157798D02*
X151764Y157902D01*
X151758Y158007D01*
X151749Y158111D01*
X151736Y158214D01*
X151718Y158317D01*
X151698Y158419D01*
X151673Y158521D01*
X151645Y158621D01*
X151613Y158721D01*
X151577Y158819D01*
X151538Y158916D01*
X151496Y159011D01*
X151450Y159105D01*
X151400Y159197D01*
X151348Y159287D01*
X151292Y159375D01*
X151232Y159461D01*
X151170Y159545D01*
X151105Y159626D01*
X151037Y159705D01*
X150965Y159782D01*
X150892Y159855D01*
X150815Y159927D01*
X150736Y159995D01*
X150655Y160060D01*
X150571Y160122D01*
X150485Y160182D01*
X150397Y160238D01*
X150307Y160290D01*
X150215Y160340D01*
X150121Y160386D01*
X150026Y160428D01*
X149929Y160467D01*
X149831Y160503D01*
X149731Y160535D01*
X149631Y160563D01*
X149529Y160588D01*
X149427Y160608D01*
X149324Y160626D01*
X149221Y160639D01*
X149117Y160648D01*
X149012Y160654D01*
X148908Y160656D01*
X151765Y157798D02*
X151763Y157680D01*
X151757Y157561D01*
X151748Y157443D01*
X151735Y157326D01*
X151717Y157209D01*
X151697Y157092D01*
X151672Y156976D01*
X151644Y156861D01*
X151611Y156748D01*
X151576Y156635D01*
X151536Y156523D01*
X151494Y156413D01*
X151447Y156304D01*
X151397Y156196D01*
X151344Y156091D01*
X151287Y155987D01*
X151227Y155885D01*
X151164Y155785D01*
X151097Y155687D01*
X151028Y155591D01*
X150955Y155498D01*
X150879Y155407D01*
X150801Y155318D01*
X150719Y155232D01*
X150635Y155149D01*
X150549Y155068D01*
X150459Y154991D01*
X150368Y154916D01*
X150274Y154844D01*
X150177Y154775D01*
X150079Y154710D01*
X149978Y154647D01*
X149875Y154588D01*
X149771Y154532D01*
X149665Y154480D01*
X149557Y154431D01*
X149448Y154386D01*
X149337Y154344D01*
X149225Y154306D01*
X146686Y159703D02*
X146761Y159779D01*
X146840Y159854D01*
X146921Y159925D01*
X147005Y159994D01*
X147091Y160059D01*
X147179Y160121D01*
X147269Y160181D01*
X147361Y160237D01*
X147456Y160290D01*
X147552Y160339D01*
X147650Y160385D01*
X147749Y160428D01*
X147850Y160467D01*
X147952Y160502D01*
X148055Y160534D01*
X148159Y160562D01*
X148264Y160587D01*
X148371Y160608D01*
X148477Y160625D01*
X148584Y160638D01*
X148692Y160647D01*
X148800Y160653D01*
X148908Y160655D01*
X146685Y159703D02*
X140335Y154305D01*
X140335Y160655D01*
D14*
X165608Y210245D02*
X177292Y210245D01*
X177292Y213490D01*
X177290Y213603D01*
X177284Y213716D01*
X177274Y213829D01*
X177260Y213942D01*
X177243Y214054D01*
X177221Y214165D01*
X177196Y214275D01*
X177166Y214385D01*
X177133Y214493D01*
X177096Y214600D01*
X177056Y214706D01*
X177011Y214810D01*
X176963Y214913D01*
X176912Y215014D01*
X176857Y215113D01*
X176799Y215210D01*
X176737Y215305D01*
X176672Y215398D01*
X176604Y215488D01*
X176533Y215576D01*
X176458Y215662D01*
X176381Y215745D01*
X176301Y215825D01*
X176218Y215902D01*
X176132Y215977D01*
X176044Y216048D01*
X175954Y216116D01*
X175861Y216181D01*
X175766Y216243D01*
X175669Y216301D01*
X175570Y216356D01*
X175469Y216407D01*
X175366Y216455D01*
X175262Y216500D01*
X175156Y216540D01*
X175049Y216577D01*
X174941Y216610D01*
X174831Y216640D01*
X174721Y216665D01*
X174610Y216687D01*
X174498Y216704D01*
X174385Y216718D01*
X174272Y216728D01*
X174159Y216734D01*
X174046Y216736D01*
X173933Y216734D01*
X173820Y216728D01*
X173707Y216718D01*
X173594Y216704D01*
X173482Y216687D01*
X173371Y216665D01*
X173261Y216640D01*
X173151Y216610D01*
X173043Y216577D01*
X172936Y216540D01*
X172830Y216500D01*
X172726Y216455D01*
X172623Y216407D01*
X172522Y216356D01*
X172423Y216301D01*
X172326Y216243D01*
X172231Y216181D01*
X172138Y216116D01*
X172048Y216048D01*
X171960Y215977D01*
X171874Y215902D01*
X171791Y215825D01*
X171711Y215745D01*
X171634Y215662D01*
X171559Y215576D01*
X171488Y215488D01*
X171420Y215398D01*
X171355Y215305D01*
X171293Y215210D01*
X171235Y215113D01*
X171180Y215014D01*
X171129Y214913D01*
X171081Y214810D01*
X171036Y214706D01*
X170996Y214600D01*
X170959Y214493D01*
X170926Y214385D01*
X170896Y214275D01*
X170871Y214165D01*
X170849Y214054D01*
X170832Y213942D01*
X170818Y213829D01*
X170808Y213716D01*
X170802Y213603D01*
X170800Y213490D01*
X170801Y213490D02*
X170801Y210245D01*
X170801Y214139D02*
X165608Y216736D01*
X174696Y221601D02*
X177292Y224846D01*
X165608Y224846D01*
X165608Y221601D02*
X165608Y228092D01*
M02*
