G04 EAGLE Gerber RS-274X export*
G75*
%MOMM*%
%FSLAX34Y34*%
%LPD*%
%INSoldermask Top*%
%IPPOS*%
%AMOC8*
5,1,8,0,0,1.08239X$1,22.5*%
G01*
%ADD10C,4.203200*%
%ADD11P,1.539592X8X292.500000*%
%ADD12C,1.422400*%
%ADD13C,1.524000*%
%ADD14P,1.649562X8X292.500000*%
%ADD15C,1.589200*%
%ADD16C,2.153200*%
%ADD17P,1.649562X8X112.500000*%
%ADD18R,1.803200X2.006200*%
%ADD19C,0.959600*%


D10*
X350000Y50000D03*
X350000Y250000D03*
X50000Y250000D03*
X50000Y50000D03*
D11*
X177800Y29210D03*
D12*
X177800Y46990D03*
D11*
X107950Y141732D03*
D12*
X107950Y159512D03*
D13*
X88900Y120904D02*
X88900Y107696D01*
X88900Y183896D02*
X88900Y197104D01*
X127000Y197104D02*
X127000Y183896D01*
X127000Y120904D02*
X127000Y107696D01*
D14*
X101600Y63500D03*
X101600Y38100D03*
D15*
X152400Y98400D03*
X177800Y98400D03*
X203200Y98400D03*
X228600Y98400D03*
X228600Y181000D03*
X203200Y181000D03*
X177800Y181000D03*
X152400Y181000D03*
D16*
X30000Y175400D03*
X30000Y124600D03*
X370000Y124600D03*
X370000Y175400D03*
X250800Y270000D03*
X200000Y270000D03*
X149200Y270000D03*
D17*
X279400Y88900D03*
X260350Y76200D03*
X279400Y63500D03*
D18*
X192020Y76200D03*
X163580Y76200D03*
D19*
X88900Y266700D03*
X203200Y139700D03*
M02*
