M48
;GenerationSoftware,Autodesk,EAGLE,9.6.2*%
;CreationDate,2022-09-28T17:06:12Z*%
FMAT,2
ICI,OFF
METRIC,TZ,000.000
T6C0.350
T5C0.711
T4C0.786
T3C0.813
T2C1.300
T1C4.000
%
G90
M71
T1
X35000Y5000
X35000Y25000
X5000Y25000
X5000Y5000
T2
X25080Y27000
X37000Y17540
X37000Y12460
X3000Y12460
X3000Y17540
X20000Y27000
X14920Y27000
T3
X27940Y6350
X8890Y11430
X8890Y19050
X12700Y19050
X12700Y11430
X10160Y6350
X10160Y3810
X27940Y8890
X26035Y7620
T4
X22860Y18100
X20320Y18100
X17780Y18100
X15240Y18100
X15240Y9840
X17780Y9840
X20320Y9840
X22860Y9840
T5
X10795Y15951
X10795Y14173
X17780Y4699
X17780Y2921
T6
X20320Y13970
X8890Y26670
M30